<svg xmlns="http://www.w3.org/2000/svg" xmlns:xlink="http://www.w3.org/1999/xlink" viewBox="0 0 414 445.5"><style>.st52{fill:#fff}.st57{fill:none;stroke:#263238;stroke-linecap:round;stroke-linejoin:round}.st62{opacity:.2;enable-background:new}.st63{fill:#263238;stroke:#263238;stroke-linecap:round;stroke-linejoin:round}.st64{fill:#fff}.st64,.st77{stroke:#263238;stroke-linecap:round;stroke-linejoin:round}.st78{fill:#282828}.st80{fill:#d3ff4a}.st87{fill:#455a64}.st88{fill:#f5f5f5}.st89,.st91{opacity:.6;fill:#fff}.st91{opacity:.8}.st93{fill:#fafafa}.st94{fill:#5b5b5b}.st95{fill:none;stroke:#e0e0e0;stroke-width:.4968;stroke-linecap:round;stroke-linejoin:round;stroke-miterlimit:10}</style><g id="Layer_5"><path d="M326.8 46.5c-71.7-60.8-177.8-62.2-229.5-3s-42.9 81.6-53.9 159.4S-18 312.7 6.8 372.2s91.2 86.3 162.1 63.1c70.9-23.2 159-49.4 209.6-117s32.4-145.1 32.4-145.1-12.4-65.9-84.1-126.7z" opacity=".7" fill="#fff" id="freepik--background-simple--inject-2_7_"/><g id="freepik--Table--inject-2_7_"><path class="st62" d="M145.2 262.6L52.5 444.3h79.3l130.3-118.6 46.8 118.6 2.8.5-44.5-121.9 31.5-26.5L333.1 445h2.1l-30.9-151.3 32.4-27.8z"/><path class="st63" d="M329.9 263.3h8.4L335.2 445h-2.1zM149.6 263.3h8.4L154.9 445h-2.1z"/><path class="st64" d="M140 260.5h201.5v4.7H140z"/></g><g id="freepik--Character--inject-2_7_"><path class="st63" d="M160.4 260.4c-2.3-.1-4.1-2.1-4-4.4s2.1-4.1 4.4-4h33.5c2.3.1 4.1 2.1 4 4.4-.1 2.3-2.1 4.1-4.4 4h-33.5z"/><path class="st63" d="M185.1 194.5h101.6l-10 66H175.1z"/><path fill="gray" stroke="#263238" stroke-linecap="round" stroke-linejoin="round" d="M189.2 197.3h88l-8.9 56.3h-86.8z"/><path class="st78" d="M98 277.4c-7.9 4.7-12.2 17.8-4 28.5s34.1 21.1 42.7 26.6 15.8 16.2 22.6 22.9c6.8 6.8 7.3 17 17 35s20.4 25.6 29.3 33.3 17 18.9 19.6 20.1c2.7 1.2 4.7-.7 6.3-2.2 1.6-1.6 8.5-3.6 13.7-5 5.3-1.3 12.7-9 12.5-11.8s-4.6-.9-15.2.1c-10.7.9-19.7.7-19.7.7s-3.7-4.1-9.2-11.8c-5.5-7.7-16.4-32.9-22.4-46.6s-12.4-29.4-21.5-44.9c-6.4-10.8-14.4-20.5-23.7-28.9-2.9-3-5.6-6.2-8-9.7-6.1-12.7-32-11-40-6.3z"/><path class="st64" d="M192.3 412.1c4.6 4.6 9.2 8.2 13.3 11.8 9 7.7 17 18.9 19.6 20.1 2.7 1.2 4.7-.7 6.3-2.2 1.6-1.6 8.5-3.6 13.7-5 5.3-1.3 12.7-9 12.5-11.8-.1-2.8-4.6-.9-15.2.1-10.7.9-19.7.7-19.7.7s-3.6-4.1-9.2-11.8c-2.4-3.6-4.5-7.4-6.4-11.4-3.8 4.7-9.1 8-14.9 9.5z"/><path class="st77" d="M231.5 441.7c1.6-1.6 8.5-3.6 13.7-5 5.3-1.3 12.7-9 12.5-11.8-.1-2.8-4.6-.9-15.2.1l-1.8.2 3.6 5.3c-2.7 1.7-5.6 3-8.6 3.9-3.3 1-7 4.6-14.3 6.1 1.1 1.4 2.4 2.5 3.8 3.5 2.7 1.2 4.7-.7 6.3-2.3z"/><path class="st78" d="M188 317.9c-9.2 5.6-21.6 21.5-26.6 32.6-4.9 11.1-20.8 35.1-25.1 38.8-4.3 3.6-11.4 7.1-10.1 9.9 2.6 5.6 7.9 10.1 16.1 17 8.2 6.9 16.3 7.3 19.7 6.2 3.4-1.1.6-3.2-5.8-9-6.4-5.8-11.7-12.4-10.3-14.4 10.9-15.7 33-35.4 39.9-40.5s16.3-14.1 20.6-22.7c2.7-5.6 4.8-11.5 6.2-17.6"/><path class="st64" d="M142.3 416.1c8.2 6.9 16.3 7.3 19.7 6.2s.6-3.2-5.8-9c-6.4-5.8-11.7-12.4-10.3-14.4 6.8-9.7 17.9-21 26.9-29.4l-14.5-12.9c-6.6 12.1-18.4 29.6-22 32.6-4.3 3.6-11.4 7.1-10.1 9.9 2.6 5.6 7.9 10.1 16.1 17z"/><path class="st77" d="M126.3 399.1c2.6 5.6 7.9 10.1 16.1 17 8.2 6.9 16.3 7.3 19.7 6.2 3.4-1.1.6-3.2-5.8-9-.8-.7-1.5-1.4-2.3-2.1-.6 1.2-1.3 2.4-2.3 3.4-1.5 1.5-12.6-7.3-16.7-14.1-1.7-2.9-3.2-5.3-4.4-7-2.8 2-5.1 4-4.3 5.6z"/><path class="st64" d="M72.5 413.1h72.9v3.4H72.5z"/><path class="st64" d="M130.5 321.1l19 122.2c.1.5.5.8 1 .8h.1c.5-.1.9-.5.9-1.1l-12.7-121.9h-8.3zM88.5 321.1l-19 122.2c-.1.5-.5.8-1 .8h-.1c-.5-.1-.9-.5-.9-1.1l12.8-121.9h8.2zM111.7 321.1l-6.8 122.1c0 .5-.4.9-1 .9-.5 0-1-.4-1-1l.6-122h8.2z"/><path d="M149.9 308.7v7.7c0 3.3-2.7 6-6 6H76.3c-3.3 0-6-2.7-6-6v-7.7c0-3.3 2.7-6 6-6h67.5c3.4 0 6.1 2.7 6.1 6z"/><defs><path id="SVGID_109_" d="M149.9 308.7v7.7c0 3.3-2.7 6-6 6H76.3c-3.3 0-6-2.7-6-6v-7.7c0-3.3 2.7-6 6-6h67.5c3.4 0 6.1 2.7 6.1 6z"/></defs><clipPath id="SVGID_1_"><use xlink:href="#SVGID_109_" overflow="visible"/></clipPath><g clip-path="url(#SVGID_1_)"><path class="st62" d="M70.2 308.7v7.7c0 3.3 2.7 6.1 6.1 6.1h66.9l3.5-.8c.7-.4 1.3-.9 1.7-1.5-12-.2-44.6-.6-54.3-.6-12 0-10.9-4.6-10.9-8.1s60.9-4.6 60.9-4.6l-2-4.1h-66c-3.1-.1-5.8 2.6-5.9 5.9z"/></g><path class="st57" d="M149.9 308.7v7.7c0 3.3-2.7 6-6 6H76.3c-3.3 0-6-2.7-6-6v-7.7c0-3.3 2.7-6 6-6h67.5c3.4 0 6.1 2.7 6.1 6z"/><path class="st78" d="M192.1 325.2c-17.8-1.3-46.3-19.3-46.3-19.3-6.6.7-13.1 1.1-19.7 1.1-13.3.2-31.7-.7-40.1-3.2-8.4-2.6-9.4-7.9-10.3-18.4-.8-10.5-.6-16.1 1.5-16.7 2.1-.6 13.3 7.3 31.3 7.9s27.2-9 27.2-9l3.2 3.6s34.2 8.4 50 19.3c29.8 20.6 23.6 30.4 22.1 35.4"/><path class="st64" d="M120 242.2c1.2 2 4.8 2 7.8 2.6 3 .6 43.1 6.1 44.5 6.9s5.2 1.7 8.2 3.8c2.8 1.9 6.4.7 7.4-.5.7-1.1-4.1-1.8-2.6-2.4 1-.2 14.2.3 14.2.3 1.4-.3 2.3-1.7 2-3.1-.3-1.5-13.8-6.2-13.8-6.2s-7.3-2.2-13.7-1.4c-6.4.8-46.6-12.1-46.6-12.1s-8.6 10.2-7.4 12.1z"/><path class="st80" d="M91.8 181.9c-5.8 18.6-4.7 39.4-4.7 46 0 6.7-12.2 38.6-12.2 44.6s15 12.2 32.4 11.6 28.9-9.4 29.8-17c.9-7.5-2.1-35.8-2.1-35.8 5.7-1.9 10.1-6.2 12.2-11.8 3.9-9.6 1.3-18.7-4.7-27.2-6-8.6-10.7-21.4-10.7-21.4-13.9-13.8-34.3-7.6-40 11z"/><defs><path id="SVGID_111_" d="M91.8 181.9c-5.8 18.6-4.7 39.4-4.7 46 0 6.7-12.2 38.6-12.2 44.6s15 12.2 32.4 11.6 28.9-9.4 29.8-17c.9-7.5-2.1-35.8-2.1-35.8 5.7-1.9 10.1-6.2 12.2-11.8 3.9-9.6 1.3-18.7-4.7-27.2-6-8.6-10.7-21.4-10.7-21.4-13.9-13.8-34.3-7.6-40 11z"/></defs><clipPath id="SVGID_2_"><use xlink:href="#SVGID_111_" overflow="visible"/></clipPath><g clip-path="url(#SVGID_2_)"><path class="st62" d="M87.1 227.9c0 6.7-12.2 38.6-12.2 44.6s15 12.2 32.4 11.6c5.6-.2 11.2-1.3 16.4-3.5-6.7-1.1-18.3-.8-23.7-2.2-9.4-2.5 19.9-19.9 26.3-30.8 6.5-10.9-11.9 7.5-15.4 7.5s7.4-12.9 11.4-20.9-11.4 8.4-18.4 10.4c-7 2 16.9-20.9 21.4-25.8 4.5-5-10.4 3-13.9 2-2.4-.7 21.7-6.8 37.6-10.5 0-6.2-2.5-12.1-6.5-17.9-6-8.6-10.7-21.4-10.7-21.4-1.1-1.1-2.3-2.1-3.6-3-2.7-.6-13.6-3.2-17.6-4.1-8.3 1.6-15.6 8-18.7 18-5.9 18.5-4.8 39.3-4.8 46z"/></g><path class="st57" d="M91.8 181.9c-5.8 18.6-4.7 39.4-4.7 46 0 6.7-12.2 38.6-12.2 44.6s15 12.2 32.4 11.6 28.9-9.4 29.8-17c.9-7.5-2.1-35.8-2.1-35.8 5.7-1.9 10.1-6.2 12.2-11.8 3.9-9.6 1.3-18.7-4.7-27.2-6-8.6-10.7-21.4-10.7-21.4-13.9-13.8-34.3-7.6-40 11zM90.2 255.6c23-7.3 38.8-32.7 38.8-32.7M109 256.8c15.7-9.7 21.8-29.7 21.8-29.7M107.5 200.9c5.8 4 20.1 10.2 20.1 10.2M115.2 212.6c13.1 1.1 18.2 0 18.2 0"/><path class="st80" d="M114 188.7c-1.1 3 1.1 10.1 4.5 13.9 3.4 3.9 40.7 35.8 42.9 35.4 2.1-.4 9.2-15.2 9.2-15.2s-23.8-36-28.7-41.2c-2.7-2.9-5.7-5.4-9-7.5"/><defs><path id="SVGID_113_" d="M114 188.7c-1.1 3 1.1 10.1 4.5 13.9 3.4 3.9 40.7 35.8 42.9 35.4 2.1-.4 9.2-15.2 9.2-15.2s-23.8-36-28.7-41.2c-2.7-2.9-5.7-5.4-9-7.5"/></defs><clipPath id="SVGID_3_"><use xlink:href="#SVGID_113_" overflow="visible"/></clipPath><g opacity=".2" clip-path="url(#SVGID_3_)"><path d="M161.4 237.9c.5-.2.8-.5 1.1-.9.3-2 .4-3.9.4-5.9 0-4-4-4.5-9.9-5.5s-1-3-2.5-10.4-5.6-7.5-15.4-13.4-9.9-16.9-9.9-16.9l-2.7-2.8-8.5 6.5c-1.1 3 1.1 10.1 4.5 13.9 3.5 3.9 40.8 35.9 42.9 35.4z" opacity=".48"/></g><path class="st57" d="M114 188.7c-1.1 3 1.1 10.1 4.5 13.9 3.4 3.9 40.7 35.8 42.9 35.4 2.1-.4 9.2-15.2 9.2-15.2s-23.8-36-28.7-41.2c-2.7-2.9-5.7-5.4-9-7.5"/><path class="st52" d="M166.1 123.6c-2.6-2.5-14.4-2.7-22.3 6.1s-13.9 21.9-10.3 26.2c3.6 4.3 10.1 9.9 13.1 10.7s3.9 1.9 5.8-.9 8.4-10.7 8.4-10.7 3.4-.3 4.1-2.1c.6-1.9-1.5-5.4-1.5-7.9 0-2.6 3-4.5 4.1-6.4 1.1-1.9.6-8.1.6-8.1s.6-4.3-2-6.9z"/><g><defs><path id="SVGID_115_" d="M166.1 123.6c-2.6-2.5-14.4-2.7-22.3 6.1s-13.9 21.9-10.3 26.2c3.6 4.3 10.1 9.9 13.1 10.7s3.9 1.9 5.8-.9 8.4-10.7 8.4-10.7 3.4-.3 4.1-2.1c.6-1.9-1.5-5.4-1.5-7.9 0-2.6 3-4.5 4.1-6.4 1.1-1.9.6-8.1.6-8.1s.6-4.3-2-6.9z"/></defs><clipPath id="SVGID_4_"><use xlink:href="#SVGID_115_" overflow="visible"/></clipPath><g clip-path="url(#SVGID_4_)"><path d="M143.8 129.7c-7.9 8.8-13.9 21.9-10.3 26.2 3.4 4 9.2 9.1 12.4 10.5-.4-1-.9-2.1-1.4-3.3-2.5-7 1-11.4 5.5-19.9 3-5.6 2-14 1-18.8-2.7 1.2-5.1 3-7.2 5.3z"/><path d="M143.8 129.7c-7.9 8.8-13.9 21.9-10.3 26.2 3.4 4 9.2 9.1 12.4 10.5-.4-1-.9-2.1-1.4-3.3-2.5-7 1-11.4 5.5-19.9 3-5.6 2-14 1-18.8-2.7 1.2-5.1 3-7.2 5.3z" opacity=".5" fill="#fff"/><path class="st57" d="M159.5 138.5c3.9-2.1 3.9 1.1 3.9 1.1M156 143.2c1.7 3.1 4.1 2.3 4.1 2.3l.5-3"/></g></g><path class="st57" d="M166.1 123.6c-2.6-2.5-14.4-2.7-22.3 6.1s-13.9 21.9-10.3 26.2c3.6 4.3 10.1 9.9 13.1 10.7s3.9 1.9 5.8-.9 8.4-10.7 8.4-10.7 3.4-.3 4.1-2.1c.6-1.9-1.5-5.4-1.5-7.9 0-2.6 3-4.5 4.1-6.4 1.1-1.9.6-8.1.6-8.1s.6-4.3-2-6.9z"/><path d="M158.9 95.3c-11.4-4.9-24.7-4.6-33.9 1.9-9.3 6.5-12 18.1-13.3 26.6-1.3 8.6-9.2 7.7-19.3 18.4-10.1 10.7-12 19.1-7.7 32.1 4.3 13.1 11.2 3.9 15.7 2.4s6.3 6.2 17.2 12.2 25.3-3.4 25.9-12.8-4.7-10.7-5.1-17c-.4-6.2 6.7-21.4 12.2-23.6 3.3-1.3 6.9-1.8 10.5-1.5v-4.9l2.6 4.5 11.6-1.5-.4-10.5v-.9c-.2-5.4-4.6-20.4-16-25.4z" fill="#263238"/><g><defs><path id="SVGID_117_" d="M158.9 95.3c-11.4-4.9-24.7-4.6-33.9 1.9-9.3 6.5-12 18.1-13.3 26.6-1.3 8.6-9.2 7.7-19.3 18.4-10.1 10.7-12 19.1-7.7 32.1 4.3 13.1 11.2 3.9 15.7 2.4s6.3 6.2 17.2 12.2 25.3-3.4 25.9-12.8-4.7-10.7-5.1-17c-.4-6.2 6.7-21.4 12.2-23.6 3.3-1.3 6.9-1.8 10.5-1.5v-4.9l2.6 4.5 11.6-1.5-.4-10.5v-.9c-.2-5.4-4.6-20.4-16-25.4z"/></defs><clipPath id="SVGID_5_"><use xlink:href="#SVGID_117_" overflow="visible"/></clipPath><g clip-path="url(#SVGID_5_)"><path d="M165.7 123c-1.4-2.8-2.2-3-2.4-3-.7 0-1.3 1.7-1.6 2.6-.2.4-.3.8-.6 1.2-.2.3-.5.5-.9.6-1.1.1-2.4-1.2-4.4-3.2l-.9-.9c-.5-.5-.7-.5-.7-.5-.2.2-.4.5-.5.8-.4.9-1 1.6-1.7 2.2-.5.4-1.1.6-1.7.5-1.5-.4-2.5-2.6-4-6-.3-.6-.6-1.3-.9-2-.2-.4-.4-.7-.6-1.1-.6 1.1-1.1 2.4-1.4 3.6-.5 2.3-1.4 4.5-2.6 6.4-.4.8-1.3 1.2-2.1 1.1-1.7-.3-2.7-3-3.6-5.4-.3-.8-.6-1.5-.9-2.3-.5.7-.9 1.4-1.2 2.1-.8 1.6-1.7 3.3-2.8 3.8-.4.2-.8.2-1.2 0-1-.5-1.4-2-1.8-3.8-.3-1.3-.7-2.5-1.3-3.6-.2-.3-.5-.5-.8-.6-1.1-.2-2.7 1.1-3.6 1.8-.3.2-.6.4-.8.6-.2.2-.6.2-.8 0-.5-.3-.4-1.1 0-4 .3-1.7.5-3.5.4-5.2-.1.1-.2.1-.3.2-1.1 1-2.1 2.1-3.1 3.2-3.6 4-6.2 6.8-8.2 6.3-.8-.2-1.3-.9-1.6-2.1l1.2-.2c.1.5.3 1 .7 1.1 1.4.4 4.7-3.4 6.9-5.9 1-1.1 2-2.2 3.1-3.3.6-.6 1.2-.7 1.7-.4 1 .6.8 2.5.2 6.5-.1.7-.2 1.6-.3 2.2 1.2-.9 2.9-2.3 4.5-2 .7.1 1.3.5 1.6 1.1.7 1.3 1.2 2.6 1.5 4 .3 1.2.7 2.8 1.2 3.1 0 0 .1.1.2 0 .7-.3 1.6-2 2.2-3.2.8-1.6 1.5-2.9 2.3-2.9.4 0 .8.3 1 .7.4.8.8 1.6 1 2.4.6 1.7 1.7 4.5 2.6 4.6.4 0 .7-.4 1-.7 1.1-1.9 1.9-3.9 2.4-6.1.8-2.7 1.3-4.4 2.4-4.5.9-.1 1.5 1.1 1.8 1.8.3.7.6 1.4.9 2 1.2 2.7 2.3 5.1 3.1 5.3.1 0 .3.1.7-.2.6-.5 1-1.1 1.4-1.9.4-.7.7-1.3 1.4-1.4.7 0 1.3.3 1.7.9l.9.9c1 1 2.9 3 3.4 2.8.2-.3.3-.7.4-1 .5-1.4 1.3-3.4 2.7-3.4 1.1 0 2.3 1.1 3.5 3.6.3.8.8 1.5 1.4 2.1.4-.7.6-4.3.6-6.4 0-1.4.1-2.8.1-3.9 0-.4.1-1.5 1-1.6.5-.1 1.9-.3 6.3 12l-1.1.4c-1.6-4.5-3.8-9.7-4.8-10.9v.3c-.1 1.1-.1 2.5-.1 3.9-.1 5.2-.3 7.4-1.5 7.6h-.2c-.6.1-1.3-.7-2.4-2.7z" fill="#575757"/><path d="M87 143.4c3.8 0 .8 3.8 1.4 5.5.5 1.6 1.1-1.1 5.5-2.2s-.5 2.5-.5 5.5 2-2.5 6.1-4.1.3 5.2 1.1 11.5 1.6 3.5 2.7.8 3.5-.8 3.8 1.6c.3 2.5 3.3-.8 6.8-5.2s4.4 4.1 4.9 10.4c.5 6.3 7.9 2.2 10.9-1.9s2.7.3 3 3.3c.3 3 2.4 1.9 5.5-1.6s6.1 7.6 6.1 7.6" fill="none" stroke="#575757" stroke-miterlimit="10"/></g></g><path class="st57" d="M158.9 95.3c-11.4-4.9-24.7-4.6-33.9 1.9-9.3 6.5-12 18.1-13.3 26.6-1.3 8.6-9.2 7.7-19.3 18.4-10.1 10.7-12 19.1-7.7 32.1 4.3 13.1 11.2 3.9 15.7 2.4s6.3 6.2 17.2 12.2 25.3-3.4 25.9-12.8-4.7-10.7-5.1-17c-.4-6.2 6.7-21.4 12.2-23.6 3.3-1.3 6.9-1.8 10.5-1.5v-4.9l2.6 4.5 11.6-1.5-.4-10.5v-.9c-.2-5.4-4.6-20.4-16-25.4z"/><path d="M259 260.5h-20.7c-.3-1.4-.6-2.2-.6-4.9v-1.4c0-2.7 2.2-4.9 4.9-4.9h15c2.7 0 4.9 2.2 4.9 4.9v1.4c-.1 2.6-2.3 3.6-3.5 4.9z" fill="#425860"/><g><path class="st64" d="M166 239c1.5 2.6 6.2 2.6 10.1 3.4 3.9.8 53.5 8.7 55.2 9.8 1.7 1.1 14.9 2.1 16.9 1.3 1.3-.2 12.7.3 12.7.3 1.9-.4 3.1-2.2 2.7-4-.4-1.9-12.3-6.5-12.3-6.5s-9.8-1-18.1 0c-8.4 1-57.5-19.9-57.5-19.9s-11.2 13.1-9.7 15.6z"/></g><path class="st64" d="M173.5 219.8c-4.6-1.5-5-3.4-6.1-2.6-1 .8-10.9 18.2-10.9 18.2s-.4 3.8 2.1 5.8c2.6 1.9 10.5 3 12 1.3s8.1-17.6 8.1-17.6c1-3-.7-3.6-5.2-5.1z"/></g><g id="Program_Window_4_"><g id="Window_7_"><path d="M342.7 107.4l-11.4 67.1c-.2 1.1-1.2 1.9-2.2 1.9l-100.4-.3c-.2 0-.3 0-.5-.1-.3-.2-.5-.5-.6-.8-.1-.4-.2-.8-.1-1.2l11.3-66.7c.2-1.1 1.2-2 2.2-1.9l100.4.4c.3 0 .5.1.7.2.5.2.7.7.6 1.4z" fill="#37474f" id="Window_8_"/><g id="Up_Bar_4_"><path class="st80" d="M342.7 107.4l-1.1 6.2-103.7-.4 1-5.8c.2-1.1 1.2-2 2.2-1.9l100.4.4c.3 0 .5.1.7.2.4.1.6.6.5 1.3z"/><path class="st80" d="M342.7 107.4l-1.1 6.2-103.7-.4 1-5.8c.2-1.1 1.2-2 2.2-1.9l100.4.4c.3 0 .5.1.7.2.4.1.6.6.5 1.3z"/><g id="XMLID_315_"><path id="XMLID_318_" class="st93" d="M329.8 108.1c-.7 0-1.4.8-1.6 1.8-.2 1 .3 1.8 1 1.8s1.4-.8 1.6-1.8c.1-1-.3-1.8-1-1.8z"/><path id="XMLID_317_" class="st93" d="M334.4 108.1c-.7 0-1.4.8-1.6 1.8-.2 1 .3 1.8 1 1.8s1.4-.8 1.6-1.8c.1-1-.3-1.8-1-1.8z"/><path id="XMLID_316_" class="st93" d="M338.9 108.1c-.7 0-1.4.8-1.6 1.8-.2 1 .3 1.8 1 1.8s1.4-.8 1.6-1.8c.2-1-.3-1.8-1-1.8z"/></g></g></g><g id="Program_4_"><path class="st80" d="M241 119.5c-.1.9.4 1.6 1.2 1.6.8 0 1.6-.7 1.7-1.5.1-.9-.4-1.6-1.2-1.6-.8 0-1.5.7-1.7 1.5z"/><path class="st94" d="M251.4 119.3h13.2c.4 0 .7.3.7.8-.1.4-.5.8-.9.8h-13.2c-.4 0-.7-.3-.7-.8 0-.4.4-.8.9-.8zM269 119.3h13.2c.4 0 .7.3.7.8-.1.4-.5.8-.9.8h-13.2c-.4 0-.7-.3-.7-.8s.4-.8.9-.8zM286.6 119.2h13.2c.4 0 .7.3.7.8-.1.4-.5.8-.9.8h-13.2c-.4 0-.7-.3-.7-.8.1-.4.5-.8.9-.8zM304.2 119.2h13.2c.4 0 .7.3.7.8-.1.4-.5.8-.9.8H304c-.4 0-.7-.3-.7-.8.1-.5.5-.8.9-.8zM321.9 119.1h13.2c.4 0 .7.3.7.8-.1.4-.5.8-.9.8h-13.2c-.4 0-.7-.3-.7-.8 0-.4.4-.8.9-.8z"/><path class="st80" d="M240.8 128.2l-.2 1.3c-.1.4.2.7.5.7h3.5c.3 0 .7-.3.7-.7l.2-1.3c.1-.4-.2-.7-.5-.7h-3.5c-.3.1-.6.4-.7.7z"/><path class="st94" d="M248.3 128.1l9.5.1c.4 0 .7.3.7.8-.1.4-.5.8-.9.8l-9.5-.1c-.4 0-.7-.3-.7-.8.1-.4.5-.8.9-.8z"/><path class="st95" d="M240 125.8l20.7.1-1.1 6.2-20.7-.1z"/><g><path class="st80" d="M239.3 137.5l-.2 1.3c-.1.4.2.7.5.7h3.5c.3 0 .7-.3.7-.7l.2-1.3c.1-.4-.2-.7-.5-.7H240c-.3.1-.7.4-.7.7z"/><path class="st94" d="M246.7 137.4l9.5.1c.4 0 .7.3.7.8-.1.4-.5.8-.9.8l-9.5-.1c-.4 0-.7-.3-.7-.8.1-.4.5-.8.9-.8z"/><path class="st95" d="M238.4 135.1l20.7.1-1 6.2-20.8-.1z"/></g><g><path class="st80" d="M237.7 146.8l-.2 1.3c-.1.4.2.7.5.7h3.5c.3 0 .7-.3.7-.7l.2-1.3c.1-.4-.2-.7-.5-.7h-3.5c-.3.1-.6.3-.7.7z"/><path class="st94" d="M245.2 146.7l9.5.1c.4 0 .7.3.7.8-.1.4-.5.8-.9.8l-9.5-.1c-.4 0-.7-.3-.7-.8 0-.4.4-.8.9-.8z"/><path class="st95" d="M236.8 144.4l20.7.1-1 6.1h-20.7z"/></g><g><path class="st80" d="M236.1 156.1l-.2 1.3c-.1.4.2.7.5.7h3.5c.3 0 .7-.3.7-.7l.2-1.3c.1-.4-.2-.7-.5-.7h-3.5c-.3 0-.6.3-.7.7z"/><path class="st94" d="M243.6 156l9.5.1c.4 0 .7.3.7.8-.1.4-.5.8-.9.8l-9.5-.1c-.4 0-.7-.3-.7-.8s.5-.8.9-.8z"/><path class="st95" d="M235.2 153.7H256l-1.1 6.2h-20.7z"/></g><g><path class="st80" d="M234.6 165.4l-.2 1.3c-.1.4.2.7.5.7h3.5c.3 0 .7-.3.7-.7l.2-1.3c.1-.4-.2-.7-.5-.7h-3.5c-.4 0-.7.3-.7.7z"/><path class="st94" d="M242 165.3l9.5.1c.4 0 .7.3.7.8-.1.4-.5.8-.9.8l-9.5-.1c-.4 0-.7-.3-.7-.8.1-.5.5-.8.9-.8z"/><path class="st95" d="M233.7 163h20.7l-1 6.2-20.8-.1z"/></g><g id="Gear_8_"><path d="M265 150.2l21.7.1c.8 0 1.6-.7 1.7-1.5l2.9-17c.1-.8-.4-1.5-1.2-1.5l-21.7-.1c-.8 0-1.6.7-1.7 1.5l-2.9 17c-.2.8.4 1.5 1.2 1.5z" fill="#fafafa" stroke="#e0e0e0" stroke-width=".917" stroke-miterlimit="10"/><path class="st80" d="M266 127.5c-.1 0-.1-.1-.2-.2 0-.1 0-.3.1-.3h.7c.1 0 .3.1.3.3 0 .1 0 .3-.1.3h-.7c0-.1 0-.1-.1-.1zM291.6 127.4c0-.1-.2-.3-.3-.3h-1.5c-.1 0-.2.1-.1.3 0 .1.1.2.2.2h1.6s.1-.1.1-.2zm-3.1 0c0-.1-.2-.3-.3-.3h-1.5c-.1 0-.2.1-.1.3 0 .1.1.2.2.2h1.6c.1 0 .1-.1.1-.2zm-3.1 0c-.1-.2-.2-.3-.3-.3h-1.5c-.1 0-.2.1-.1.3 0 .1.1.2.2.2h1.6c.1 0 .2-.1.1-.2zm-3-.1c0-.1-.2-.3-.3-.3h-1.6c-.1 0-.2.1-.1.3 0 .1.1.2.2.2h1.6c.1.1.2 0 .2-.2zm-3.1 0c0-.1-.2-.3-.3-.3h-1.5c-.1 0-.2.1-.1.3 0 .1.1.2.2.2H279.3v-.2zm-3.1 0c0-.1-.2-.3-.3-.3h-1.5c-.1 0-.2.1-.1.3 0 .1.1.2.2.2h1.6c.1.1.2 0 .1-.2zm-3 0c0-.1-.2-.3-.3-.3h-1.5c-.1 0-.2.1-.1.3 0 .1.1.2.2.2h1.6c0 .1.1 0 .1-.2zm-3.1 0c-.1-.2-.2-.3-.3-.3h-1.5c-.1 0-.2.1-.1.3 0 .1.1.2.2.2h1.6c.1.1.1-.1.1-.2zM292.8 127.6c-.1 0-.1-.1-.2-.2 0-.1 0-.3.1-.3h.7c.1 0 .3.1.3.3 0 .1 0 .3-.1.3h-.7c0-.1 0-.1-.1-.1zM260.7 152.1c-.1-.1-.2-.2-.2-.4l.1-.8c0-.1.1-.2.3-.1.1.1.2.2.2.4l-.1.8c0 .2-.1.2-.3.1zM264.4 130.4c-.1-.1-.2 0-.3.1l-.2 1.5c0 .1.1.3.2.4s.2 0 .3-.1l.2-1.5c0-.1-.1-.3-.2-.4zm-.5 3c-.1-.1-.2 0-.3.1l-.2 1.5c0 .1.1.3.2.4.1.1.2 0 .3-.1l.2-1.5c0-.2-.1-.4-.2-.4zm-.5 2.9c-.1-.1-.2 0-.3.1l-.2 1.5c0 .1.1.3.2.4.1.1.2 0 .3-.1l.2-1.5c0-.2-.1-.3-.2-.4zm-.5 2.9c-.1-.1-.2 0-.3.1l-.2 1.5c0 .1.1.3.2.4.1.1.2 0 .3-.1l.2-1.5c0-.2 0-.3-.2-.4zm-.5 2.9c-.1-.1-.2 0-.3.1l-.2 1.5c0 .1.1.3.2.4s.2 0 .3-.1l.2-1.5c0-.1 0-.3-.2-.4zm-.5 3c-.1-.1-.2 0-.3.1l-.2 1.5c0 .1.1.3.2.4.1.1.2 0 .3-.1l.2-1.5c.1-.2 0-.4-.2-.4zm-.5 2.9c-.1-.1-.2 0-.3.1l-.2 1.5c0 .1.1.3.2.4.1.1.2 0 .3-.1l.2-1.5c.1-.2 0-.3-.2-.4zM264.6 129.4c-.1-.1-.2-.2-.2-.4l.1-.8c0-.1.1-.2.3-.1.1.1.2.2.2.4l-.1.8c-.1.2-.2.2-.3.1zM288.5 153.4c-.1 0-.1-.1-.2-.2 0-.1 0-.3.1-.3h.7c.1 0 .3.1.3.3 0 .1 0 .3-.1.3h-.7c0-.1-.1-.1-.1-.1zM287.2 153.2c0-.1-.2-.3-.3-.3h-1.5c-.1 0-.2.1-.1.3 0 .1.1.2.2.2h1.6c.1 0 .2-.1.1-.2zm-3.1-.1c0-.1-.2-.3-.3-.3h-1.5c-.1 0-.2.1-.1.3 0 .1.1.2.2.2h1.6c.1.1.2 0 .1-.2zm-3 0c-.1-.2-.2-.3-.3-.3h-1.5c-.1 0-.2.1-.1.3 0 .1.1.2.2.2h1.6c.1.1.1 0 .1-.2zm-3.1 0c0-.1-.2-.3-.3-.3h-1.6c-.1 0-.2.1-.1.3 0 .1.1.2.2.2h1.6c.2.1.2 0 .2-.2zm-3.1 0c0-.1-.2-.3-.3-.3h-1.5c-.1 0-.2.1-.1.3 0 .1.1.2.2.2H274.9c0 .1.1 0 0-.2zm-3 0c0-.1-.2-.3-.3-.3h-1.5c-.1 0-.2.1-.1.3 0 .1.1.2.2.2h1.6c0 .1.1-.1.1-.2zm-3.1 0c-.1-.2-.2-.3-.3-.3H267c-.1 0-.2.1-.1.3 0 .1.1.2.2.2h1.6c.1.1.1-.1.1-.2zm-3.1 0c0-.1-.2-.3-.3-.3h-1.5c-.1 0-.2.1-.1.3 0 .1.1.2.2.2h1.6c.1.1.2-.1.1-.2zM261.7 153.3c-.1 0-.1-.1-.2-.2 0-.1 0-.3.1-.3h.7c.1 0 .3.1.3.3 0 .1 0 .3-.1.3h-.7l-.1-.1zM294.4 129.6c-.1-.1-.2-.2-.2-.4l.1-.8c0-.1.1-.2.3-.1.1.1.2.2.2.4l-.1.8c-.1.1-.2.1-.3.1zM294.2 130.6c-.1-.1-.2 0-.3.1l-.2 1.5c0 .1.1.3.2.4.1.1.2 0 .3-.1l.2-1.5c0-.2-.1-.4-.2-.4zm-.5 2.9c-.1-.1-.2 0-.3.1l-.2 1.5c0 .1.1.3.2.4.1.1.2 0 .3-.1l.2-1.5c0-.2-.1-.4-.2-.4zm-.5 2.9c-.1-.1-.2 0-.3.1l-.2 1.5c0 .1.1.3.2.4.1.1.2 0 .3-.1l.2-1.5c0-.2-.1-.3-.2-.4zm-.5 2.9c-.1-.1-.2 0-.3.1l-.2 1.5c0 .1.1.3.2.4.1.1.2 0 .3-.1l.2-1.5c0-.1-.1-.3-.2-.4zm-.5 2.9c-.1-.1-.2 0-.3.1l-.2 1.5c0 .1.1.3.2.4.1.1.2 0 .3-.1l.2-1.5c0-.1 0-.3-.2-.4zm-.5 3c-.1-.1-.2 0-.3.1l-.2 1.5c0 .1.1.3.2.4.1.1.2 0 .3-.1l.2-1.5c0-.2 0-.4-.2-.4zm-.5 2.9c-.1-.1-.2 0-.3.1l-.2 1.5c0 .1.1.3.2.4.1.1.2 0 .3-.1l.2-1.5c.1-.2 0-.3-.2-.4zM290.5 152.2c-.1-.1-.2-.2-.2-.4l.1-.8c0-.1.1-.2.3-.1.1.1.2.2.2.4l-.1.8c0 .2-.1.2-.3.1z"/><g><path class="st80" d="M296.2 126.1c-.1-.1-.2-.1-.2-.1h-2.2c-.1 0-.1 0-.2.1l-.4 2.3c0 .1 0 .2.1.3l.1.1h2.3c.1 0 .1-.1.1-.1l.4-2.3c.1-.1.1-.2 0-.3zm-.7 2.2h-1.8l.3-1.8h1.7l-.2 1.8z"/></g><g><path class="st80" d="M291.8 151.9c-.1-.1-.2-.1-.2-.1h-2.2c-.1 0-.1 0-.2.1l-.4 2.3c0 .1 0 .2.1.3l.1.1H291.3c.1 0 .1-.1.1-.1l.4-2.3c.1-.1.1-.2 0-.3zm-.7 2.2h-1.7l.3-1.8h1.8l-.4 1.8z"/></g><g><path class="st80" d="M266.4 126c-.1-.1-.2-.1-.2-.1H264c-.1 0-.1.1-.1.1l-.4 2.4c0 .1 0 .2.1.3l.1.1h2.3c.1 0 .1 0 .2-.1l.4-2.3c-.1-.2-.1-.3-.2-.4zm-.7 2.2h-1.8l.3-1.8h1.7l-.2 1.8z"/></g><g><path class="st80" d="M262.1 151.8c-.1-.1-.2-.1-.2-.1h-2.2c-.1 0-.1 0-.1.1l-.4 2.3c0 .1 0 .2.1.3l.1.1H261.7c.1 0 .1 0 .2-.1l.4-2.4c-.1 0-.2-.2-.2-.2zm-.8 2.2h-1.7l.3-1.8h1.8l-.4 1.8z"/></g><g><path class="st80" d="M293.4 141.7c-.1.8-.7 1.4-1.4 1.4-.6 0-1-.6-.9-1.4.1-.8.7-1.4 1.4-1.4.7.1 1.1.7.9 1.4z"/></g><g><path class="st80" d="M281 127.3c-.1.8-.7 1.4-1.4 1.4-.6 0-1-.6-.9-1.4.1-.8.7-1.4 1.4-1.4.6.1 1 .7.9 1.4z"/></g><g><path class="st80" d="M276.6 153.1c-.1.8-.7 1.4-1.4 1.4-.6 0-1-.6-.9-1.4.1-.8.7-1.4 1.4-1.4.6.1 1 .7.9 1.4z"/></g><g><path class="st80" d="M263.6 141.7c-.1.8-.7 1.4-1.4 1.4s-1-.6-.9-1.4c.1-.8.7-1.4 1.4-1.4s1.1.6.9 1.4z"/></g><path id="XMLID_314_" class="st80" d="M283.4 139.3l-1.3-.2c-.1 0-.2-.1-.2-.2 0-.3-.1-.5-.2-.8v-.3l1.1-1.1c.1-.1 0-.2 0-.3l-.8-1c-.1-.1-.2-.1-.2-.1l-1.3.9h-.3c-.2-.1-.4-.2-.7-.3-.1 0-.2-.1-.2-.2l.1-1.4c0-.1-.1-.2-.2-.2h-1.5c-.1 0-.2.1-.2.2l-.4 1.4c0 .1-.1.2-.2.2-.3.1-.6.2-.9.4-.1 0-.2 0-.3-.1l-.8-.8c-.1-.1-.2-.1-.3-.1l-1.3 1.1c-.1 0-.1.2 0 .3l.6 1c.1.1.1.2 0 .3-.2.3-.4.6-.5.9 0 .1-.1.2-.2.2l-1.4.1c-.1 0-.2.1-.2.2l-.3 1.6c0 .1 0 .2.1.2l1.3.2c.1 0 .2.1.2.2 0 .3.1.5.2.8v.3l-1.1 1.2c-.1.1 0 .2 0 .3l.8 1c.1.1.2.1.2.1l1.3-.9h.3c.2.1.4.2.7.3.1 0 .2.1.2.2l-.1 1.4c0 .1.1.2.2.2h1.5c.1 0 .2-.1.2-.2l.4-1.4c0-.1.1-.2.2-.2.3-.1.6-.2.9-.4.1 0 .2 0 .3.1l.8.8c.1.1.2.1.3.1l1.3-1.1c.1-.1.1-.2 0-.3l-.6-1c-.1-.1-.1-.2 0-.3.2-.3.4-.6.5-.9 0-.1.1-.2.2-.2l1.4-.1c.1 0 .2-.1.2-.2l.3-1.6c0-.2-.1-.3-.1-.3zm-6.3 3.6c-1.4 0-2.3-1.2-2.1-2.7.2-1.5 1.6-2.6 3-2.6s2.3 1.2 2.1 2.7c-.3 1.4-1.6 2.6-3 2.6z"/></g><g id="Gear_7_"><path d="M303.3 150.4l21.7.1c.8 0 1.6-.7 1.7-1.5l2.9-17c.1-.8-.4-1.5-1.2-1.5l-21.7-.1c-.8 0-1.6.7-1.7 1.5l-2.9 17c-.1.8.4 1.5 1.2 1.5z" fill="#545454" stroke="#e0e0e0" stroke-width=".917" stroke-miterlimit="10"/><path class="st80" d="M304.4 127.7c-.1 0-.1-.1-.2-.2 0-.1 0-.3.1-.3h.7c.1 0 .3.1.3.3 0 .1 0 .3-.1.3h-.7c0-.1-.1-.1-.1-.1zM329.9 127.6c0-.1-.2-.3-.3-.3h-1.5c-.1 0-.2.1-.1.3 0 .1.1.2.2.2h1.6c.1 0 .2-.1.1-.2zm-3.1 0c-.1-.2-.2-.3-.3-.3H325c-.1 0-.2.1-.1.3 0 .1.1.2.2.2h1.6c.1 0 .2-.1.1-.2zm-3 0c0-.1-.2-.3-.3-.3H322c-.1 0-.2.1-.1.3 0 .1.1.2.2.2h1.6c.1 0 .1-.1.1-.2zm-3.1-.1c0-.1-.2-.3-.3-.3h-1.6c-.1 0-.2.1-.1.3 0 .1.1.2.2.2h1.6c.2.1.3 0 .2-.2zm-3.1 0c0-.1-.2-.3-.3-.3h-1.5c-.1 0-.2.1-.1.3 0 .1.1.2.2.2H317.6c0 .1.1 0 0-.2zm-3 0c0-.1-.2-.3-.3-.3h-1.5c-.1 0-.2.1-.1.3 0 .1.1.2.2.2h1.6c.1.1.1 0 .1-.2zm-3.1 0c-.1-.2-.2-.3-.3-.3h-1.5c-.1 0-.2.1-.1.3 0 .1.1.2.2.2h1.6c.1.1.2 0 .1-.2zm-3.1 0c0-.1-.2-.3-.3-.3h-1.5c-.1 0-.2.1-.1.3 0 .1.1.2.2.2h1.6c.1.1.2-.1.1-.2zM331.2 127.8c-.1 0-.1-.1-.2-.2 0-.1 0-.3.1-.3h.7c.1 0 .3.1.3.3 0 .1 0 .3-.1.3h-.7c0-.1-.1-.1-.1-.1zM299.1 152.3c-.1-.1-.2-.2-.2-.4l.1-.8c0-.1.1-.2.3-.1.1.1.2.2.2.4l-.1.8c-.1.1-.2.2-.3.1zM302.8 130.6c-.1-.1-.2 0-.3.1l-.2 1.5c0 .1.1.3.2.4.1.1.2 0 .3-.1l.2-1.5c0-.1-.1-.3-.2-.4zm-.5 3c-.1-.1-.2 0-.3.1l-.2 1.5c0 .1.1.3.2.4.1.1.2 0 .3-.1l.2-1.5c0-.2-.1-.4-.2-.4zm-.5 2.9c-.1-.1-.2 0-.3.1l-.2 1.5c0 .1.1.3.2.4.1.1.2 0 .3-.1l.2-1.5c0-.2-.1-.3-.2-.4zm-.5 2.9c-.1-.1-.2 0-.3.1l-.2 1-.1.5c0 .1.1.3.2.4.1.1.2 0 .3-.1l.2-1.5c.1-.2 0-.3-.1-.4zm-.5 2.9c-.1-.1-.2 0-.3.1l-.2 1.5c0 .1.1.3.2.4.1.1.2 0 .3-.1l.2-1.5c0-.1-.1-.3-.2-.4zm-.5 3c-.1-.1-.2 0-.3.1l-.2 1.5c0 .1.1.3.2.4.1.1.2 0 .3-.1l.2-1.5c0-.2-.1-.4-.2-.4zm-.5 2.9c-.1-.1-.2 0-.3.1l-.2 1.5c0 .1.1.3.2.4.1.1.2 0 .3-.1l.2-1.5c0-.2-.1-.3-.2-.4zM302.9 129.6c-.1-.1-.2-.2-.2-.4l.1-.8c0-.1.1-.2.3-.1.1.1.2.2.2.4l-.1.8c0 .2-.1.2-.3.1zM326.8 153.6c-.1 0-.1-.1-.2-.2 0-.1 0-.3.1-.3h.7c.1 0 .3.1.3.3 0 .1 0 .3-.1.3h-.7c0-.1 0-.1-.1-.1zM325.6 153.4c0-.1-.2-.3-.3-.3h-1.5c-.1 0-.2.1-.1.3 0 .1.1.2.2.2h1.6s.1-.1.1-.2zm-3.1 0c0-.1-.2-.3-.3-.3h-1.5c-.1 0-.2.1-.1.3 0 .1.1.2.2.2h1.6c.1 0 .1-.1.1-.2zm-3.1-.1c0-.1-.2-.3-.3-.3h-1.5c-.1 0-.2.1-.1.3 0 .1.1.2.2.2h1.6c.1.1.2 0 .1-.2zm-3 0c-.1-.1-.2-.3-.3-.3h-1.6c-.1 0-.2.1-.1.3 0 .1.1.2.2.2h1.6c.1.1.2 0 .2-.2zm-3.1 0c0-.1-.2-.3-.3-.3h-1.5c-.1 0-.2.1-.1.3 0 .1.1.2.2.2H313.3v-.2zm-3.1 0c0-.1-.2-.3-.3-.3h-1.5c-.1 0-.2.1-.1.3 0 .1.1.2.2.2h1.6c.1.1.2 0 .1-.2zm-3.1 0c0-.1-.2-.3-.3-.3h-1.5c-.1 0-.2.1-.1.3 0 .1.1.2.2.2h1.6c.1.1.2-.1.1-.2zm-3 0c0-.1-.2-.3-.3-.3h-1.5c-.1 0-.2.1-.1.3 0 .1.1.2.2.2h1.6c.1 0 .1-.1.1-.2zM300 153.5c-.1 0-.1-.1-.2-.2 0-.1 0-.3.1-.3h.7c.1 0 .3.1.3.3 0 .1 0 .3-.1.3h-.7c0-.1 0-.1-.1-.1zM332.7 129.8c-.1-.1-.2-.2-.2-.4l.1-.8c0-.1.1-.2.3-.1.1.1.2.2.2.4l-.1.8c0 .1-.1.1-.3.1zM332.6 130.8c-.1-.1-.2 0-.3.1l-.2 1.5c0 .1.1.3.2.4s.2 0 .3-.1l.2-1.5c0-.2-.1-.4-.2-.4zm-.5 2.9c-.1-.1-.2 0-.3.1l-.2 1.5c0 .1.1.3.2.4.1.1.2 0 .3-.1l.2-1.5c0-.2-.1-.3-.2-.4zm-.5 2.9c-.1-.1-.2 0-.3.1l-.2 1.5c0 .1.1.3.2.4.1.1.2 0 .3-.1l.2-1.5c0-.2-.1-.3-.2-.4zm-.5 2.9c-.1-.1-.2 0-.3.1l-.2 1.5c0 .1.1.3.2.4.1.1.2 0 .3-.1l.2-1.5c0-.1-.1-.3-.2-.4zm-.5 2.9c-.1-.1-.2 0-.3.1l-.2 1.5c0 .1.1.3.2.4s.2 0 .3-.1l.2-1.5c0-.1-.1-.3-.2-.4zm-.5 3c-.1-.1-.2 0-.3.1l-.2 1.5c0 .1.1.3.2.4.1.1.2 0 .3-.1l.2-1.5c0-.2-.1-.4-.2-.4zm-.5 2.9c-.1-.1-.2 0-.3.1l-.2 1.5c0 .1.1.3.2.4.1.1.2 0 .3-.1l.2-1.5c0-.2-.1-.3-.2-.4zM328.9 152.4c-.1-.1-.2-.2-.2-.4l.1-.8c0-.1.1-.2.3-.1.1.1.2.2.2.4l-.1.8c-.1.2-.2.2-.3.1z"/><g><path class="st80" d="M334.6 126.3c-.1-.1-.1-.1-.2-.1h-2.2c-.1 0-.1 0-.2.1l-.4 2.3c0 .1 0 .2.1.3l.1.1h2.3c.1 0 .1 0 .2-.1l.4-2.3c0-.1-.1-.2-.1-.3zm-.8 2.2H332l.3-1.8h1.7l-.2 1.8z"/></g><g><path class="st80" d="M330.2 152.1c-.1-.1-.1-.1-.2-.1h-2.2c-.1 0-.1 0-.2.1l-.4 2.3c0 .1 0 .2.1.3l.1.1H329.7c.1 0 .1 0 .2-.1l.4-2.3c0-.1 0-.2-.1-.3zm-.8 2.2h-1.7l.3-1.8h1.8l-.4 1.8z"/></g><g><path class="st80" d="M304.8 126.2c-.1-.1-.2-.1-.2-.1h-2.2c-.1 0-.1 0-.1.1l-.4 2.3c0 .1 0 .2.1.3l.1.1h2.3c.1 0 .1-.1.1-.1l.4-2.4s-.1-.1-.1-.2zm-.8 2.2h-1.8l.3-1.8h1.7l-.2 1.8z"/></g><g><path class="st80" d="M300.4 152c-.1-.1-.2-.1-.2-.1H298c-.1 0-.1.1-.1.1l-.4 2.3c0 .1 0 .2.1.3l.1.1H300c.1 0 .1-.1.1-.1l.4-2.3c0-.2 0-.3-.1-.3zm-.7 2.2H298l.3-1.8h1.8l-.4 1.8z"/></g><g><path class="st80" d="M331.8 141.9c-.1.8-.7 1.4-1.4 1.4-.6 0-1-.6-.9-1.4.1-.8.7-1.4 1.4-1.4.6.1 1 .7.9 1.4z"/></g><g><path class="st80" d="M319.3 127.5c-.1.8-.7 1.4-1.4 1.4-.6 0-1-.6-.9-1.4.1-.8.7-1.4 1.4-1.4.6.1 1 .7.9 1.4z"/></g><g><path class="st80" d="M315 153.3c-.1.8-.7 1.4-1.4 1.4-.6 0-1-.6-.9-1.4.1-.8.7-1.4 1.4-1.4.6.1 1 .7.9 1.4z"/></g><g><path class="st80" d="M302 141.9c-.1.8-.7 1.4-1.4 1.4-.6 0-1-.6-.9-1.4.1-.8.7-1.4 1.4-1.4.6 0 1 .6.9 1.4z"/></g><path id="XMLID_313_" class="st80" d="M321.7 139.5l-1.3-.2c-.1 0-.2-.1-.2-.2 0-.3-.1-.5-.2-.8v-.3l1.1-1.2c.1-.1 0-.2 0-.3l-.8-1c-.1-.1-.2-.1-.3-.1l-1.3.9c-.1.1-.2 0-.3 0-.2-.1-.4-.2-.7-.3-.1 0-.2-.1-.2-.2l.1-1.4c0-.1-.1-.2-.1-.2H316c-.1 0-.2.1-.2.2l-.4 1.4c0 .1-.1.2-.2.2-.3.1-.6.2-.9.4-.1 0-.2 0-.3-.1l-.8-.8c-.1-.1-.2-.1-.3 0l-1.3 1.1c-.1.1-.1.2 0 .3l.6 1c.1.1.1.2 0 .3-.2.3-.3.6-.5.9 0 .1-.1.2-.2.2l-1.4.2c-.1 0-.2.1-.2.2l-.3 1.6c0 .1 0 .2.1.2l1.3.2c.1 0 .2.1.2.2 0 .3.1.5.2.8v.3l-1.1 1.2c-.1.1 0 .2 0 .3l.8 1c.1.1.2.1.3.1l1.3-.9h.3c.2.1.4.2.7.3.1 0 .2.1.2.2l-.1 1.4c0 .1.1.2.1.2h1.5c.1 0 .2-.1.2-.2l.4-1.4c0-.1.1-.2.2-.2.3-.1.6-.2.9-.4.1 0 .2 0 .3.1l.8.8c.1.1.2.1.3.1l1.3-1.1c.1-.1.1-.2 0-.3l-.6-1c-.1-.1-.1-.2 0-.3.2-.3.4-.6.5-.9 0-.1.1-.2.2-.2l1.4-.1c.1 0 .2-.1.2-.2l.3-1.6c.1-.3 0-.4-.1-.4zm-6.3 3.6c-1.4 0-2.3-1.2-2.1-2.6.2-1.5 1.6-2.6 3-2.6s2.3 1.2 2.1 2.6c-.3 1.4-1.6 2.6-3 2.6z"/></g><path class="st94" d="M256.6 167.6l1.3-7.5c.2-.9 1-1.6 1.9-1.6l67.9.3c.9 0 1.5.7 1.3 1.7l-1.3 7.5c-.2.9-1 1.6-1.9 1.6l-67.9-.3c-.9-.1-1.5-.8-1.3-1.7z"/></g></g><path d="M300.6 71.5v-.1-.1-.2-.1-.1c0-.1 0-.1-.1-.1l-.1-.1c-.2-.3-.5-.4-.9-.4l-98.6.4c-.8 0-1.6.7-1.8 1.6L187.5 139l-.1.3c-.1.4.1.8.3 1.1l.1.1s0 .1.1.1l.1.1c.1 0 .1.1.2.1.1.1.3.1.5.1h1.4l97.2-.4c.8 0 1.6-.7 1.8-1.6l11.6-67.2c-.1-.1-.1-.1-.1-.2z"/><g id="XMLID_311_"><path id="XMLID_312_" class="st80" d="M300.6 71.7c.1-.9-.4-1.6-1.2-1.6l-98.6.4c-.8 0-1.6.7-1.8 1.6l-.8 4.6 101.6-.4.8-4.6z"/></g><g id="XMLID_307_"><path id="XMLID_310_" class="st87" d="M291.5 72.1c-.5 0-.9.5-1.1 1.2s.2 1.2.6 1.2c.5 0 .9-.5 1.1-1.2.2-.7-.1-1.2-.6-1.2z"/><path id="XMLID_309_" class="st87" d="M294.6 72.1c-.5 0-.9.5-1.1 1.2-.1.7.2 1.2.6 1.2.5 0 .9-.5 1.1-1.2.1-.7-.2-1.2-.6-1.2z"/><path id="XMLID_308_" class="st87" d="M297.6 72c-.5 0-.9.5-1.1 1.2s.2 1.2.6 1.2c.5 0 .9-.5 1.1-1.2s-.1-1.2-.6-1.2z"/></g><g id="Code_4_"><g id="XMLID_294_"><path id="XMLID_305_" class="st80" d="M226.5 82.3c0-.1.1-.2.1-.2l1.3-1.5h.1s.1 0 .1.1v.1l-.1.7c0 .1 0 .2-.1.2l-.1.1-.7.8.4.8c0 .1 0 .1.1.1v.2l-.1.7s0 .1-.1.1l-.1.1-.8-1.5c0-.1-.1-.1 0-.2v-.6z"/><path id="XMLID_303_" class="st80" d="M230.9 79.2c0-.1.1-.1.1-.2 0 0 .1-.1.2-.1h.4s.1 0 .1.1v.2l-2.9 6.3c0 .1-.1.1-.1.2s-.1.1-.2.1h-.4s-.1 0-.1-.1v-.1-.1l2.9-6.3z"/><path id="XMLID_301_" class="st80" d="M233.2 82.8c0 .1-.1.2-.1.2l-1.3 1.5h-.1s-.1 0-.1-.1v-.1l.1-.7c0-.1 0-.2.1-.2l.1-.1.7-.8-.4-.8c0-.1 0-.1-.1-.1v-.2l.1-.7s0-.1.1-.1l.1-.1.8 1.5c0 .1.1.1 0 .2v.6z"/><path id="XMLID_299_" class="st80" d="M235.9 83.9c.1 0 .1 0 0 0 .1.1.1.2.1.2l-.1.8c0 .1 0 .1-.1.1l-.1.1h-.5s-.1 0-.1-.1v-.1l.1-.8c0-.1 0-.1.1-.1l.1-.1h.5z"/><path id="XMLID_297_" class="st80" d="M237.6 83.9c.1 0 .1 0 0 0 .1.1.1.2.1.2l-.1.8c0 .1 0 .1-.1.1l-.1.1h-.5s-.1 0-.1-.1v-.1l.1-.8c0-.1 0-.1.1-.1l.1-.1h.5z"/><path id="XMLID_295_" class="st80" d="M239.3 83.9c.1 0 .1 0 0 0 .1.1.1.2.1.2l-.1.8c0 .1 0 .1-.1.1l-.1.1h-.5s-.1 0-.1-.1v-.1l.1-.8c0-.1 0-.1.1-.1l.1-.1h.5z"/></g><path id="XMLID_293_" class="st80" d="M225.9 88.2l20.8-.1c.3 0 .5.2.4.5-.1.3-.3.5-.6.5l-20.8.1c-.3 0-.5-.2-.4-.5.1-.3.3-.5.6-.5z"/><path id="XMLID_292_" class="st88" d="M231.7 101l56.5-.3c.3 0 .5.2.4.5-.1.3-.3.5-.6.5l-56.5.3c-.3 0-.5-.2-.4-.5 0-.2.3-.5.6-.5z"/><path id="XMLID_291_" class="st88" d="M230.9 105.3h7.9c.3 0 .5.2.4.5-.1.3-.3.5-.6.5h-7.9c-.3 0-.5-.2-.4-.5 0-.2.3-.5.6-.5z"/><path id="XMLID_290_" class="st88" d="M230.2 109.6h7.9c.3 0 .5.2.4.5s-.3.5-.6.5H230c-.3 0-.5-.2-.4-.5 0-.2.3-.5.6-.5z"/><path id="XMLID_289_" class="st80" d="M248.8 88l45.6-.2c.3 0 .5.2.4.5-.1.3-.3.5-.6.5l-45.6.2c-.3 0-.5-.2-.4-.5 0-.2.3-.5.6-.5z"/><path id="XMLID_288_" class="st80" d="M225.9 135.4h12.7c.3 0 .5.2.4.5s-.3.5-.6.5h-12.7c-.3 0-.5-.2-.4-.5 0-.3.3-.5.6-.5z"/><path id="XMLID_287_" class="st80" d="M240.6 135.3l45.6-.2c.3 0 .5.2.4.5-.1.3-.3.5-.6.5l-45.6.2c-.3 0-.5-.2-.4-.5.1-.2.3-.5.6-.5z"/><path id="XMLID_286_" class="st80" d="M242.9 122.5l45.6-.2c.3 0 .5.2.4.5-.1.3-.3.5-.6.5l-45.6.2c-.3 0-.5-.2-.4-.5 0-.3.3-.5.6-.5z"/><path id="XMLID_285_" class="st80" d="M242.1 126.8l45.6-.2c.3 0 .5.2.4.5-.1.3-.3.5-.6.5l-45.6.2c-.3 0-.5-.2-.4-.5 0-.3.3-.5.6-.5z"/><path id="XMLID_284_" class="st52" d="M226.7 131.1h12.7c.3 0 .5.2.4.5s-.3.5-.6.5h-12.7c-.3 0-.5-.2-.4-.5 0-.3.3-.5.6-.5z"/><path id="XMLID_283_" class="st80" d="M238.4 122.5h1.6c.3 0 .5.2.4.5-.1.3-.3.5-.6.5h-1.6c-.3 0-.5-.2-.4-.5 0-.3.3-.5.6-.5z"/><g id="XMLID_280_"><path id="XMLID_282_" class="st80" d="M225.2 92.5l10.5-.1c.3 0 .5.2.4.5-.1.3-.3.5-.6.5l-10.5.1c-.3 0-.5-.2-.4-.5 0-.3.3-.5.6-.5z"/><path id="XMLID_281_" class="st89" d="M225.2 92.5l10.5-.1c.3 0 .5.2.4.5-.1.3-.3.5-.6.5l-10.5.1c-.3 0-.5-.2-.4-.5 0-.3.3-.5.6-.5z"/></g><g id="XMLID_277_"><path id="XMLID_279_" class="st80" d="M224.5 96.8h4.9c.3 0 .5.2.4.5-.1.3-.3.5-.6.5h-4.9c-.3 0-.5-.2-.4-.5 0-.3.3-.5.6-.5z"/><path id="XMLID_278_" class="st89" d="M224.5 96.8h4.9c.3 0 .5.2.4.5-.1.3-.3.5-.6.5h-4.9c-.3 0-.5-.2-.4-.5 0-.3.3-.5.6-.5z"/></g><g id="XMLID_274_"><path id="XMLID_276_" class="st80" d="M223.7 101.1h4.9c.3 0 .5.2.4.5-.1.3-.3.5-.6.5h-4.9c-.3 0-.5-.2-.4-.5 0-.3.3-.5.6-.5z"/><path id="XMLID_275_" class="st89" d="M223.7 101.1h4.9c.3 0 .5.2.4.5-.1.3-.3.5-.6.5h-4.9c-.3 0-.5-.2-.4-.5 0-.3.3-.5.6-.5z"/></g><g id="XMLID_271_"><path id="XMLID_273_" class="st80" d="M223 105.4h4.9c.3 0 .5.2.4.5-.1.3-.3.5-.6.5h-4.9c-.3 0-.5-.2-.4-.5 0-.3.3-.5.6-.5z"/><path id="XMLID_272_" class="st89" d="M223 105.4h4.9c.3 0 .5.2.4.5-.1.3-.3.5-.6.5h-4.9c-.3 0-.5-.2-.4-.5 0-.3.3-.5.6-.5z"/></g><g id="XMLID_268_"><path id="XMLID_270_" class="st80" d="M222.2 109.7h4.9c.3 0 .5.2.4.5s-.3.5-.6.5H222c-.3 0-.5-.2-.4-.5.1-.3.3-.5.6-.5z"/><path id="XMLID_269_" class="st89" d="M222.2 109.7h4.9c.3 0 .5.2.4.5s-.3.5-.6.5H222c-.3 0-.5-.2-.4-.5.1-.3.3-.5.6-.5z"/></g><g id="XMLID_265_"><path id="XMLID_267_" class="st80" d="M237.7 92.4h6.3c.3 0 .5.2.4.5-.1.3-.3.5-.6.5h-6.3c-.3 0-.5-.2-.4-.5 0-.3.3-.5.6-.5z"/><path id="XMLID_266_" class="st89" d="M237.7 92.4h6.3c.3 0 .5.2.4.5-.1.3-.3.5-.6.5h-6.3c-.3 0-.5-.2-.4-.5 0-.3.3-.5.6-.5z"/></g><g id="XMLID_263_"><path id="XMLID_264_" class="st52" d="M243 118.2l46.2-.2c.3 0 .5.2.4.5-.1.3-.3.5-.6.5l-46.2.2c-.3 0-.5-.2-.4-.5 0-.3.3-.5.6-.5z"/></g><g id="XMLID_261_"><path id="XMLID_262_" class="st52" d="M283.7 113.7h6.3c.3 0 .5.2.4.5-.1.3-.3.5-.6.5h-6.3c-.3 0-.5-.2-.4-.5 0-.3.3-.5.6-.5z"/></g><g id="XMLID_259_"><path id="XMLID_260_" class="st52" d="M235.4 113.9l46.2-.2c.3 0 .5.2.4.5-.1.3-.3.5-.6.5l-46.2.2c-.3 0-.5-.2-.4-.5 0-.3.3-.5.6-.5z"/></g><g id="XMLID_256_"><path id="XMLID_258_" class="st80" d="M232.4 96.7l10.5-.1c.3 0 .5.2.4.5-.1.3-.3.5-.6.5l-10.5.1c-.3 0-.5-.2-.4-.5 0-.2.3-.5.6-.5z"/><path id="XMLID_257_" class="st89" d="M232.4 96.7l10.5-.1c.3 0 .5.2.4.5-.1.3-.3.5-.6.5l-10.5.1c-.3 0-.5-.2-.4-.5 0-.2.3-.5.6-.5z"/></g><g id="XMLID_253_"><path id="XMLID_255_" class="st80" d="M244.9 96.7l42-.2c.3 0 .5.2.4.5-.1.3-.3.5-.6.5l-42 .2c-.3 0-.5-.2-.4-.5.1-.3.3-.5.6-.5z"/><path id="XMLID_254_" class="st89" d="M244.9 96.7l42-.2c.3 0 .5.2.4.5-.1.3-.3.5-.6.5l-42 .2c-.3 0-.5-.2-.4-.5.1-.3.3-.5.6-.5z"/></g><g opacity=".6"><path class="st52" d="M218.4 87.3h2.9c.3 0 .5.3.4.6l-.2 1c-.1.3-.3.6-.6.6H218c-.3 0-.5-.3-.4-.6l.2-1c.1-.4.4-.6.6-.6zM217.7 91.6h2.9c.3 0 .5.3.4.6l-.2 1c-.1.3-.3.6-.6.6h-2.9c-.3 0-.5-.3-.4-.6l.2-1c0-.3.3-.6.6-.6zM217 96h2.9c.3 0 .5.3.4.6l-.2 1c-.1.3-.3.6-.6.6h-2.9c-.3 0-.5-.3-.4-.6l.2-1c0-.4.3-.6.6-.6zM216.2 100.3h2.9c.3 0 .5.3.4.6l-.2 1c-.1.3-.3.6-.6.6h-2.9c-.3 0-.5-.3-.4-.6l.2-1c0-.3.3-.6.6-.6zM215.5 104.6h2.9c.3 0 .5.3.4.6l-.2 1c-.1.3-.3.6-.6.6h-2.9c-.3 0-.5-.3-.4-.6l.2-1c0-.3.3-.5.6-.6zM214.7 109h2.9c.3 0 .5.3.4.6l-.2 1c-.1.3-.3.6-.6.6h-2.9c-.3 0-.5-.3-.4-.6l.2-1c0-.4.3-.6.6-.6zM214 113.3h2.9c.3 0 .5.3.4.6l-.2 1c-.1.3-.3.6-.6.6h-2.9c-.3 0-.5-.3-.4-.6l.2-1c0-.3.3-.6.6-.6zM213.2 117.7h2.9c.3 0 .5.3.4.6l-.2 1c-.1.3-.3.6-.6.6h-2.9c-.3 0-.5-.3-.4-.6l.2-1c.1-.4.3-.6.6-.6zM212.5 122h2.9c.3 0 .5.3.4.6l-.2 1c-.1.3-.3.6-.6.6h-2.9c-.3 0-.5-.3-.4-.6l.2-1c0-.3.3-.6.6-.6zM211.7 126.3h2.9c.3 0 .5.3.4.6l-.2 1c-.1.3-.3.6-.6.6h-2.9c-.3 0-.5-.3-.4-.6l.2-1c.1-.3.3-.6.6-.6zM211 130.7h2.9c.3 0 .5.3.4.6l-.2 1c-.1.3-.3.6-.6.6h-2.9c-.3 0-.5-.3-.4-.6l.2-1c0-.4.3-.6.6-.6zM210.2 135h2.9c.3 0 .5.3.4.6l-.2 1c-.1.3-.3.6-.6.6h-2.9c-.3 0-.5-.3-.4-.6l.2-1c.1-.3.3-.6.6-.6z"/></g><g><path class="st87" d="M200.7 79.3l15.6-.1c.6 0 1 .5.9 1.1l-2.9 16.9c-.1.6-.7 1.1-1.2 1.1l-15.6.1c-.6 0-1-.5-.9-1.1l2.9-16.9c.1-.6.6-1.1 1.2-1.1z"/><path id="XMLID_252_" class="st80" d="M199.4 95.2h1.4c.3 0 .5.2.4.5-.1.3-.3.5-.6.5h-1.4c-.3 0-.5-.2-.4-.5.1-.2.3-.5.6-.5z"/><path id="XMLID_251_" class="st89" d="M199.4 95.2h1.4c.3 0 .5.2.4.5-.1.3-.3.5-.6.5h-1.4c-.3 0-.5-.2-.4-.5.1-.2.3-.5.6-.5z"/><path id="XMLID_250_" class="st80" d="M201.8 81.4h1.4c.3 0 .5.2.4.5-.1.3-.3.5-.6.5h-1.4c-.3 0-.5-.2-.4-.5 0-.2.3-.5.6-.5z"/><path id="XMLID_249_" class="st89" d="M201.8 81.4h1.4c.3 0 .5.2.4.5-.1.3-.3.5-.6.5h-1.4c-.3 0-.5-.2-.4-.5 0-.2.3-.5.6-.5z"/><path class="st80" d="M203.3 84.2h1.4c.3 0 .5.2.4.5s-.3.5-.6.5h-1.4c-.3 0-.5-.2-.4-.5.1-.3.4-.5.6-.5z"/><path class="st89" d="M203.3 84.2h1.4c.3 0 .5.2.4.5s-.3.5-.6.5h-1.4c-.3 0-.5-.2-.4-.5.1-.3.4-.5.6-.5z"/><g><path class="st80" d="M202.9 86.9h1.4c.3 0 .5.2.4.5-.1.3-.3.5-.6.5h-1.4c-.3 0-.5-.2-.4-.5 0-.2.3-.5.6-.5z"/><path class="st89" d="M202.9 86.9h1.4c.3 0 .5.2.4.5-.1.3-.3.5-.6.5h-1.4c-.3 0-.5-.2-.4-.5 0-.2.3-.5.6-.5z"/></g><g><path class="st80" d="M200.4 89.7h1.4c.3 0 .5.2.4.5s-.3.5-.6.5h-1.4c-.3 0-.5-.2-.4-.5 0-.2.3-.5.6-.5z"/><path class="st89" d="M200.4 89.7h1.4c.3 0 .5.2.4.5s-.3.5-.6.5h-1.4c-.3 0-.5-.2-.4-.5 0-.2.3-.5.6-.5z"/></g><g><path class="st80" d="M201.9 92.5h1.4c.3 0 .5.2.4.5-.1.3-.3.5-.6.5h-1.4c-.3 0-.5-.2-.4-.5.1-.3.3-.5.6-.5z"/><path class="st89" d="M201.9 92.5h1.4c.3 0 .5.2.4.5-.1.3-.3.5-.6.5h-1.4c-.3 0-.5-.2-.4-.5.1-.3.3-.5.6-.5z"/></g><g><path id="XMLID_248_" class="st80" d="M205.7 81.4h8.8c.3 0 .5.2.4.5-.1.3-.3.5-.6.5h-8.8c-.3 0-.5-.2-.4-.5.1-.2.3-.5.6-.5z"/><path id="XMLID_247_" class="st91" d="M205.7 81.4h8.8c.3 0 .5.2.4.5-.1.3-.3.5-.6.5h-8.8c-.3 0-.5-.2-.4-.5.1-.2.3-.5.6-.5z"/><path id="XMLID_246_" class="st80" d="M203.4 95.2h8.8c.3 0 .5.2.4.5-.1.3-.3.5-.6.5h-8.8c-.3 0-.5-.2-.4-.5 0-.2.3-.5.6-.5z"/><path id="XMLID_245_" class="st91" d="M203.4 95.2h8.8c.3 0 .5.2.4.5-.1.3-.3.5-.6.5h-8.8c-.3 0-.5-.2-.4-.5 0-.2.3-.5.6-.5z"/><path class="st80" d="M207.3 84.2h6.7c.3 0 .5.2.4.5-.1.3-.3.5-.6.5h-6.7c-.3 0-.5-.2-.4-.5 0-.3.3-.5.6-.5z"/><path class="st91" d="M207.3 84.2h6.7c.3 0 .5.2.4.5-.1.3-.3.5-.6.5h-6.7c-.3 0-.5-.2-.4-.5 0-.3.3-.5.6-.5z"/><g><path class="st80" d="M206.8 86.9h6.7c.3 0 .5.2.4.5-.1.3-.3.5-.6.5h-6.7c-.3 0-.5-.2-.4-.5 0-.2.3-.5.6-.5z"/><path class="st91" d="M206.8 86.9h6.7c.3 0 .5.2.4.5-.1.3-.3.5-.6.5h-6.7c-.3 0-.5-.2-.4-.5 0-.2.3-.5.6-.5z"/></g><g><path class="st80" d="M204.3 89.7h8.8c.3 0 .5.2.4.5-.1.3-.3.5-.6.5h-8.8c-.3 0-.5-.2-.4-.5 0-.3.3-.5.6-.5z"/><path class="st91" d="M204.3 89.7h8.8c.3 0 .5.2.4.5-.1.3-.3.5-.6.5h-8.8c-.3 0-.5-.2-.4-.5 0-.3.3-.5.6-.5z"/></g><g><path class="st80" d="M205.8 92.5h6.7c.3 0 .5.2.4.5-.1.3-.3.5-.6.5h-6.7c-.3 0-.5-.2-.4-.5.1-.3.4-.5.6-.5z"/><path class="st91" d="M205.8 92.5h6.7c.3 0 .5.2.4.5-.1.3-.3.5-.6.5h-6.7c-.3 0-.5-.2-.4-.5.1-.3.4-.5.6-.5z"/></g></g></g><g><path class="st87" d="M196.9 101.6l15.6-.1c.6 0 1 .5.9 1.1l-5.7 33.3c-.1.6-.7 1.1-1.2 1.1l-15.6.1c-.6 0-1-.5-.9-1.1l5.7-33.3c.1-.6.6-1.1 1.2-1.1z"/><path id="XMLID_244_" class="st80" d="M198 103.7h1.4c.3 0 .5.2.4.5-.1.3-.3.5-.6.5h-1.4c-.3 0-.5-.2-.4-.5 0-.2.3-.5.6-.5z"/><path id="XMLID_243_" class="st89" d="M198 103.7h1.4c.3 0 .5.2.4.5-.1.3-.3.5-.6.5h-1.4c-.3 0-.5-.2-.4-.5 0-.2.3-.5.6-.5z"/><path class="st80" d="M199.5 106.5h1.4c.3 0 .5.2.4.5-.1.3-.3.5-.6.5h-1.4c-.3 0-.5-.2-.4-.5 0-.3.3-.5.6-.5z"/><path class="st89" d="M199.5 106.5h1.4c.3 0 .5.2.4.5-.1.3-.3.5-.6.5h-1.4c-.3 0-.5-.2-.4-.5 0-.3.3-.5.6-.5z"/><g><path class="st80" d="M199 109.2h1.4c.3 0 .5.2.4.5-.1.3-.3.5-.6.5h-1.4c-.3 0-.5-.2-.4-.5.1-.2.3-.5.6-.5z"/><path class="st89" d="M199 109.2h1.4c.3 0 .5.2.4.5-.1.3-.3.5-.6.5h-1.4c-.3 0-.5-.2-.4-.5.1-.2.3-.5.6-.5z"/></g><g><path class="st80" d="M196.5 112h1.4c.3 0 .5.2.4.5-.1.3-.3.5-.6.5h-1.4c-.3 0-.5-.2-.4-.5.1-.3.4-.5.6-.5z"/><path class="st89" d="M196.5 112h1.4c.3 0 .5.2.4.5-.1.3-.3.5-.6.5h-1.4c-.3 0-.5-.2-.4-.5.1-.3.4-.5.6-.5z"/></g><g><path id="XMLID_242_" class="st80" d="M201.9 103.7h8.8c.3 0 .5.2.4.5s-.3.5-.6.5h-8.8c-.3 0-.5-.2-.4-.5 0-.2.3-.5.6-.5z"/><path id="XMLID_241_" class="st91" d="M201.9 103.7h8.8c.3 0 .5.2.4.5s-.3.5-.6.5h-8.8c-.3 0-.5-.2-.4-.5 0-.2.3-.5.6-.5z"/><path class="st80" d="M203.4 106.5h6.7c.3 0 .5.2.4.5-.1.3-.3.5-.6.5h-6.7c-.3 0-.5-.2-.4-.5.1-.3.3-.5.6-.5z"/><path class="st91" d="M203.4 106.5h6.7c.3 0 .5.2.4.5-.1.3-.3.5-.6.5h-6.7c-.3 0-.5-.2-.4-.5.1-.3.3-.5.6-.5z"/><path class="st80" d="M203 109.2h6.7c.3 0 .5.2.4.5-.1.3-.3.5-.6.5h-6.7c-.3 0-.5-.2-.4-.5 0-.2.3-.5.6-.5z"/><path class="st91" d="M203 109.2h6.7c.3 0 .5.2.4.5-.1.3-.3.5-.6.5h-6.7c-.3 0-.5-.2-.4-.5 0-.2.3-.5.6-.5z"/><path class="st80" d="M200.5 112h8.8c.3 0 .5.2.4.5s-.3.5-.6.5h-8.8c-.3 0-.5-.2-.4-.5 0-.3.3-.5.6-.5z"/><path class="st91" d="M200.5 112h8.8c.3 0 .5.2.4.5s-.3.5-.6.5h-8.8c-.3 0-.5-.2-.4-.5 0-.3.3-.5.6-.5z"/><path class="st80" d="M198.1 114.8h1.4c.3 0 .5.2.4.5s-.3.5-.6.5h-1.4c-.3 0-.5-.2-.4-.5 0-.3.3-.5.6-.5z"/><path class="st89" d="M198.1 114.8h1.4c.3 0 .5.2.4.5s-.3.5-.6.5h-1.4c-.3 0-.5-.2-.4-.5 0-.3.3-.5.6-.5z"/><path class="st80" d="M197.6 117.5h1.4c.3 0 .5.2.4.5-.1.3-.3.5-.6.5h-1.4c-.3 0-.5-.2-.4-.5 0-.2.3-.5.6-.5z"/><path class="st89" d="M197.6 117.5h1.4c.3 0 .5.2.4.5-.1.3-.3.5-.6.5h-1.4c-.3 0-.5-.2-.4-.5 0-.2.3-.5.6-.5z"/><path class="st80" d="M202 114.8h6.7c.3 0 .5.2.4.5-.1.3-.3.5-.6.5h-6.7c-.3 0-.5-.2-.4-.5 0-.3.3-.5.6-.5z"/><path class="st91" d="M202 114.8h6.7c.3 0 .5.2.4.5-.1.3-.3.5-.6.5h-6.7c-.3 0-.5-.2-.4-.5 0-.3.3-.5.6-.5z"/><path class="st80" d="M201.5 117.5h6.7c.3 0 .5.2.4.5-.1.3-.3.5-.6.5h-6.7c-.3 0-.5-.2-.4-.5.1-.2.3-.5.6-.5z"/><path class="st91" d="M201.5 117.5h6.7c.3 0 .5.2.4.5-.1.3-.3.5-.6.5h-6.7c-.3 0-.5-.2-.4-.5.1-.2.3-.5.6-.5z"/><path class="st80" d="M194.2 125.8h1.4c.3 0 .5.2.4.5-.1.3-.3.5-.6.5H194c-.3 0-.5-.2-.4-.5 0-.2.3-.5.6-.5z"/><path class="st89" d="M194.2 125.8h1.4c.3 0 .5.2.4.5-.1.3-.3.5-.6.5H194c-.3 0-.5-.2-.4-.5 0-.2.3-.5.6-.5z"/><path class="st80" d="M198.1 125.8h8.8c.3 0 .5.2.4.5-.1.3-.3.5-.6.5h-8.8c-.3 0-.5-.2-.4-.5 0-.2.3-.5.6-.5z"/><path class="st91" d="M198.1 125.8h8.8c.3 0 .5.2.4.5-.1.3-.3.5-.6.5h-8.8c-.3 0-.5-.2-.4-.5 0-.2.3-.5.6-.5z"/><g><path class="st80" d="M195.7 128.6h1.4c.3 0 .5.2.4.5s-.3.5-.6.5h-1.4c-.3 0-.5-.2-.4-.5 0-.3.3-.5.6-.5z"/><path class="st89" d="M195.7 128.6h1.4c.3 0 .5.2.4.5s-.3.5-.6.5h-1.4c-.3 0-.5-.2-.4-.5 0-.3.3-.5.6-.5z"/></g><g><path class="st80" d="M195.2 131.4h1.4c.3 0 .5.2.4.5-.1.3-.3.5-.6.5H195c-.3 0-.5-.2-.4-.5.1-.3.3-.5.6-.5z"/><path class="st89" d="M195.2 131.4h1.4c.3 0 .5.2.4.5-.1.3-.3.5-.6.5H195c-.3 0-.5-.2-.4-.5.1-.3.3-.5.6-.5z"/></g><g><path class="st80" d="M199.6 128.6h6.7c.3 0 .5.2.4.5s-.3.5-.6.5h-6.7c-.3 0-.5-.2-.4-.5.1-.3.3-.5.6-.5z"/><path class="st91" d="M199.6 128.6h6.7c.3 0 .5.2.4.5s-.3.5-.6.5h-6.7c-.3 0-.5-.2-.4-.5.1-.3.3-.5.6-.5z"/></g><g><path class="st80" d="M199.2 131.3h6.7c.3 0 .5.2.4.5-.1.3-.3.5-.6.5H199c-.3 0-.5-.2-.4-.5 0-.2.3-.5.6-.5z"/><path class="st91" d="M199.2 131.3h6.7c.3 0 .5.2.4.5-.1.3-.3.5-.6.5H199c-.3 0-.5-.2-.4-.5 0-.2.3-.5.6-.5z"/></g><g><path class="st80" d="M197.1 120.3h1.4c.3 0 .5.2.4.5-.1.3-.3.5-.6.5h-1.4c-.3 0-.5-.2-.4-.5.1-.3.3-.5.6-.5z"/><path class="st89" d="M197.1 120.3h1.4c.3 0 .5.2.4.5-.1.3-.3.5-.6.5h-1.4c-.3 0-.5-.2-.4-.5.1-.3.3-.5.6-.5z"/></g><g><path class="st80" d="M194.6 123h1.4c.3 0 .5.2.4.5-.1.3-.3.5-.6.5h-1.4c-.3 0-.5-.2-.4-.5.1-.2.4-.5.6-.5z"/><path class="st89" d="M194.6 123h1.4c.3 0 .5.2.4.5-.1.3-.3.5-.6.5h-1.4c-.3 0-.5-.2-.4-.5.1-.2.4-.5.6-.5z"/></g><g><path class="st80" d="M201.1 120.3h6.7c.3 0 .5.2.4.5-.1.3-.3.5-.6.5h-6.7c-.3 0-.5-.2-.4-.5 0-.3.3-.5.6-.5z"/><path class="st91" d="M201.1 120.3h6.7c.3 0 .5.2.4.5-.1.3-.3.5-.6.5h-6.7c-.3 0-.5-.2-.4-.5 0-.3.3-.5.6-.5z"/></g><g><path class="st80" d="M198.6 123h8.8c.3 0 .5.2.4.5-.1.3-.3.5-.6.5h-8.8c-.3 0-.5-.2-.4-.5 0-.2.3-.5.6-.5z"/><path class="st91" d="M198.6 123h8.8c.3 0 .5.2.4.5-.1.3-.3.5-.6.5h-8.8c-.3 0-.5-.2-.4-.5 0-.2.3-.5.6-.5z"/></g><g><path class="st80" d="M192.7 134.2h1.4c.3 0 .5.2.4.5s-.3.5-.6.5h-1.4c-.3 0-.5-.2-.4-.5.1-.3.3-.5.6-.5z"/><path class="st89" d="M192.7 134.2h1.4c.3 0 .5.2.4.5s-.3.5-.6.5h-1.4c-.3 0-.5-.2-.4-.5.1-.3.3-.5.6-.5z"/></g><g><path class="st80" d="M196.7 134.2h8.8c.3 0 .5.2.4.5-.1.3-.3.5-.6.5h-8.8c-.3 0-.5-.2-.4-.5 0-.3.3-.5.6-.5z"/><path class="st91" d="M196.7 134.2h8.8c.3 0 .5.2.4.5-.1.3-.3.5-.6.5h-8.8c-.3 0-.5-.2-.4-.5 0-.3.3-.5.6-.5z"/></g></g></g></g></g></svg>