<?xml version="1.0" encoding="utf-8"?>
<!-- Generator: Adobe Illustrator 19.2.1, SVG Export Plug-In . SVG Version: 6.00 Build 0)  -->
<svg version="1.1" xmlns="http://www.w3.org/2000/svg" xmlns:xlink="http://www.w3.org/1999/xlink" x="0px" y="0px"
	 viewBox="0 0 742.6 626.5" style="enable-background:new 0 0 742.6 626.5;" xml:space="preserve">
<style type="text/css">
	.st0{fill:#07182B;}
	.st1{fill:url(#SVGID_1_);}
	.st2{fill:url(#SVGID_2_);}
	.st3{fill:url(#SVGID_3_);}
	.st4{fill:url(#SVGID_4_);}
	.st5{fill:url(#SVGID_5_);}
	.st6{fill:url(#SVGID_6_);}
	.st7{display:none;}
	.st8{display:inline;}
	.st9{fill:#142436;}
	.st10{fill:#1F2F40;}
	.st11{fill:#2B3A4A;}
	.st12{fill:#364353;}
	.st13{fill:#495562;}
	.st14{fill:#FF9700;}
	.st15{opacity:0.41;}
	.st16{fill:url(#SVGID_7_);}
	.st17{filter:url(#Adobe_OpacityMaskFilter);}
	.st18{fill:url(#SVGID_9_);}
	.st19{opacity:0.33;mask:url(#SVGID_8_);fill:url(#SVGID_10_);}
	.st20{fill:none;stroke:#FFFFFF;stroke-width:2;stroke-miterlimit:10;}
	.st21{fill:url(#SVGID_11_);}
	.st22{fill:url(#SVGID_12_);}
	.st23{fill:url(#SVGID_13_);}
	.st24{fill:url(#SVGID_14_);}
	.st25{fill:url(#SVGID_15_);}
	.st26{fill:url(#SVGID_16_);}
	.st27{fill:url(#SVGID_17_);}
	.st28{fill:url(#SVGID_18_);}
	.st29{fill:url(#SVGID_19_);}
	.st30{fill:url(#SVGID_20_);}
	.st31{fill:url(#SVGID_21_);}
	.st32{fill:url(#SVGID_22_);}
	.st33{fill:url(#SVGID_23_);}
	.st34{fill:url(#SVGID_24_);}
	.st35{fill:none;stroke:#D3FF4A;stroke-width:4;stroke-linecap:round;stroke-miterlimit:10;}
	.st36{fill:#D3FF4A;stroke:#D3FF4A;stroke-width:4;stroke-linecap:round;stroke-miterlimit:10;}
	.st37{opacity:0.62;fill:url(#SVGID_31_);}
	.st38{fill:#262626;}
	.st39{fill:#383838;}
	.st40{fill:url(#SVGID_34_);}
	.st41{fill:url(#SVGID_35_);}
	.st42{fill:url(#SVGID_36_);}
	.st43{fill:url(#SVGID_37_);}
	.st44{fill:url(#SVGID_38_);}
	.st45{fill:url(#SVGID_39_);}
	.st46{fill:#231F20;}
	.st47{fill:url(#SVGID_40_);}
	.st48{opacity:0.19;fill:url(#SVGID_43_);}
	.st49{opacity:0.19;fill:url(#SVGID_48_);}
	.st50{fill:#FFB450;}
	.st51{fill:none;}
	.st52{fill:#FFFFFF;}
	.st53{fill:#FF9200;}
	.st54{opacity:0.7;fill:#FFFFFF;enable-background:new    ;}
	.st55{fill:#263238;}
	.st56{opacity:0.2;fill:#FFFFFF;enable-background:new    ;}
	.st57{fill:none;stroke:#263238;stroke-linecap:round;stroke-linejoin:round;}
	.st58{opacity:0.44;fill:#FFFFFF;enable-background:new    ;}
	.st59{fill:none;stroke:#FFFFFF;stroke-miterlimit:10;}
	.st60{fill:none;stroke:#263238;stroke-width:0.5;stroke-miterlimit:10;}
	.st61{fill:#FFFFFF;stroke:#263238;stroke-width:0.5;stroke-miterlimit:10;}
	.st62{opacity:0.2;enable-background:new    ;}
	.st63{fill:#263238;stroke:#263238;stroke-linecap:round;stroke-linejoin:round;}
	.st64{fill:#FFFFFF;stroke:#263238;stroke-linecap:round;stroke-linejoin:round;}
	.st65{fill:#808080;stroke:#263238;stroke-linecap:round;stroke-linejoin:round;}
	.st66{fill:#FF9200;stroke:#263238;stroke-linecap:round;stroke-linejoin:round;}
	.st67{clip-path:url(#SVGID_54_);}
	.st68{clip-path:url(#SVGID_56_);}
	.st69{opacity:0.5;fill:#FFFFFF;enable-background:new    ;}
	.st70{clip-path:url(#SVGID_58_);}
	.st71{clip-path:url(#SVGID_60_);}
	.st72{clip-path:url(#SVGID_62_);}
	.st73{clip-path:url(#SVGID_64_);}
	.st74{fill:#575757;}
	.st75{fill:none;stroke:#575757;stroke-miterlimit:10;}
	.st76{fill:none;stroke:#263238;stroke-miterlimit:10;}
	.st77{stroke:#263238;stroke-linecap:round;stroke-linejoin:round;}
	.st78{fill:#282828;}
	.st79{clip-path:url(#SVGID_66_);}
	.st80{fill:#D3FF4A;}
	.st81{clip-path:url(#SVGID_68_);}
	.st82{clip-path:url(#SVGID_70_);}
	.st83{opacity:0.48;fill:#282828;enable-background:new    ;}
	.st84{clip-path:url(#SVGID_72_);}
	.st85{clip-path:url(#SVGID_74_);}
	.st86{fill:#425860;}
	.st87{fill:#455A64;}
	.st88{fill:#F5F5F5;}
	.st89{opacity:0.6;fill:#FFFFFF;}
	.st90{opacity:0.6;}
	.st91{opacity:0.8;fill:#FFFFFF;}
	.st92{fill:#37474F;}
	.st93{fill:#FAFAFA;}
	.st94{fill:#5B5B5B;}
	.st95{fill:none;stroke:#E0E0E0;stroke-width:0.4968;stroke-linecap:round;stroke-linejoin:round;stroke-miterlimit:10;}
	.st96{fill:#FAFAFA;stroke:#E0E0E0;stroke-width:0.9175;stroke-miterlimit:10;}
	.st97{fill:#545454;stroke:#E0E0E0;stroke-width:0.9175;stroke-miterlimit:10;}
	.st98{opacity:0.1;}
	.st99{opacity:0.2;}
	.st100{opacity:0.5;fill:#FFFFFF;}
	.st101{opacity:0.4;}
	.st102{fill:#F0F0F0;}
	.st103{opacity:0.5;}
	.st104{fill:#D3FF4A;stroke:#000000;stroke-miterlimit:10;}
	.st105{fill:none;stroke:#D3FF4A;stroke-width:10;stroke-linecap:round;stroke-miterlimit:10;}
	.st106{fill:#FFFFFA;}
	.st107{fill:#FEFEFE;}
	.st108{fill:none;stroke:#D3FF4A;stroke-width:8;stroke-linecap:round;stroke-miterlimit:10;}
	.st109{fill:none;stroke:#FFFFFA;stroke-width:8;stroke-linecap:round;stroke-linejoin:round;stroke-miterlimit:10;}
	.st110{fill:#1A2935;}
	.st111{fill:none;stroke:#D3FF4A;stroke-width:6;stroke-linecap:round;stroke-miterlimit:10;}
	.st112{fill:#9DB537;}
	.st113{fill:#CC7500;}
	.st114{fill:none;stroke:#D3FF00;stroke-width:5;stroke-miterlimit:10;stroke-dasharray:30,30;}
	.st115{fill:none;stroke:#FF9200;stroke-width:5;stroke-miterlimit:10;stroke-dasharray:30,30;}
	.st116{fill:#D3FF00;}
	.st117{fill:#F9FFD9;}
	.st118{opacity:0.91;fill:#F9FFD9;}
	.st119{fill:#949494;}
	.st120{fill:#FFDEB2;}
	.st121{clip-path:url(#SVGID_76_);}
	.st122{clip-path:url(#SVGID_78_);}
	.st123{clip-path:url(#SVGID_80_);}
	.st124{clip-path:url(#SVGID_82_);}
	.st125{clip-path:url(#SVGID_84_);}
	.st126{clip-path:url(#SVGID_86_);}
	.st127{clip-path:url(#SVGID_88_);}
	.st128{clip-path:url(#SVGID_90_);}
	.st129{opacity:0.2;clip-path:url(#SVGID_92_);enable-background:new    ;}
	.st130{opacity:0.48;enable-background:new    ;}
	.st131{clip-path:url(#SVGID_94_);}
	.st132{clip-path:url(#SVGID_96_);}
	.st133{clip-path:url(#SVGID_98_);}
	.st134{clip-path:url(#SVGID_100_);}
	.st135{clip-path:url(#SVGID_102_);}
	.st136{clip-path:url(#SVGID_104_);}
	.st137{clip-path:url(#SVGID_106_);}
	.st138{clip-path:url(#SVGID_108_);}
	.st139{clip-path:url(#SVGID_110_);}
	.st140{clip-path:url(#SVGID_112_);}
	.st141{opacity:0.2;clip-path:url(#SVGID_114_);enable-background:new    ;}
	.st142{clip-path:url(#SVGID_116_);}
	.st143{clip-path:url(#SVGID_118_);}
	.st144{opacity:0.44;enable-background:new    ;}
	.st145{fill:#808080;}
	.st146{clip-path:url(#SVGID_120_);}
	.st147{clip-path:url(#SVGID_122_);}
	.st148{opacity:0.5;enable-background:new    ;}
	.st149{clip-path:url(#SVGID_124_);}
	.st150{clip-path:url(#SVGID_126_);}
	.st151{clip-path:url(#SVGID_128_);}
	.st152{clip-path:url(#SVGID_130_);}
	.st153{opacity:0.7;enable-background:new    ;}
	.st154{clip-path:url(#SVGID_132_);}
	.st155{clip-path:url(#SVGID_134_);}
	.st156{opacity:0.2;clip-path:url(#SVGID_136_);enable-background:new    ;}
	.st157{clip-path:url(#SVGID_138_);}
	.st158{clip-path:url(#SVGID_140_);}
	.st159{fill:#E0E0E0;}
	.st160{fill:#545454;}
	.st161{opacity:0.8;}
	.st162{fill:#FD5D5C;}
	.st163{opacity:0.4;fill:#1B1C61;}
	.st164{fill:#6F57F2;stroke:#263238;stroke-miterlimit:10;}
	.st165{fill:#6F57F2;}
	.st166{fill:#1E2E91;}
	.st167{fill:#6F57F3;}
	.st168{fill:#90AFF4;}
	.st169{fill:#6181D8;}
	.st170{fill:#F3F8FB;}
	.st171{fill:#D0E9F6;}
	.st172{fill:#8FC9F4;}
	.st173{enable-background:new    ;}
	.st174{clip-path:url(#SVGID_142_);}
	.st175{clip-path:url(#SVGID_144_);}
	.st176{clip-path:url(#SVGID_146_);}
	.st177{clip-path:url(#SVGID_148_);}
	.st178{clip-path:url(#SVGID_150_);}
	.st179{clip-path:url(#SVGID_152_);}
	.st180{fill:#8DB1F1;}
	.st181{fill:#AFF4E6;}
	.st182{opacity:0.35;}
	.st183{clip-path:url(#SVGID_154_);}
	.st184{clip-path:url(#SVGID_156_);}
	.st185{clip-path:url(#SVGID_158_);}
	.st186{clip-path:url(#SVGID_160_);enable-background:new    ;}
	.st187{fill:#80809B;}
	.st188{fill:#8484A1;}
	.st189{fill:#8888A6;}
	.st190{fill:#8C8CAB;}
	.st191{fill:#9090B0;}
	.st192{fill:#9494B5;}
	.st193{clip-path:url(#SVGID_162_);enable-background:new    ;}
	.st194{fill:#6B6B82;}
	.st195{fill:#707087;}
	.st196{fill:#74748C;}
	.st197{fill:#787891;}
	.st198{fill:#7D7D96;}
	.st199{fill:#6D6D84;}
	.st200{fill:#9F9FC1;}
	.st201{fill:#878787;}
	.st202{clip-path:url(#SVGID_164_);enable-background:new    ;}
	.st203{fill:#858585;}
	.st204{clip-path:url(#SVGID_166_);enable-background:new    ;}
	.st205{clip-path:url(#SVGID_168_);enable-background:new    ;}
	.st206{clip-path:url(#SVGID_170_);enable-background:new    ;}
	.st207{clip-path:url(#SVGID_172_);enable-background:new    ;}
	.st208{clip-path:url(#SVGID_174_);enable-background:new    ;}
	.st209{clip-path:url(#SVGID_176_);enable-background:new    ;}
	.st210{fill:#999999;}
	.st211{fill:#9E9E9E;}
	.st212{fill:#A4A4A4;}
	.st213{fill:#A9A9A9;}
	.st214{fill:#AEAEAE;}
	.st215{fill:#B3B3B3;}
	.st216{fill:#B8B8B8;}
	.st217{fill:#C4C4C4;}
	.st218{clip-path:url(#SVGID_178_);enable-background:new    ;}
	.st219{fill:#8F8F8F;}
	.st220{fill:#8A8A8A;}
	.st221{clip-path:url(#SVGID_180_);}
	.st222{fill:none;stroke:#8DB1F1;stroke-width:3;stroke-miterlimit:10;}
	.st223{fill:#609EFD;}
	.st224{clip-path:url(#SVGID_182_);}
	.st225{clip-path:url(#SVGID_184_);}
	.st226{clip-path:url(#SVGID_186_);}
	.st227{clip-path:url(#SVGID_188_);}
	.st228{clip-path:url(#SVGID_190_);}
	.st229{clip-path:url(#SVGID_192_);}
	.st230{clip-path:url(#SVGID_194_);}
	.st231{clip-path:url(#SVGID_196_);}
	.st232{clip-path:url(#SVGID_198_);}
	.st233{clip-path:url(#SVGID_200_);enable-background:new    ;}
	.st234{clip-path:url(#SVGID_202_);enable-background:new    ;}
	.st235{clip-path:url(#SVGID_204_);enable-background:new    ;}
	.st236{clip-path:url(#SVGID_206_);enable-background:new    ;}
	.st237{clip-path:url(#SVGID_208_);enable-background:new    ;}
	.st238{clip-path:url(#SVGID_210_);enable-background:new    ;}
	.st239{clip-path:url(#SVGID_212_);enable-background:new    ;}
	.st240{clip-path:url(#SVGID_214_);enable-background:new    ;}
	.st241{clip-path:url(#SVGID_216_);enable-background:new    ;}
	.st242{clip-path:url(#SVGID_218_);enable-background:new    ;}
	.st243{clip-path:url(#SVGID_220_);}
	.st244{clip-path:url(#SVGID_222_);}
	.st245{clip-path:url(#SVGID_224_);}
	.st246{clip-path:url(#SVGID_226_);}
	.st247{clip-path:url(#SVGID_228_);}
	.st248{clip-path:url(#SVGID_230_);}
	.st249{clip-path:url(#SVGID_232_);}
	.st250{clip-path:url(#SVGID_234_);}
	.st251{clip-path:url(#SVGID_236_);}
	.st252{clip-path:url(#SVGID_238_);}
	.st253{clip-path:url(#SVGID_240_);enable-background:new    ;}
	.st254{clip-path:url(#SVGID_242_);enable-background:new    ;}
	.st255{clip-path:url(#SVGID_244_);enable-background:new    ;}
	.st256{clip-path:url(#SVGID_246_);enable-background:new    ;}
	.st257{clip-path:url(#SVGID_248_);enable-background:new    ;}
	.st258{clip-path:url(#SVGID_250_);enable-background:new    ;}
	.st259{clip-path:url(#SVGID_252_);enable-background:new    ;}
	.st260{clip-path:url(#SVGID_254_);enable-background:new    ;}
	.st261{clip-path:url(#SVGID_256_);enable-background:new    ;}
	.st262{clip-path:url(#SVGID_258_);enable-background:new    ;}
	.st263{clip-path:url(#SVGID_260_);}
	.st264{clip-path:url(#SVGID_262_);}
	.st265{clip-path:url(#SVGID_264_);}
	.st266{clip-path:url(#SVGID_266_);}
	.st267{clip-path:url(#SVGID_268_);}
	.st268{clip-path:url(#SVGID_270_);}
	.st269{clip-path:url(#SVGID_272_);}
	.st270{clip-path:url(#SVGID_274_);}
	.st271{clip-path:url(#SVGID_276_);}
	.st272{clip-path:url(#SVGID_278_);}
	.st273{clip-path:url(#SVGID_280_);enable-background:new    ;}
	.st274{clip-path:url(#SVGID_282_);enable-background:new    ;}
	.st275{clip-path:url(#SVGID_284_);enable-background:new    ;}
	.st276{clip-path:url(#SVGID_286_);enable-background:new    ;}
	.st277{clip-path:url(#SVGID_288_);enable-background:new    ;}
	.st278{clip-path:url(#SVGID_290_);enable-background:new    ;}
	.st279{clip-path:url(#SVGID_292_);enable-background:new    ;}
	.st280{clip-path:url(#SVGID_294_);enable-background:new    ;}
	.st281{clip-path:url(#SVGID_296_);enable-background:new    ;}
	.st282{clip-path:url(#SVGID_298_);enable-background:new    ;}
	.st283{clip-path:url(#SVGID_300_);}
	.st284{opacity:0.9;fill:#25468F;}
	.st285{opacity:0.7;fill:#FFEBD9;}
	.st286{fill:#0B3563;}
	.st287{fill:#FDDBBA;}
	.st288{fill:#FFEBD9;}
	.st289{fill:#214D9A;}
	.st290{fill:#FFAE73;}
	.st291{fill:#F18D4D;}
	.st292{fill:#F0C19C;}
	.st293{fill:#FF9D5D;}
	.st294{fill:#25468F;}
	.st295{fill:#2D3554;}
	.st296{opacity:0.5;fill:#2D3554;}
	.st297{opacity:0.92;fill:#07182B;}
</style>
<g id="Layer_2">
</g>
<g id="Layer_1" class="st7">
</g>
<g id="Layer_4">
</g>
<g id="Layer_3">
</g>
<g id="Layer_5">
	<g>
		<path class="st180" d="M700,580.9c-76.7,68.9-221.9-65.1-356.9,33.1C289,653.3-47.3,607.8,5.6,368.1
			C36.9,226.5,197,309,301.3,90.6C322.4,46.5,366.1,22,411.2,9.1c1.4-0.4,2.8-0.8,4.2-1.1c1.4-0.4,2.8-0.7,4.2-1.1
			c38-9.3,79.5-9.1,119.7-0.3c2.9,0.6,5.8,1.3,8.7,2.1c41.3,10.4,80.7,29.8,112.9,57.5c2.9,2.5,5.7,5,8.4,7.6
			c55.2,52,64.6,113.3,49.4,236.9C705,421.5,791.3,498.9,700,580.9z"/>
		<path class="st284" d="M660.9,66.2v203.2H415.4V8c1.4-0.4,2.8-0.7,4.2-1.1c0,0,0,0,0,0c30.7-7.5,63.7-8.8,96.4-4.4
			c7.8,1,15.6,2.4,23.3,4.1c2.9,0.6,5.8,1.3,8.7,2.1C589.3,19,628.7,38.5,660.9,66.2z"/>
		<g>
			<g>
				<path class="st169" d="M211.5,580.9l0.2,0c1.9,0,3.4-1.9,3.3-4.1L202,424l-11.3,1.2l18.6,153.7
					C209.4,580,210.4,580.9,211.5,580.9z"/>
			</g>
			<g>
				<path class="st169" d="M86.5,580.9l-0.2,0c-1.9,0-3.4-1.9-3.3-4.1L96,424l11.3,1.2L88.7,578.8C88.5,580,87.6,580.9,86.5,580.9z"
					/>
			</g>
			<g>
				<path class="st169" d="M303,580.9l0.2,0c1.9,0,3.4-1.9,3.3-4.1l-13-152.9l-11.3,1.2l18.6,153.7C301,580,301.9,580.9,303,580.9z"
					/>
			</g>
			<path class="st169" d="M90.4,401.7l-23-134.2c-3-18.2,9.8-34.8,26.4-34.3l44.4,1.2c15.3,0.4,28.7,12.5,32.9,29.9l33.7,137.4H90.4
				z"/>
			<path class="st169" d="M104.3,401.7l-23-134.2c-3-18.2,9.8-34.8,26.4-34.3l44.4,1.2c15.3,0.4,28.7,12.5,32.9,29.9l33.7,137.4
				H104.3z"/>
			<path class="st169" d="M99.6,426.2h170.1c5.1,0,9.3-4.2,9.3-9.3v-6c0-5.1-4.2-9.3-9.3-9.3H90.4V417
				C90.4,422,94.5,426.2,99.6,426.2z"/>
			<path class="st169" d="M183.3,426.2h103.9c5.1,0,9.3-4.2,9.3-9.3v-6c0-5.1-4.2-9.3-9.3-9.3H183.3c-5.1,0-9.3,4.2-9.3,9.3v6
				C174.1,422,178.3,426.2,183.3,426.2z"/>
		</g>
		<g>
			<g>
				<path class="st169" d="M588.7,483.5c0,0-15.4-18-0.9-29.4c0,0,10.5-6.4,19.1-5.9c0,0-12.2,20.4-8.2,22.5
					c3.9,2,11.9-23.7,11.9-23.7s24-2.3,31.7,1.4c0,0-20.5,16.8-16.2,17.8c4.3,1,26.5-15.5,26.5-15.5s22.3,3.8,21.1,17.4
					c-1.2,13.6-8.9,17.8-12.3,17.5c-3.4-0.4-23.2-7.9-23.6-5.1c-0.4,2.8,11.5,11.8,19.8,12.3c0,0-15.7,17.4-26.2,12.4
					c-10.5-5-11.4-13-17.9-15.9c-6.5-3-12.1-3-9.4,0.1c2.7,3,14.5,6,18.2,12.6c3.7,6.6,7.1,11.1-3.8,9.4
					c-10.8-1.6-28.4-9.6-29.2-18.6C588.7,483.5,588.7,483.5,588.7,483.5z"/>
				<g>
					<path class="st169" d="M662.8,468.5c0,0-60.7-2.3-74.1,15c0,0-3,8.9-12.1,17l-1.4,3.9c0,0,10.5-11.1,14.3-11.8
						C589.5,492.6,583.6,471.1,662.8,468.5z"/>
					<path class="st169" d="M576.6,500.4c0,0-13,9.6-13.9,26.8l2.4,0.2c0,0,4.2-17.8,11.7-24.8C584.2,495.8,576.6,500.4,576.6,500.4
						z"/>
				</g>
			</g>
			<g>
				<path class="st169" d="M534.9,460.9c0,0,24.5-13.7,13.1-32.3c0,0-9.1-11.4-18.9-14.4c0,0,5.2,27.7,0,28.4s-3.6-31.3-3.6-31.3
					s-25.8-12.4-35.9-11.4c0,0,16,27.1,10.8,26.4c-5.2-0.7-23.2-28.1-23.2-28.1s-26.4-4.9-30.7,10.8c-4.2,15.7,2.6,23.5,6.5,24.5
					c3.9,1,29,0.7,28.4,3.9c-0.7,3.3-17.6,8.5-27.1,5.5c0,0,10.4,25.8,24.2,24.5c13.7-1.3,18-9.8,26.4-10.4
					c8.5-0.7,14.7,1.6,10.4,3.9s-18.6,0.7-25.5,6.6c-6.9,5.8-12.4,9.4,0.3,12c12.7,2.6,35.6,1,40.1-8.8
					C534.9,460.9,534.9,460.9,534.9,460.9z"/>
				<g>
					<path class="st169" d="M458.5,413.9c0,0,68.5,22.2,76.4,47c0,0-0.3,11.1,6.5,23.8v4.9c0,0-7.2-16.6-11.1-18.9
						C530.3,470.7,545.7,449.2,458.5,413.9z"/>
					<path class="st169" d="M541.4,484.7c0,0,10.6,16.1,4.5,35.6l-2.7-0.7c0,0,2.6-21.5-2.9-32.3
						C534.8,476.4,541.4,484.7,541.4,484.7z"/>
				</g>
			</g>
			<g>
				<path class="st169" d="M573.8,442c0,0-32.3-18.1-17.2-42.6c0,0,12-15.1,25-18.9c0,0-6.9,36.6,0,37.4c6.9,0.9,4.7-41.3,4.7-41.3
					s34-16.3,47.3-15.1c0,0-21.1,35.7-14.2,34.9c6.9-0.9,30.5-37,30.5-37s34.9-6.5,40.4,14.2c5.6,20.7-3.4,31-8.6,32.3
					c-5.2,1.3-38.3,0.9-37.4,5.2c0.9,4.3,23.2,11.2,35.7,7.3c0,0-13.8,34-31.8,32.3c-18.1-1.7-23.7-12.9-34.9-13.8
					c-11.2-0.9-19.4,2.2-13.8,5.2c5.6,3,24.5,1,33.6,8.7c9,7.7,16.3,12.4-0.4,15.9c-16.8,3.4-46.9,1.3-52.9-11.6
					C573.8,442,573.8,442,573.8,442z"/>
				<g>
					<path class="st169" d="M674.5,380c0,0-90.4,29.3-100.7,62c0,0,0.4,14.6-8.6,31.4v6.5c0,0,9.5-21.9,14.6-25
						C579.9,454.9,559.6,426.5,674.5,380z"/>
					<path class="st169" d="M565.2,473.4c0,0-13.9,21.2-6,46.9l3.6-1c0,0-3.5-28.4,3.8-42.6C573.9,462.5,565.2,473.4,565.2,473.4z"
						/>
				</g>
			</g>
			<path class="st169" d="M572.7,576.2c34.9,0,63.2-28.3,63.2-63.2H509.5C509.5,547.9,537.8,576.2,572.7,576.2z"/>
			<path class="st169" d="M636.8,579.4H508.7l0,0c0-4.3,3.5-7.8,7.8-7.8H629C633.3,571.6,636.8,575.1,636.8,579.4L636.8,579.4z"/>
			<rect x="507.5" y="513" class="st169" width="129.9" height="1.9"/>
		</g>
		<g>
			<g>
				<path class="st169" d="M660.9,66.2v196.2H419.6V6.9c-1.4,0.3-2.8,0.7-4.2,1.1c-1.4,0.4-2.8,0.7-4.2,1.1v268.7h258.2V73.7
					C666.6,71.2,663.8,68.6,660.9,66.2z"/>
			</g>
			<path class="st169" d="M692.2,277.8H386.4l0,0c0-8.4,6.8-15.2,15.2-15.2H677C685.4,262.6,692.2,269.4,692.2,277.8L692.2,277.8z"
				/>
			<path class="st169" d="M548,8.7v260.7h-8.7V6.6C542.2,7.3,545.1,7.9,548,8.7z"/>
		</g>
		<path class="st285" d="M394.1,126.9c-0.2,0.2-163.7,189.6-163.7,189.6H420l27.7-141.7L394.1,126.9z"/>
		<g>
			<g>
				<g>
					<g>
						<polygon class="st286" points="477.2,308.7 473.9,308.7 473.9,252 507.6,166 447.4,119.5 449.5,116.8 511.5,165 477.2,252.6 
													"/>
					</g>
					<path class="st286" d="M440.6,125.4L440.6,125.4c-1.5-1.1-1.9-3.2-0.8-4.7l5-7.1c1.1-1.5,3.2-1.9,4.7-0.8l0,0
						c1.5,1.1,1.9,3.2,0.8,4.7l-5,7.1C444.3,126.1,442.2,126.5,440.6,125.4z"/>
					<circle class="st286" cx="508.8" cy="165.1" r="4.4"/>
				</g>
				<g>
					<path class="st286" d="M491.5,316.5h-33.1v-2.3c0-3.9,3.2-7.1,7.1-7.1h18.9c3.9,0,7.1,3.2,7.1,7.1V316.5z"/>
					<rect x="472" y="256" class="st286" width="7" height="52.7"/>
				</g>
			</g>
			<g>
				<path class="st53" d="M448.1,174.3c-0.2,0.2-0.3,0.4-0.5,0.5l0,0c-0.2,0.2-0.3,0.3-0.5,0.5c-4.5,3.9-19.4-3.1-33.8-16
					c-14.4-12.9-23-26.9-19.7-31.8c0.1-0.2,0.3-0.3,0.4-0.5l0,0c0.1-0.2,0.3-0.4,0.5-0.5c13.2-14.8,35.9-16,50.7-2.8
					C460.1,136.8,461.3,159.5,448.1,174.3z"/>
				<path class="st287" d="M447.6,174.8L447.6,174.8c-0.1,0.1-0.1,0.2-0.2,0.2c-0.1,0.1-0.2,0.2-0.3,0.3c-4.5,3.9-19.4-3.1-33.8-16
					c-14.4-12.9-23-26.9-19.7-31.8c0.1-0.1,0.2-0.2,0.3-0.4c0-0.1,0.1-0.1,0.2-0.2l0,0c3.1-2.9,11.4-0.3,21.1,6
					c4.1,2.7,8.5,6,12.9,9.9c3.4,3.1,6.5,6.2,9.2,9.2C446,162,450.4,171.1,447.6,174.8z"/>
				<path class="st288" d="M437.2,152c-2.5,2.1-5.8,3.3-9.4,3.3c-8.2,0-14.8-6.6-14.8-14.8c0-2.8,0.8-5.4,2.1-7.7
					c4.1,2.7,8.5,6,12.9,9.9C431.5,145.9,434.6,149,437.2,152z"/>
			</g>
		</g>
		<g>
			<polygon class="st289" points="438.3,299.8 300,299.8 309.3,204.7 447.6,204.7 			"/>
			<polygon class="st286" points="443.3,299.8 305,299.8 314.3,204.7 452.6,204.7 			"/>
			<polygon class="st289" points="382.1,314.2 357.5,314.2 365.5,259.4 390.1,259.4 			"/>
			<rect x="343.1" y="312.6" class="st289" width="50.4" height="3.9"/>
		</g>
		<circle class="st52" cx="566.1" cy="69.4" r="1.1"/>
		<circle class="st52" cx="504.5" cy="71.5" r="1.1"/>
		<circle class="st52" cx="525.3" cy="99.1" r="1.1"/>
		<circle class="st52" cx="584" cy="50.4" r="1.1"/>
		<circle class="st52" cx="620.1" cy="86.4" r="1.1"/>
		<circle class="st52" cx="592.5" cy="155.4" r="1.1"/>
		<circle class="st52" cx="572.3" cy="185.9" r="1.1"/>
		<circle class="st52" cx="636.5" cy="146.5" r="1.1"/>
		<g>
			<path class="st286" d="M253.8,537.5c0,0-4.5-12.3-13.5-24.8c-2.8-4,7.5-6.3,9.9,0.8c2.4,7.1,8.3,27.1,8.3,27.1L253.8,537.5z"/>
			<path class="st286" d="M308.7,564.8c0,0-13.7-23.5-27.7-17c-6.2,2.9-6,11.3,2.8,17.5c4.9,3.4,24.3,14,24.3,14L308.7,564.8z"/>
			<path class="st290" d="M277.9,504.1c0,0-6.3,16.8-4.9,23c1.3,6.2-1.8,17.1,0.7,22.5c2.5,5.4-2.7,10-7,12
				c-1.7,0.8-7.4-13.7-8.5-18.1c-1.1-4.4-4.7-13.5-8.4-20.6c-3.7-7.1-0.6-12.7,4.7-15.3s12.7-16.8,12.7-16.8L277.9,504.1z"/>
			<path class="st286" d="M248.6,165.2c-6.4-7.8-18.3-9.9-18.3-9.9c-23.4-19.6-43.6,8.3-47.7,18.6c-4,10.2-6.4,27.7-23.3,35.9
				c-30,14.7,2.6,39.8,2.6,39.8c13.6-30.1,77.1,23.6,74.2,25.9C295.5,301.8,263.2,182.9,248.6,165.2z"/>
			<path class="st291" d="M195.1,255.3c0,0,11,19.9,26.5,36.3c8.2,8.7,17.6,16.5,27.3,19.8c4.7,1.7,9.5,2.3,14.2,1.4
				c3-0.5,1.7-18.4-2.5-31.9c-5.5-17.9-22.8-62.2-22.8-62.2l-9.9,4.2c0,0,13.7,55.9,12.1,56.1l-14.5-36.6L195.1,255.3z"/>
			<path class="st113" d="M174,345.8c0,0,106,6.3,120.4,16c23.9,16.3-10.4,149.9-10.4,149.9s-28.4,0.9-30.7-6.6
				c0,0,5.1-69.8,0.6-81.9c-4.5-12.1-1.7-28.8-1.7-28.8s-55.6,8.5-73.3,4.3C161.2,394.6,174,345.8,174,345.8z"/>
			<path class="st290" d="M296.6,530.1c0,0,6,16.8,11.1,20.7c5,3.9,11.2,14.5,16.6,17s6.2,3.8,4.2,8.1c-0.8,1.6-17.4,4.4-21.1,1.8
				c-3.7-2.7-4-8-20.1-15c-7.3-3.2-8.7-9.4-6.3-14.8c2.4-5.4-1.1-21.1-1.1-21.1L296.6,530.1z"/>
			<path class="st53" d="M111.7,341.9c0,0,146,26.9,156,38.5c10.1,11.6,34.4,156.3,34.4,156.3s-11.6,6.5-22.2,0.5
				c0,0-25.2-52.4-34.3-71.3c-13.9-28.5-8-44.2-10.2-44.7c-2.2-0.5-92.3-9.2-118.2-26.3C101.9,384.9,111.7,341.9,111.7,341.9z"/>
			<path class="st287" d="M225.7,295.7c-4.5,4.6-2.3,6.7-2.3,8.7c0,7.5-1.1,9.2-6.1,11.9c-6.1,3.2-13.3,4.9-14.9,9.8c0,0,0,0,0,0
				c-0.3,1-0.4,2.2-0.2,3.5c3.7,25.4-20,38.7-33,44.6c-8,3.7-22.9,7.8-36.3,9.2c-15,1.6-28.2,0-28.2-9.2
				c-0.2-79.6,30-124.3,52.1-141c7.7-5.8,30.9-12.2,45.4-5.7c6.9,3.1,17.3,7.1,23.5,14.9c6.7,8.4,14.5,36.6,14.5,36.6
				C237.5,293.9,225.7,295.7,225.7,295.7z"/>
			<path class="st292" d="M159.4,261.5c0.1,0.6-2.1,20.6,11.2,40.5c4.8,7.3-16.5,4.3-2.1,19.9c1.6-4.9,42.7-2.4,48.8-5.6l-27.3-23.8
				L159.4,261.5z"/>
			<g>
				<path class="st291" d="M237.1,223.4c0,0,7.1-8.5,8.3-11c1.2-2.6-1.1-13.6-4-13.5c-1.8,0-4.1,6.7-6.1,9.2c-2,2.4-10.7,5.9-7,16.1
					C228.8,225.2,237.1,223.4,237.1,223.4z"/>
			</g>
			<g>
				<path class="st290" d="M219,240.3c2,3-0.4,11.4-11.8,8.8c-7.5-1.7-22-13.8-19.4-20c1.2-2.9,8.4-9.8,12.9-27.7l1.3,0.6l21.9,10.4
					c0,0-2.4,7.1-4.1,13.9C218.3,232.1,218.2,239,219,240.3z"/>
				<path class="st293" d="M223.9,212.4c0,0-2.4,7.1-4.1,13.9c-12.8-3.6-16.6-17.1-17.7-24.3L223.9,212.4z"/>
				<path class="st290" d="M236.4,216.4c0,0-30.6,7.1-34.8-12c-4.1-19.1-10.9-31.1,8.5-36.5c19.4-5.3,24.8,1.1,27.7,7.2
					C240.8,181.1,244.2,214,236.4,216.4z"/>
				<path class="st286" d="M224,164.4c0,0-0.2,22-16.4,32.7c-9.5,6.3-9.9,12.7-9.9,12.7s-5.6-18.9-6.5-33
					C191.2,176.7,215.4,155,224,164.4z"/>
				<path class="st286" d="M222.1,168.3c0,0,9.1,3,13.1,6.3c6,4.9,7.5,21,6.8,25c0,0,1.6-27.9-7.4-35
					C225.1,157,222.1,168.3,222.1,168.3z"/>
			</g>
			<path class="st290" d="M159.3,261.5c3.1,7.4,6.7,14.4,10.6,20.8c14.6,24.2,32.5,38.8,39,32c1.8-1.9,6.3-4.6,1.6-14.7
				c-3.6-7.8-8.1-17.6-12.6-27.2c-9.1-19.8-17.9-39-17.9-39C177.2,233.2,147.9,234.2,159.3,261.5z"/>
			<path class="st290" d="M189.9,292.5c1-0.6,56.1,12.8,73.2,17c3.1,0.8,5,1.2,5,1.2v6.4c0,0-57,2.7-65.9-1.4
				c-8.9-4.1-17.4-13.6-17.4-13.6L189.9,292.5z"/>
			<path class="st287" d="M159.3,261.5c3.1,7.4,6.7,14.4,10.6,20.8c11.9-1.5,22.9-7.1,28-10c-9.1-19.8-17.9-39-17.9-39
				C177.2,233.2,147.9,234.2,159.3,261.5z"/>
			<path class="st290" d="M263.1,309.4c0,0,18.2-5.2,23.2-3.8c3.6,1,8.1,6.3,10.5,9.3c0.7,0.9,0.1,2.2-1.1,2.2c-3,0-8-0.2-10.5-1.6
				c-2.4-1.3-6,1.5-10.1,1.6c-3.1,0-7.1,0-7.1,0L263.1,309.4z"/>
			<path class="st286" d="M298.8,570.4c0,0,8.6-11.6,19.5-13.8c0,0,17.8,8.2,19.4,22.7h-29.6L298.8,570.4z"/>
			<path class="st286" d="M253.8,537.5c1-0.1,16.1-2.9,19,2.3c3.4,6.1,3.3,20.6-4.8,24.6c-1.9,0.9-4.1,0-4.8-1.9L253.8,537.5z"/>
			<path class="st292" d="M169.1,374.2c-8,3.7-22.9,7.8-36.3,9.2c3.3-0.6,54.1-20.3,41.2-37.6c-10.7-14.3-14.9-22.6-1.7-24.8
				c4.8-0.8,24.4,4.1,30,5c-0.3,1-0.4,2.2-0.2,3.5C205.8,355,182,368.3,169.1,374.2z"/>
		</g>
		<path class="st169" d="M293.4,316.5c0,0-4.8-6.1-12.5-5.2c-7.7,0.9-12.8,5.8-12.8,5.8L293.4,316.5z"/>
		<g>
			<path class="st286" d="M540.5,331.5H162.8c-3.1,0-5.7-2.5-5.7-5.7v-3.7c0-3.1,2.5-5.7,5.7-5.7h377.7c3.1,0,5.7,2.5,5.7,5.7v3.7
				C546.2,329,543.6,331.5,540.5,331.5z"/>
			<g>
				<path class="st286" d="M161,579.3L161,579.3c-2.1-0.3-3.1-2.3-2.9-4.3l32.4-251l8.9,0.5L164,576.6
					C163.7,578.2,162.6,579.5,161,579.3z"/>
			</g>
			<g>
				<path class="st286" d="M537.8,579.3L537.8,579.3c2.1-0.3,3.1-2.3,2.9-4.3l-32.4-251l-8.9,0.5l35.5,252.1
					C535.1,578.2,536.2,579.5,537.8,579.3z"/>
			</g>
		</g>
		<path class="st290" d="M287.7,306.2l11.5,3.4c0,0-0.7,1.2-2.8,1c-2.2-0.2-7-0.9-7-0.9L287.7,306.2z"/>
		<g>
			<g>
				<path class="st294" d="M386.6,572l104.6-3.9c0.7-1.1,1.3-2.2,1.7-3.2l0,0c0.4-0.8,0.7-1.6,1-2.3c3.9-11-2.4-19.1-11.2-22.2
					c-10.2-3.5-18.2,4-18.2,4s-19.1-16.7-53.6-14.2c-20.1,1.4-29.9,15.6-34.6,27.2C373.3,564.5,378.8,572.3,386.6,572z"/>
				<path class="st294" d="M479.1,539.6c0,0,5-6.5,11.8-6.2c0,0,2.5,5.6-2.9,12.9C482.6,553.7,479.1,539.6,479.1,539.6z"/>
				<path class="st294" d="M488.3,552.2c0,0,6.9-4.5,13.2-1.8c0,0,0.5,6.1-7.1,11.2C486.9,566.6,488.3,552.2,488.3,552.2z"/>
				<path class="st295" d="M389.7,562c0,0,10.2,4,22,0.8c12.5-3.4,44.3-6.7,49.2,6.4l-71.8,2.9L389.7,562z"/>
				<path class="st294" d="M484,564.3l13.2,0.8c0,0,5.1-1.8,6.6-1.5c1.5,0.3,2.7,3.9,2.7,3.9l-20.7,0.8L484,564.3z"/>
				<path class="st294" d="M386.5,560.1c0,0,9,6.9,21.6,4.2c12.5-2.7,38.6-3,42.3-0.2c0,0,3.6,1.8,1.2,4.5
					c-2.3,2.7-21.6,1.8-29.7,2.3c-5.9,0.4-36,3-40.5,0.1C377,568,386.5,560.1,386.5,560.1z"/>
				<path class="st295" d="M483.1,556.5c0,0-2.9-3.2-3.4-2.5c-0.5,0.7-0.6,2.8,0.1,3.3C480.5,557.7,483.8,558.2,483.1,556.5z"/>
				<path class="st295" d="M479.6,563.1c0.5,0.5,13.3,1.8,13.3,1.8l0,0c0.4-0.8,0.7-1.6,1-2.3C491.3,565,479.1,562.6,479.6,563.1z"
					/>
				<path class="st295" d="M487,543.1c0,0,3.1-1.1,2.6-7.1c0,0-5.4,1-7,2.9c-1.6,1.8,0,1.3,1.7,2.1
					C485.9,541.9,486.3,544.2,487,543.1z"/>
				<path class="st295" d="M494.8,557.4c0,0,3.3,0.1,5-5.6c0,0-5.4-1-7.6,0.1c-2.2,1.1-0.4,1.2,0.8,2.6
					C494.3,555.9,493.8,558.2,494.8,557.4z"/>
				<path class="st52" d="M478,562.4c0,0-4.9-0.6-6.6-2.6c0,0,2,0.5,2.8,0.2c0,0-3.3-0.8-4-1.9c-0.8-1.1-1.3-2.1-2.3-1.1
					c-1,1-2.4,3.8-1.2,4.8C468,562.7,478,562.4,478,562.4z"/>
			</g>
			<path class="st53" d="M363.7,579.3c0,0,0.9-13.9,19.1-15.5c18.2-1.6,45.4,4.1,59.7,3.5c14.3-0.6,57.1-1.8,63.9,0.2
				c6.8,2,14.4,4.1,13.5,11.9L363.7,579.3z"/>
		</g>
		<path class="st296" d="M581.6,262.6c0,0-0.9-18,15.2-29.4c16-11.3,24.3-6.6,33.8-19c9.5-12.5,22-16.6,30.4-9.5v57.7L581.6,262.6z"
			/>
		<path class="st296" d="M504.5,31.9c6.9,13.1,2,22.6-16.4,30.3c-18.4,7.7-19,6.5-29.6,22C447.8,99.7,419.6,98,419.6,98V6.9
			c0,0,0,0,0,0c30.7-7.5,63.7-8.8,96.4-4.4C522.8,31.5,497.7,19.2,504.5,31.9z"/>
	</g>
</g>
</svg>
