<?xml version="1.0" encoding="utf-8"?>
<!-- Generator: Adobe Illustrator 19.2.1, SVG Export Plug-In . SVG Version: 6.00 Build 0)  -->
<svg version="1.1" xmlns="http://www.w3.org/2000/svg" xmlns:xlink="http://www.w3.org/1999/xlink" x="0px" y="0px"
	 viewBox="0 0 414 445.5" style="enable-background:new 0 0 414 445.5;" xml:space="preserve">
<style type="text/css">
	.st0{fill:#07182B;}
	.st1{fill:url(#SVGID_1_);}
	.st2{fill:url(#SVGID_2_);}
	.st3{fill:url(#SVGID_3_);}
	.st4{fill:url(#SVGID_4_);}
	.st5{fill:url(#SVGID_5_);}
	.st6{fill:url(#SVGID_6_);}
	.st7{display:none;}
	.st8{display:inline;}
	.st9{fill:#142436;}
	.st10{fill:#1F2F40;}
	.st11{fill:#2B3A4A;}
	.st12{fill:#364353;}
	.st13{fill:#495562;}
	.st14{fill:#FF9700;}
	.st15{opacity:0.41;}
	.st16{fill:url(#SVGID_7_);}
	.st17{filter:url(#Adobe_OpacityMaskFilter);}
	.st18{fill:url(#SVGID_9_);}
	.st19{opacity:0.33;mask:url(#SVGID_8_);fill:url(#SVGID_10_);}
	.st20{fill:none;stroke:#FFFFFF;stroke-width:2;stroke-miterlimit:10;}
	.st21{fill:url(#SVGID_11_);}
	.st22{fill:url(#SVGID_12_);}
	.st23{fill:url(#SVGID_13_);}
	.st24{fill:url(#SVGID_14_);}
	.st25{fill:url(#SVGID_15_);}
	.st26{fill:url(#SVGID_16_);}
	.st27{fill:url(#SVGID_17_);}
	.st28{fill:url(#SVGID_18_);}
	.st29{fill:url(#SVGID_19_);}
	.st30{fill:url(#SVGID_20_);}
	.st31{fill:url(#SVGID_21_);}
	.st32{fill:url(#SVGID_22_);}
	.st33{fill:url(#SVGID_23_);}
	.st34{fill:url(#SVGID_24_);}
	.st35{fill:none;stroke:#D3FF4A;stroke-width:4;stroke-linecap:round;stroke-miterlimit:10;}
	.st36{fill:#D3FF4A;stroke:#D3FF4A;stroke-width:4;stroke-linecap:round;stroke-miterlimit:10;}
	.st37{opacity:0.62;fill:url(#SVGID_31_);}
	.st38{fill:#262626;}
	.st39{fill:#383838;}
	.st40{fill:url(#SVGID_34_);}
	.st41{fill:url(#SVGID_35_);}
	.st42{fill:url(#SVGID_36_);}
	.st43{fill:url(#SVGID_37_);}
	.st44{fill:url(#SVGID_38_);}
	.st45{fill:url(#SVGID_39_);}
	.st46{fill:#231F20;}
	.st47{fill:url(#SVGID_40_);}
	.st48{opacity:0.19;fill:url(#SVGID_43_);}
	.st49{opacity:0.19;fill:url(#SVGID_48_);}
	.st50{fill:#FFB450;}
	.st51{fill:none;}
	.st52{fill:#FFFFFF;}
	.st53{fill:#FF9200;}
	.st54{opacity:0.7;fill:#FFFFFF;enable-background:new    ;}
	.st55{fill:#263238;}
	.st56{opacity:0.2;fill:#FFFFFF;enable-background:new    ;}
	.st57{fill:none;stroke:#263238;stroke-linecap:round;stroke-linejoin:round;}
	.st58{opacity:0.44;fill:#FFFFFF;enable-background:new    ;}
	.st59{fill:none;stroke:#FFFFFF;stroke-miterlimit:10;}
	.st60{fill:none;stroke:#263238;stroke-width:0.5;stroke-miterlimit:10;}
	.st61{fill:#FFFFFF;stroke:#263238;stroke-width:0.5;stroke-miterlimit:10;}
	.st62{opacity:0.2;enable-background:new    ;}
	.st63{fill:#263238;stroke:#263238;stroke-linecap:round;stroke-linejoin:round;}
	.st64{fill:#FFFFFF;stroke:#263238;stroke-linecap:round;stroke-linejoin:round;}
	.st65{fill:#808080;stroke:#263238;stroke-linecap:round;stroke-linejoin:round;}
	.st66{fill:#FF9200;stroke:#263238;stroke-linecap:round;stroke-linejoin:round;}
	.st67{clip-path:url(#SVGID_54_);}
	.st68{clip-path:url(#SVGID_56_);}
	.st69{opacity:0.5;fill:#FFFFFF;enable-background:new    ;}
	.st70{clip-path:url(#SVGID_58_);}
	.st71{clip-path:url(#SVGID_60_);}
	.st72{clip-path:url(#SVGID_62_);}
	.st73{clip-path:url(#SVGID_64_);}
	.st74{fill:#575757;}
	.st75{fill:none;stroke:#575757;stroke-miterlimit:10;}
	.st76{fill:none;stroke:#263238;stroke-miterlimit:10;}
	.st77{stroke:#263238;stroke-linecap:round;stroke-linejoin:round;}
	.st78{fill:#282828;}
	.st79{clip-path:url(#SVGID_66_);}
	.st80{fill:#D3FF4A;}
	.st81{clip-path:url(#SVGID_68_);}
	.st82{clip-path:url(#SVGID_70_);}
	.st83{opacity:0.48;fill:#282828;enable-background:new    ;}
	.st84{clip-path:url(#SVGID_72_);}
	.st85{clip-path:url(#SVGID_74_);}
	.st86{fill:#425860;}
	.st87{fill:#455A64;}
	.st88{fill:#F5F5F5;}
	.st89{opacity:0.6;fill:#FFFFFF;}
	.st90{opacity:0.6;}
	.st91{opacity:0.8;fill:#FFFFFF;}
	.st92{fill:#37474F;}
	.st93{fill:#FAFAFA;}
	.st94{fill:#5B5B5B;}
	.st95{fill:none;stroke:#E0E0E0;stroke-width:0.4968;stroke-linecap:round;stroke-linejoin:round;stroke-miterlimit:10;}
	.st96{fill:#FAFAFA;stroke:#E0E0E0;stroke-width:0.9175;stroke-miterlimit:10;}
	.st97{fill:#545454;stroke:#E0E0E0;stroke-width:0.9175;stroke-miterlimit:10;}
	.st98{opacity:0.1;}
	.st99{opacity:0.2;}
	.st100{opacity:0.5;fill:#FFFFFF;}
	.st101{opacity:0.4;}
	.st102{fill:#F0F0F0;}
	.st103{opacity:0.5;}
	.st104{fill:#D3FF4A;stroke:#000000;stroke-miterlimit:10;}
	.st105{fill:none;stroke:#D3FF4A;stroke-width:10;stroke-linecap:round;stroke-miterlimit:10;}
	.st106{fill:#FFFFFA;}
	.st107{fill:#FEFEFE;}
	.st108{fill:none;stroke:#D3FF4A;stroke-width:8;stroke-linecap:round;stroke-miterlimit:10;}
	.st109{fill:none;stroke:#FFFFFA;stroke-width:8;stroke-linecap:round;stroke-linejoin:round;stroke-miterlimit:10;}
	.st110{fill:#1A2935;}
	.st111{fill:none;stroke:#D3FF4A;stroke-width:6;stroke-linecap:round;stroke-miterlimit:10;}
	.st112{fill:#9DB537;}
	.st113{fill:#CC7500;}
	.st114{fill:none;stroke:#D3FF00;stroke-width:5;stroke-miterlimit:10;stroke-dasharray:30,30;}
	.st115{fill:none;stroke:#FF9200;stroke-width:5;stroke-miterlimit:10;stroke-dasharray:30,30;}
	.st116{fill:#D3FF00;}
	.st117{fill:#F9FFD9;}
	.st118{fill:#949494;}
	.st119{fill:#FFDEB2;}
	.st120{clip-path:url(#SVGID_76_);}
	.st121{clip-path:url(#SVGID_78_);}
	.st122{clip-path:url(#SVGID_80_);}
	.st123{clip-path:url(#SVGID_82_);}
	.st124{clip-path:url(#SVGID_84_);}
	.st125{clip-path:url(#SVGID_86_);}
	.st126{clip-path:url(#SVGID_88_);}
	.st127{clip-path:url(#SVGID_90_);}
	.st128{opacity:0.2;clip-path:url(#SVGID_92_);enable-background:new    ;}
	.st129{opacity:0.48;enable-background:new    ;}
	.st130{clip-path:url(#SVGID_94_);}
	.st131{clip-path:url(#SVGID_96_);}
	.st132{clip-path:url(#SVGID_98_);}
	.st133{clip-path:url(#SVGID_100_);}
	.st134{clip-path:url(#SVGID_102_);}
	.st135{clip-path:url(#SVGID_104_);}
	.st136{clip-path:url(#SVGID_106_);}
	.st137{clip-path:url(#SVGID_108_);}
	.st138{clip-path:url(#SVGID_110_);}
	.st139{clip-path:url(#SVGID_112_);}
	.st140{opacity:0.2;clip-path:url(#SVGID_114_);enable-background:new    ;}
	.st141{clip-path:url(#SVGID_116_);}
	.st142{clip-path:url(#SVGID_118_);}
	.st143{opacity:0.44;enable-background:new    ;}
	.st144{fill:#808080;}
	.st145{clip-path:url(#SVGID_120_);}
	.st146{clip-path:url(#SVGID_122_);}
	.st147{opacity:0.5;enable-background:new    ;}
	.st148{clip-path:url(#SVGID_124_);}
	.st149{clip-path:url(#SVGID_126_);}
	.st150{clip-path:url(#SVGID_128_);}
	.st151{clip-path:url(#SVGID_130_);}
	.st152{opacity:0.7;enable-background:new    ;}
	.st153{clip-path:url(#SVGID_132_);}
	.st154{clip-path:url(#SVGID_134_);}
	.st155{opacity:0.2;clip-path:url(#SVGID_136_);enable-background:new    ;}
	.st156{clip-path:url(#SVGID_138_);}
	.st157{clip-path:url(#SVGID_140_);}
	.st158{fill:#E0E0E0;}
	.st159{fill:#545454;}
	.st160{opacity:0.8;}
	.st161{fill:#FD5D5C;}
	.st162{opacity:0.4;fill:#1B1C61;}
	.st163{fill:#6F57F2;stroke:#263238;stroke-miterlimit:10;}
	.st164{fill:#6F57F2;}
	.st165{fill:#1E2E91;}
	.st166{fill:#6F57F3;}
	.st167{fill:#90AFF4;}
	.st168{fill:#6181D8;}
	.st169{fill:#F3F8FB;}
	.st170{fill:#D0E9F6;}
	.st171{fill:#8FC9F4;}
	.st172{enable-background:new    ;}
	.st173{clip-path:url(#SVGID_142_);}
	.st174{clip-path:url(#SVGID_144_);}
	.st175{clip-path:url(#SVGID_146_);}
	.st176{clip-path:url(#SVGID_148_);}
	.st177{clip-path:url(#SVGID_150_);}
	.st178{clip-path:url(#SVGID_152_);}
	.st179{fill:#8DB1F1;}
	.st180{fill:#AFF4E6;}
	.st181{opacity:0.35;}
	.st182{clip-path:url(#SVGID_154_);}
	.st183{clip-path:url(#SVGID_156_);}
	.st184{clip-path:url(#SVGID_158_);}
	.st185{clip-path:url(#SVGID_160_);enable-background:new    ;}
	.st186{fill:#80809B;}
	.st187{fill:#8484A1;}
	.st188{fill:#8888A6;}
	.st189{fill:#8C8CAB;}
	.st190{fill:#9090B0;}
	.st191{fill:#9494B5;}
	.st192{clip-path:url(#SVGID_162_);enable-background:new    ;}
	.st193{fill:#6B6B82;}
	.st194{fill:#707087;}
	.st195{fill:#74748C;}
	.st196{fill:#787891;}
	.st197{fill:#7D7D96;}
	.st198{fill:#6D6D84;}
	.st199{fill:#9F9FC1;}
	.st200{fill:#878787;}
	.st201{clip-path:url(#SVGID_164_);enable-background:new    ;}
	.st202{fill:#858585;}
	.st203{clip-path:url(#SVGID_166_);enable-background:new    ;}
	.st204{clip-path:url(#SVGID_168_);enable-background:new    ;}
	.st205{clip-path:url(#SVGID_170_);enable-background:new    ;}
	.st206{clip-path:url(#SVGID_172_);enable-background:new    ;}
	.st207{clip-path:url(#SVGID_174_);enable-background:new    ;}
	.st208{clip-path:url(#SVGID_176_);enable-background:new    ;}
	.st209{fill:#999999;}
	.st210{fill:#9E9E9E;}
	.st211{fill:#A4A4A4;}
	.st212{fill:#A9A9A9;}
	.st213{fill:#AEAEAE;}
	.st214{fill:#B3B3B3;}
	.st215{fill:#B8B8B8;}
	.st216{fill:#C4C4C4;}
	.st217{clip-path:url(#SVGID_178_);enable-background:new    ;}
	.st218{fill:#8F8F8F;}
	.st219{fill:#8A8A8A;}
	.st220{clip-path:url(#SVGID_180_);}
	.st221{fill:none;stroke:#8DB1F1;stroke-width:3;stroke-miterlimit:10;}
	.st222{fill:#609EFD;}
	.st223{clip-path:url(#SVGID_182_);}
	.st224{clip-path:url(#SVGID_184_);}
	.st225{clip-path:url(#SVGID_186_);}
	.st226{clip-path:url(#SVGID_188_);}
	.st227{clip-path:url(#SVGID_190_);}
	.st228{clip-path:url(#SVGID_192_);}
	.st229{clip-path:url(#SVGID_194_);}
	.st230{clip-path:url(#SVGID_196_);}
	.st231{clip-path:url(#SVGID_198_);}
	.st232{clip-path:url(#SVGID_200_);enable-background:new    ;}
	.st233{clip-path:url(#SVGID_202_);enable-background:new    ;}
	.st234{clip-path:url(#SVGID_204_);enable-background:new    ;}
	.st235{clip-path:url(#SVGID_206_);enable-background:new    ;}
	.st236{clip-path:url(#SVGID_208_);enable-background:new    ;}
	.st237{clip-path:url(#SVGID_210_);enable-background:new    ;}
	.st238{clip-path:url(#SVGID_212_);enable-background:new    ;}
	.st239{clip-path:url(#SVGID_214_);enable-background:new    ;}
	.st240{clip-path:url(#SVGID_216_);enable-background:new    ;}
	.st241{clip-path:url(#SVGID_218_);enable-background:new    ;}
	.st242{clip-path:url(#SVGID_220_);}
	.st243{clip-path:url(#SVGID_222_);}
	.st244{clip-path:url(#SVGID_224_);}
	.st245{clip-path:url(#SVGID_226_);}
	.st246{clip-path:url(#SVGID_228_);}
	.st247{clip-path:url(#SVGID_230_);}
	.st248{clip-path:url(#SVGID_232_);}
	.st249{clip-path:url(#SVGID_234_);}
	.st250{clip-path:url(#SVGID_236_);}
	.st251{clip-path:url(#SVGID_238_);}
	.st252{clip-path:url(#SVGID_240_);enable-background:new    ;}
	.st253{clip-path:url(#SVGID_242_);enable-background:new    ;}
	.st254{clip-path:url(#SVGID_244_);enable-background:new    ;}
	.st255{clip-path:url(#SVGID_246_);enable-background:new    ;}
	.st256{clip-path:url(#SVGID_248_);enable-background:new    ;}
	.st257{clip-path:url(#SVGID_250_);enable-background:new    ;}
	.st258{clip-path:url(#SVGID_252_);enable-background:new    ;}
	.st259{clip-path:url(#SVGID_254_);enable-background:new    ;}
	.st260{clip-path:url(#SVGID_256_);enable-background:new    ;}
	.st261{clip-path:url(#SVGID_258_);enable-background:new    ;}
	.st262{clip-path:url(#SVGID_260_);}
	.st263{opacity:0.9;fill:#25468F;}
	.st264{opacity:0.7;fill:#FFEBD9;}
	.st265{fill:#0B3563;}
	.st266{fill:#FDDBBA;}
	.st267{fill:#FFEBD9;}
	.st268{fill:#214D9A;}
	.st269{fill:#FFAE73;}
	.st270{fill:#F18D4D;}
	.st271{fill:#F0C19C;}
	.st272{fill:#FF9D5D;}
	.st273{fill:#25468F;}
	.st274{fill:#2D3554;}
	.st275{opacity:0.5;fill:#2D3554;}
	.st276{opacity:0.92;fill:#07182B;}
</style>
<g id="Layer_2">
</g>
<g id="Layer_1" class="st7">
</g>
<g id="Layer_4">
</g>
<g id="Layer_3">
</g>
<g id="Layer_5">
	<g>
		<g id="freepik--background-simple--inject-2_7_">
			<path class="st54" d="M326.8,46.5c-71.7-60.8-177.8-62.2-229.5-3s-42.9,81.6-53.9,159.4S-18,312.7,6.8,372.2
				s91.2,86.3,162.1,63.1c70.9-23.2,159-49.4,209.6-117s32.4-145.1,32.4-145.1S398.5,107.3,326.8,46.5z"/>
		</g>
		<g id="freepik--Table--inject-2_7_">
			<polygon class="st62" points="145.2,262.6 52.5,444.3 131.8,444.3 262.1,325.7 308.9,444.3 311.7,444.8 267.2,322.9 298.7,296.4 
				333.1,445 335.2,445 304.3,293.7 336.7,265.9 			"/>
			<polygon class="st63" points="329.9,263.3 338.3,263.3 335.2,445 333.1,445 			"/>
			<polygon class="st63" points="149.6,263.3 158,263.3 154.9,445 152.8,445 			"/>
			<rect x="140" y="260.5" class="st64" width="201.5" height="4.7"/>
		</g>
		<g id="freepik--Character--inject-2_7_">
			<g>
				<path class="st63" d="M160.4,260.4c-2.3-0.1-4.1-2.1-4-4.4s2.1-4.1,4.4-4h33c0.2,0,0.3,0,0.5,0c2.3,0.1,4.1,2.1,4,4.4
					c-0.1,2.3-2.1,4.1-4.4,4h-33C160.7,260.4,160.6,260.4,160.4,260.4z"/>
				<polygon class="st63" points="185.1,194.5 286.7,194.5 276.7,260.5 175.1,260.5 				"/>
				<polygon class="st65" points="189.2,197.3 277.2,197.3 268.3,253.6 181.5,253.6 				"/>
			</g>
			<path class="st78" d="M98,277.4c-7.9,4.7-12.2,17.8-4,28.5c8.2,10.7,34.1,21.1,42.7,26.6s15.8,16.2,22.6,22.9
				c6.8,6.8,7.3,17,17,35s20.4,25.6,29.3,33.3s17,18.9,19.6,20.1c2.7,1.2,4.7-0.7,6.3-2.2c1.6-1.6,8.5-3.6,13.7-5
				c5.3-1.3,12.7-9,12.5-11.8s-4.6-0.9-15.2,0.1c-10.7,0.9-19.7,0.7-19.7,0.7s-3.7-4.1-9.2-11.8c-5.5-7.7-16.4-32.9-22.4-46.6
				s-12.4-29.4-21.5-44.9c-6.4-10.8-14.4-20.5-23.7-28.9c-2.9-3-5.6-6.2-8-9.7C131.9,271,106,272.7,98,277.4z"/>
			<path class="st64" d="M192.3,412.1c4.6,4.6,9.2,8.2,13.3,11.8c9,7.7,17,18.9,19.6,20.1c2.7,1.2,4.7-0.7,6.3-2.2
				c1.6-1.6,8.5-3.6,13.7-5c5.3-1.3,12.7-9,12.5-11.8c-0.1-2.8-4.6-0.9-15.2,0.1c-10.7,0.9-19.7,0.7-19.7,0.7s-3.6-4.1-9.2-11.8
				c-2.4-3.6-4.5-7.4-6.4-11.4C203.4,407.3,198.1,410.6,192.3,412.1z"/>
			<path class="st77" d="M231.5,441.7c1.6-1.6,8.5-3.6,13.7-5c5.3-1.3,12.7-9,12.5-11.8c-0.1-2.8-4.6-0.9-15.2,0.1l-1.8,0.2l3.6,5.3
				c-2.7,1.7-5.6,3-8.6,3.9c-3.3,1-7,4.6-14.3,6.1c1.1,1.4,2.4,2.5,3.8,3.5C227.9,445.2,229.9,443.3,231.5,441.7z"/>
			<path class="st78" d="M188,317.9c-9.2,5.6-21.6,21.5-26.6,32.6c-4.9,11.1-20.8,35.1-25.1,38.8c-4.3,3.6-11.4,7.1-10.1,9.9
				c2.6,5.6,7.9,10.1,16.1,17c8.2,6.9,16.3,7.3,19.7,6.2c3.4-1.1,0.6-3.2-5.8-9c-6.4-5.8-11.7-12.4-10.3-14.4
				c10.9-15.7,33-35.4,39.9-40.5s16.3-14.1,20.6-22.7c2.7-5.6,4.8-11.5,6.2-17.6"/>
			<path class="st64" d="M142.3,416.1c8.2,6.9,16.3,7.3,19.7,6.2s0.6-3.2-5.8-9c-6.4-5.8-11.7-12.4-10.3-14.4
				c6.8-9.7,17.9-21,26.9-29.4l-14.5-12.9c-6.6,12.1-18.4,29.6-22,32.6c-4.3,3.6-11.4,7.1-10.1,9.9
				C128.8,404.7,134.1,409.2,142.3,416.1z"/>
			<path class="st77" d="M126.3,399.1c2.6,5.6,7.9,10.1,16.1,17c8.2,6.9,16.3,7.3,19.7,6.2c3.4-1.1,0.6-3.2-5.8-9
				c-0.8-0.7-1.5-1.4-2.3-2.1c-0.6,1.2-1.3,2.4-2.3,3.4c-1.5,1.5-12.6-7.3-16.7-14.1c-1.7-2.9-3.2-5.3-4.4-7
				C127.8,395.5,125.5,397.5,126.3,399.1z"/>
			<rect x="72.5" y="413.1" class="st64" width="72.9" height="3.4"/>
			<path class="st64" d="M130.5,321.1l19,122.2c0.1,0.5,0.5,0.8,1,0.8l0,0c0,0,0.1,0,0.1,0c0.5-0.1,0.9-0.5,0.9-1.1l-12.7-121.9
				H130.5z"/>
			<path class="st64" d="M88.5,321.1l-19,122.2c-0.1,0.5-0.5,0.8-1,0.8l0,0c0,0-0.1,0-0.1,0c-0.5-0.1-0.9-0.5-0.9-1.1l12.8-121.9
				H88.5z"/>
			<path class="st64" d="M111.7,321.1l-6.8,122.1c0,0.5-0.4,0.9-1,0.9l0,0c-0.5,0-1-0.4-1-1l0.6-122H111.7z"/>
			<path d="M149.9,308.7v7.7c0,3.3-2.7,6-6,6H76.3c-3.3,0-6-2.7-6-6v-7.7c0-3.3,2.7-6,6-6h67.5C147.2,302.7,149.9,305.4,149.9,308.7
				z"/>
			<g>
				<defs>
					<path id="SVGID_109_" d="M149.9,308.7v7.7c0,3.3-2.7,6-6,6H76.3c-3.3,0-6-2.7-6-6v-7.7c0-3.3,2.7-6,6-6h67.5
						C147.2,302.7,149.9,305.4,149.9,308.7z"/>
				</defs>
				<clipPath id="SVGID_1_">
					<use xlink:href="#SVGID_109_"  style="overflow:visible;"/>
				</clipPath>
				<g style="clip-path:url(#SVGID_1_);">
					<path class="st62" d="M70.2,308.7v7.7c0,3.3,2.7,6.1,6.1,6.1h66.9l3.5-0.8c0.7-0.4,1.3-0.9,1.7-1.5c-12-0.2-44.6-0.6-54.3-0.6
						c-12,0-10.9-4.6-10.9-8.1c0-3.5,60.9-4.6,60.9-4.6l-2-4.1h-66C73,302.7,70.3,305.4,70.2,308.7z"/>
				</g>
			</g>
			<path class="st57" d="M149.9,308.7v7.7c0,3.3-2.7,6-6,6H76.3c-3.3,0-6-2.7-6-6v-7.7c0-3.3,2.7-6,6-6h67.5
				C147.2,302.7,149.9,305.4,149.9,308.7z"/>
			<path class="st78" d="M192.1,325.2c-17.8-1.3-46.3-19.3-46.3-19.3c-6.6,0.7-13.1,1.1-19.7,1.1c-13.3,0.2-31.7-0.7-40.1-3.2
				c-8.4-2.6-9.4-7.9-10.3-18.4c-0.8-10.5-0.6-16.1,1.5-16.7c2.1-0.6,13.3,7.3,31.3,7.9s27.2-9,27.2-9l3.2,3.6c0,0,34.2,8.4,50,19.3
				c29.8,20.6,23.6,30.4,22.1,35.4"/>
			<g>
				<path class="st64" d="M120,242.2c1.2,2,4.8,2,7.8,2.6c3,0.6,43.1,6.1,44.5,6.9s5.2,1.7,8.2,3.8c2.8,1.9,6.4,0.7,7.4-0.5
					c0.7-1.1-4.1-1.8-2.6-2.4c1-0.2,14.2,0.3,14.2,0.3c1.4-0.3,2.3-1.7,2-3.1c-0.3-1.5-13.8-6.2-13.8-6.2s-7.3-2.2-13.7-1.4
					c-6.4,0.8-46.6-12.1-46.6-12.1S118.8,240.3,120,242.2z"/>
			</g>
			<path class="st80" d="M91.8,181.9c-5.8,18.6-4.7,39.4-4.7,46c0,6.7-12.2,38.6-12.2,44.6c0,6,15,12.2,32.4,11.6s28.9-9.4,29.8-17
				c0.9-7.5-2.1-35.8-2.1-35.8c5.7-1.9,10.1-6.2,12.2-11.8c3.9-9.6,1.3-18.7-4.7-27.2c-6-8.6-10.7-21.4-10.7-21.4
				C117.9,157.1,97.5,163.3,91.8,181.9z"/>
			<g>
				<defs>
					<path id="SVGID_111_" d="M91.8,181.9c-5.8,18.6-4.7,39.4-4.7,46c0,6.7-12.2,38.6-12.2,44.6c0,6,15,12.2,32.4,11.6
						s28.9-9.4,29.8-17c0.9-7.5-2.1-35.8-2.1-35.8c5.7-1.9,10.1-6.2,12.2-11.8c3.9-9.6,1.3-18.7-4.7-27.2
						c-6-8.6-10.7-21.4-10.7-21.4C117.9,157.1,97.5,163.3,91.8,181.9z"/>
				</defs>
				<clipPath id="SVGID_2_">
					<use xlink:href="#SVGID_111_"  style="overflow:visible;"/>
				</clipPath>
				<g style="clip-path:url(#SVGID_2_);">
					<path class="st62" d="M87.1,227.9c0,6.7-12.2,38.6-12.2,44.6c0,6,15,12.2,32.4,11.6c5.6-0.2,11.2-1.3,16.4-3.5
						c-6.7-1.1-18.3-0.8-23.7-2.2c-9.4-2.5,19.9-19.9,26.3-30.8c6.5-10.9-11.9,7.5-15.4,7.5c-3.5,0,7.4-12.9,11.4-20.9
						s-11.4,8.4-18.4,10.4c-7,2,16.9-20.9,21.4-25.8c4.5-5-10.4,3-13.9,2c-2.4-0.7,21.7-6.8,37.6-10.5c0-6.2-2.5-12.1-6.5-17.9
						c-6-8.6-10.7-21.4-10.7-21.4c-1.1-1.1-2.3-2.1-3.6-3c-2.7-0.6-13.6-3.2-17.6-4.1c-8.3,1.6-15.6,8-18.7,18
						C86,200.4,87.1,221.2,87.1,227.9z"/>
				</g>
			</g>
			<path class="st57" d="M91.8,181.9c-5.8,18.6-4.7,39.4-4.7,46c0,6.7-12.2,38.6-12.2,44.6c0,6,15,12.2,32.4,11.6s28.9-9.4,29.8-17
				c0.9-7.5-2.1-35.8-2.1-35.8c5.7-1.9,10.1-6.2,12.2-11.8c3.9-9.6,1.3-18.7-4.7-27.2c-6-8.6-10.7-21.4-10.7-21.4
				C117.9,157.1,97.5,163.3,91.8,181.9z"/>
			<path class="st57" d="M90.2,255.6c23-7.3,38.8-32.7,38.8-32.7"/>
			<path class="st57" d="M109,256.8c15.7-9.7,21.8-29.7,21.8-29.7"/>
			<path class="st57" d="M107.5,200.9c5.8,4,20.1,10.2,20.1,10.2"/>
			<path class="st57" d="M115.2,212.6c13.1,1.1,18.2,0,18.2,0"/>
			<path class="st80" d="M114,188.7c-1.1,3,1.1,10.1,4.5,13.9c3.4,3.9,40.7,35.8,42.9,35.4c2.1-0.4,9.2-15.2,9.2-15.2
				s-23.8-36-28.7-41.2c-2.7-2.9-5.7-5.4-9-7.5"/>
			<g>
				<defs>
					<path id="SVGID_113_" d="M114,188.7c-1.1,3,1.1,10.1,4.5,13.9c3.4,3.9,40.7,35.8,42.9,35.4c2.1-0.4,9.2-15.2,9.2-15.2
						s-23.8-36-28.7-41.2c-2.7-2.9-5.7-5.4-9-7.5"/>
				</defs>
				<clipPath id="SVGID_3_">
					<use xlink:href="#SVGID_113_"  style="overflow:visible;"/>
				</clipPath>
				<g style="opacity:0.2;clip-path:url(#SVGID_3_);enable-background:new    ;">
					<path class="st129" d="M161.4,237.9c0.5-0.2,0.8-0.5,1.1-0.9c0.3-2,0.4-3.9,0.4-5.9c0-4-4-4.5-9.9-5.5s-1-3-2.5-10.4
						s-5.6-7.5-15.4-13.4c-9.8-5.9-9.9-16.9-9.9-16.9l-2.7-2.8l-8.5,6.5c-1.1,3,1.1,10.1,4.5,13.9
						C122,206.4,159.3,238.4,161.4,237.9z"/>
				</g>
			</g>
			<path class="st57" d="M114,188.7c-1.1,3,1.1,10.1,4.5,13.9c3.4,3.9,40.7,35.8,42.9,35.4c2.1-0.4,9.2-15.2,9.2-15.2
				s-23.8-36-28.7-41.2c-2.7-2.9-5.7-5.4-9-7.5"/>
			<path class="st52" d="M166.1,123.6c-2.6-2.5-14.4-2.7-22.3,6.1s-13.9,21.9-10.3,26.2c3.6,4.3,10.1,9.9,13.1,10.7s3.9,1.9,5.8-0.9
				c1.9-2.8,8.4-10.7,8.4-10.7s3.4-0.3,4.1-2.1c0.6-1.9-1.5-5.4-1.5-7.9c0-2.6,3-4.5,4.1-6.4c1.1-1.9,0.6-8.1,0.6-8.1
				S168.7,126.2,166.1,123.6z"/>
			<g>
				<defs>
					<path id="SVGID_115_" d="M166.1,123.6c-2.6-2.5-14.4-2.7-22.3,6.1s-13.9,21.9-10.3,26.2c3.6,4.3,10.1,9.9,13.1,10.7
						s3.9,1.9,5.8-0.9c1.9-2.8,8.4-10.7,8.4-10.7s3.4-0.3,4.1-2.1c0.6-1.9-1.5-5.4-1.5-7.9c0-2.6,3-4.5,4.1-6.4
						c1.1-1.9,0.6-8.1,0.6-8.1S168.7,126.2,166.1,123.6z"/>
				</defs>
				<clipPath id="SVGID_4_">
					<use xlink:href="#SVGID_115_"  style="overflow:visible;"/>
				</clipPath>
				<g style="clip-path:url(#SVGID_4_);">
					<path d="M143.8,129.7c-7.9,8.8-13.9,21.9-10.3,26.2c3.4,4,9.2,9.1,12.4,10.5c-0.4-1-0.9-2.1-1.4-3.3c-2.5-7,1-11.4,5.5-19.9
						c3-5.6,2-14,1-18.8C148.3,125.6,145.9,127.4,143.8,129.7z"/>
					<path class="st69" d="M143.8,129.7c-7.9,8.8-13.9,21.9-10.3,26.2c3.4,4,9.2,9.1,12.4,10.5c-0.4-1-0.9-2.1-1.4-3.3
						c-2.5-7,1-11.4,5.5-19.9c3-5.6,2-14,1-18.8C148.3,125.6,145.9,127.4,143.8,129.7z"/>
					<path class="st57" d="M159.5,138.5c3.9-2.1,3.9,1.1,3.9,1.1"/>
					<path class="st57" d="M156,143.2c1.7,3.1,4.1,2.3,4.1,2.3l0.5-3"/>
				</g>
			</g>
			<path class="st57" d="M166.1,123.6c-2.6-2.5-14.4-2.7-22.3,6.1s-13.9,21.9-10.3,26.2c3.6,4.3,10.1,9.9,13.1,10.7s3.9,1.9,5.8-0.9
				c1.9-2.8,8.4-10.7,8.4-10.7s3.4-0.3,4.1-2.1c0.6-1.9-1.5-5.4-1.5-7.9c0-2.6,3-4.5,4.1-6.4c1.1-1.9,0.6-8.1,0.6-8.1
				S168.7,126.2,166.1,123.6z"/>
			<path class="st55" d="M158.9,95.3c-11.4-4.9-24.7-4.6-33.9,1.9c-9.3,6.5-12,18.1-13.3,26.6c-1.3,8.6-9.2,7.7-19.3,18.4
				c-10.1,10.7-12,19.1-7.7,32.1c4.3,13.1,11.2,3.9,15.7,2.4c4.5-1.5,6.3,6.2,17.2,12.2s25.3-3.4,25.9-12.8s-4.7-10.7-5.1-17
				c-0.4-6.2,6.7-21.4,12.2-23.6c3.3-1.3,6.9-1.8,10.5-1.5v-4.9l2.6,4.5l11.6-1.5l-0.4-10.5v-0.9
				C174.7,115.3,170.3,100.3,158.9,95.3z"/>
			<g>
				<defs>
					<path id="SVGID_117_" d="M158.9,95.3c-11.4-4.9-24.7-4.6-33.9,1.9c-9.3,6.5-12,18.1-13.3,26.6c-1.3,8.6-9.2,7.7-19.3,18.4
						c-10.1,10.7-12,19.1-7.7,32.1c4.3,13.1,11.2,3.9,15.7,2.4c4.5-1.5,6.3,6.2,17.2,12.2s25.3-3.4,25.9-12.8s-4.7-10.7-5.1-17
						c-0.4-6.2,6.7-21.4,12.2-23.6c3.3-1.3,6.9-1.8,10.5-1.5v-4.9l2.6,4.5l11.6-1.5l-0.4-10.5v-0.9
						C174.7,115.3,170.3,100.3,158.9,95.3z"/>
				</defs>
				<clipPath id="SVGID_5_">
					<use xlink:href="#SVGID_117_"  style="overflow:visible;"/>
				</clipPath>
				<g style="clip-path:url(#SVGID_5_);">
					<path class="st74" d="M165.7,123c-1.4-2.8-2.2-3-2.4-3c-0.7,0-1.3,1.7-1.6,2.6c-0.2,0.4-0.3,0.8-0.6,1.2
						c-0.2,0.3-0.5,0.5-0.9,0.6c-1.1,0.1-2.4-1.2-4.4-3.2l-0.9-0.9c-0.5-0.5-0.7-0.5-0.7-0.5c-0.2,0.2-0.4,0.5-0.5,0.8
						c-0.4,0.9-1,1.6-1.7,2.2c-0.5,0.4-1.1,0.6-1.7,0.5c-1.5-0.4-2.5-2.6-4-6c-0.3-0.6-0.6-1.3-0.9-2c-0.2-0.4-0.4-0.7-0.6-1.1
						c-0.6,1.1-1.1,2.4-1.4,3.6c-0.5,2.3-1.4,4.5-2.6,6.4c-0.4,0.8-1.3,1.2-2.1,1.1c-1.7-0.3-2.7-3-3.6-5.4
						c-0.3-0.8-0.6-1.5-0.9-2.3l0,0c-0.5,0.7-0.9,1.4-1.2,2.1c-0.8,1.6-1.7,3.3-2.8,3.8c-0.4,0.2-0.8,0.2-1.2,0
						c-1-0.5-1.4-2-1.8-3.8c-0.3-1.3-0.7-2.5-1.3-3.6c-0.2-0.3-0.5-0.5-0.8-0.6c-1.1-0.2-2.7,1.1-3.6,1.8c-0.3,0.2-0.6,0.4-0.8,0.6
						c-0.2,0.2-0.6,0.2-0.8,0c-0.5-0.3-0.4-1.1,0-4c0.3-1.7,0.5-3.5,0.4-5.2c-0.1,0.1-0.2,0.1-0.3,0.2c-1.1,1-2.1,2.1-3.1,3.2
						c-3.6,4-6.2,6.8-8.2,6.3c-0.8-0.2-1.3-0.9-1.6-2.1l1.2-0.2c0.1,0.5,0.3,1,0.7,1.1c1.4,0.4,4.7-3.4,6.9-5.9c1-1.1,2-2.2,3.1-3.3
						c0.6-0.6,1.2-0.7,1.7-0.4c1,0.6,0.8,2.5,0.2,6.5c-0.1,0.7-0.2,1.6-0.3,2.2c1.2-0.9,2.9-2.3,4.5-2c0.7,0.1,1.3,0.5,1.6,1.1
						c0.7,1.3,1.2,2.6,1.5,4c0.3,1.2,0.7,2.8,1.2,3.1c0,0,0.1,0.1,0.2,0c0.7-0.3,1.6-2,2.2-3.2c0.8-1.6,1.5-2.9,2.3-2.9
						c0.4,0,0.8,0.3,1,0.7c0.4,0.8,0.8,1.6,1,2.4c0.6,1.7,1.7,4.5,2.6,4.6c0.4,0,0.7-0.4,1-0.7c1.1-1.9,1.9-3.9,2.4-6.1
						c0.8-2.7,1.3-4.4,2.4-4.5c0.9-0.1,1.5,1.1,1.8,1.8c0.3,0.7,0.6,1.4,0.9,2c1.2,2.7,2.3,5.1,3.1,5.3c0.1,0,0.3,0.1,0.7-0.2
						c0.6-0.5,1-1.1,1.4-1.9c0.4-0.7,0.7-1.3,1.4-1.4c0.7,0,1.3,0.3,1.7,0.9l0.9,0.9c1,1,2.9,3,3.4,2.8c0.2-0.3,0.3-0.7,0.4-1
						c0.5-1.4,1.3-3.4,2.7-3.4c1.1,0,2.3,1.1,3.5,3.6c0.3,0.8,0.8,1.5,1.4,2.1c0.4-0.7,0.6-4.3,0.6-6.4c0-1.4,0.1-2.8,0.1-3.9
						c0-0.4,0.1-1.5,1-1.6c0.5-0.1,1.9-0.3,6.3,12l-1.1,0.4c-1.6-4.5-3.8-9.7-4.8-10.9c0,0.1,0,0.2,0,0.3c-0.1,1.1-0.1,2.5-0.1,3.9
						c-0.1,5.2-0.3,7.4-1.5,7.6c-0.1,0-0.2,0-0.2,0C167.5,125.8,166.8,125,165.7,123z"/>
					<path class="st75" d="M87,143.4c3.8,0,0.8,3.8,1.4,5.5c0.5,1.6,1.1-1.1,5.5-2.2c4.4-1.1-0.5,2.5-0.5,5.5s2-2.5,6.1-4.1
						s0.3,5.2,1.1,11.5c0.8,6.3,1.6,3.5,2.7,0.8c1.1-2.7,3.5-0.8,3.8,1.6c0.3,2.5,3.3-0.8,6.8-5.2c3.5-4.4,4.4,4.1,4.9,10.4
						c0.5,6.3,7.9,2.2,10.9-1.9c3-4.1,2.7,0.3,3,3.3c0.3,3,2.4,1.9,5.5-1.6c3.1-3.5,6.1,7.6,6.1,7.6"/>
				</g>
			</g>
			<path class="st57" d="M158.9,95.3c-11.4-4.9-24.7-4.6-33.9,1.9c-9.3,6.5-12,18.1-13.3,26.6c-1.3,8.6-9.2,7.7-19.3,18.4
				c-10.1,10.7-12,19.1-7.7,32.1c4.3,13.1,11.2,3.9,15.7,2.4c4.5-1.5,6.3,6.2,17.2,12.2s25.3-3.4,25.9-12.8s-4.7-10.7-5.1-17
				c-0.4-6.2,6.7-21.4,12.2-23.6c3.3-1.3,6.9-1.8,10.5-1.5v-4.9l2.6,4.5l11.6-1.5l-0.4-10.5v-0.9
				C174.7,115.3,170.3,100.3,158.9,95.3z"/>
			<path class="st86" d="M259,260.5h-20.7c-0.3-1.4-0.6-2.2-0.6-4.9v-1.4c0-2.7,2.2-4.9,4.9-4.9h15c2.7,0,4.9,2.2,4.9,4.9v1.4
				C262.4,258.2,260.2,259.2,259,260.5z"/>
			<g>
				<path class="st64" d="M166,239c1.5,2.6,6.2,2.6,10.1,3.4c3.9,0.8,53.5,8.7,55.2,9.8c1.7,1.1,14.9,2.1,16.9,1.3
					c1.3-0.2,12.7,0.3,12.7,0.3c1.9-0.4,3.1-2.2,2.7-4c-0.4-1.9-12.3-6.5-12.3-6.5s-9.8-1-18.1,0c-8.4,1-57.5-19.9-57.5-19.9
					S164.5,236.5,166,239z"/>
			</g>
			<path class="st64" d="M173.5,219.8c-4.6-1.5-5-3.4-6.1-2.6c-1,0.8-10.9,18.2-10.9,18.2s-0.4,3.8,2.1,5.8c2.6,1.9,10.5,3,12,1.3
				s8.1-17.6,8.1-17.6C179.7,221.9,178,221.3,173.5,219.8z"/>
		</g>
		<g id="Program_Window_4_">
			<g id="Window_7_">
				<g id="Window_8_">
					<path class="st92" d="M342.7,107.4l-11.4,67.1c-0.2,1.1-1.2,1.9-2.2,1.9l-100.4-0.3c-0.2,0-0.3,0-0.5-0.1
						c-0.3-0.2-0.5-0.5-0.6-0.8c-0.1-0.4-0.2-0.8-0.1-1.2l11.3-66.7c0.2-1.1,1.2-2,2.2-1.9l100.4,0.4c0.3,0,0.5,0.1,0.7,0.2
						C342.6,106.2,342.8,106.7,342.7,107.4z"/>
				</g>
				<g id="Up_Bar_4_">
					<g>
						<path class="st80" d="M342.7,107.4l-1.1,6.2l-103.7-0.4l1-5.8c0.2-1.1,1.2-2,2.2-1.9l100.4,0.4c0.3,0,0.5,0.1,0.7,0.2
							C342.6,106.2,342.8,106.7,342.7,107.4z"/>
						<path class="st80" d="M342.7,107.4l-1.1,6.2l-103.7-0.4l1-5.8c0.2-1.1,1.2-2,2.2-1.9l100.4,0.4c0.3,0,0.5,0.1,0.7,0.2
							C342.6,106.2,342.8,106.7,342.7,107.4z"/>
						<g id="XMLID_315_">
							<path id="XMLID_318_" class="st93" d="M329.8,108.1c-0.7,0-1.4,0.8-1.6,1.8c-0.2,1,0.3,1.8,1,1.8c0.7,0,1.4-0.8,1.6-1.8
								C330.9,108.9,330.5,108.1,329.8,108.1z"/>
							<path id="XMLID_317_" class="st93" d="M334.4,108.1c-0.7,0-1.4,0.8-1.6,1.8c-0.2,1,0.3,1.8,1,1.8c0.7,0,1.4-0.8,1.6-1.8
								C335.5,108.9,335.1,108.1,334.4,108.1z"/>
							<path id="XMLID_316_" class="st93" d="M338.9,108.1c-0.7,0-1.4,0.8-1.6,1.8c-0.2,1,0.3,1.8,1,1.8c0.7,0,1.4-0.8,1.6-1.8
								C340.1,108.9,339.6,108.1,338.9,108.1z"/>
						</g>
					</g>
				</g>
			</g>
			<g id="Program_4_">
				<g>
					<path class="st80" d="M241,119.5c-0.1,0.9,0.4,1.6,1.2,1.6c0.8,0,1.6-0.7,1.7-1.5c0.1-0.9-0.4-1.6-1.2-1.6
						C241.9,118,241.2,118.7,241,119.5z"/>
					<path class="st94" d="M251.4,119.3l13.2,0c0.4,0,0.7,0.3,0.7,0.8c-0.1,0.4-0.5,0.8-0.9,0.8l-13.2,0c-0.4,0-0.7-0.3-0.7-0.8
						C250.5,119.7,250.9,119.3,251.4,119.3z"/>
					<path class="st94" d="M269,119.3l13.2,0c0.4,0,0.7,0.3,0.7,0.8c-0.1,0.4-0.5,0.8-0.9,0.8l-13.2,0c-0.4,0-0.7-0.3-0.7-0.8
						C268.1,119.6,268.5,119.3,269,119.3z"/>
					<path class="st94" d="M286.6,119.2l13.2,0c0.4,0,0.7,0.3,0.7,0.8c-0.1,0.4-0.5,0.8-0.9,0.8l-13.2,0c-0.4,0-0.7-0.3-0.7-0.8
						C285.8,119.6,286.2,119.2,286.6,119.2z"/>
					<path class="st94" d="M304.2,119.2l13.2,0c0.4,0,0.7,0.3,0.7,0.8c-0.1,0.4-0.5,0.8-0.9,0.8l-13.2,0c-0.4,0-0.7-0.3-0.7-0.8
						C303.4,119.5,303.8,119.2,304.2,119.2z"/>
					<path class="st94" d="M321.9,119.1l13.2,0c0.4,0,0.7,0.3,0.7,0.8c-0.1,0.4-0.5,0.8-0.9,0.8l-13.2,0c-0.4,0-0.7-0.3-0.7-0.8
						C321,119.5,321.4,119.1,321.9,119.1z"/>
				</g>
				<g>
					<path class="st80" d="M240.8,128.2l-0.2,1.3c-0.1,0.4,0.2,0.7,0.5,0.7l3.5,0c0.3,0,0.7-0.3,0.7-0.7l0.2-1.3
						c0.1-0.4-0.2-0.7-0.5-0.7l-3.5,0C241.2,127.6,240.9,127.9,240.8,128.2z"/>
					<path class="st94" d="M248.3,128.1l9.5,0.1c0.4,0,0.7,0.3,0.7,0.8c-0.1,0.4-0.5,0.8-0.9,0.8l-9.5-0.1c-0.4,0-0.7-0.3-0.7-0.8
						C247.5,128.5,247.9,128.1,248.3,128.1z"/>
					<polygon class="st95" points="240,125.8 260.7,125.9 259.6,132.1 238.9,132 					"/>
				</g>
				<g>
					<path class="st80" d="M239.3,137.5l-0.2,1.3c-0.1,0.4,0.2,0.7,0.5,0.7l3.5,0c0.3,0,0.7-0.3,0.7-0.7l0.2-1.3
						c0.1-0.4-0.2-0.7-0.5-0.7l-3.5,0C239.7,136.9,239.3,137.2,239.3,137.5z"/>
					<path class="st94" d="M246.7,137.4l9.5,0.1c0.4,0,0.7,0.3,0.7,0.8c-0.1,0.4-0.5,0.8-0.9,0.8l-9.5-0.1c-0.4,0-0.7-0.3-0.7-0.8
						C245.9,137.8,246.3,137.4,246.7,137.4z"/>
					<polygon class="st95" points="238.4,135.1 259.1,135.2 258.1,141.4 237.3,141.3 					"/>
				</g>
				<g>
					<path class="st80" d="M237.7,146.8l-0.2,1.3c-0.1,0.4,0.2,0.7,0.5,0.7l3.5,0c0.3,0,0.7-0.3,0.7-0.7l0.2-1.3
						c0.1-0.4-0.2-0.7-0.5-0.7l-3.5,0C238.1,146.2,237.8,146.4,237.7,146.8z"/>
					<path class="st94" d="M245.2,146.7l9.5,0.1c0.4,0,0.7,0.3,0.7,0.8c-0.1,0.4-0.5,0.8-0.9,0.8l-9.5-0.1c-0.4,0-0.7-0.3-0.7-0.8
						C244.3,147.1,244.7,146.7,245.2,146.7z"/>
					<polygon class="st95" points="236.8,144.4 257.5,144.5 256.5,150.6 235.8,150.6 					"/>
				</g>
				<g>
					<path class="st80" d="M236.1,156.1l-0.2,1.3c-0.1,0.4,0.2,0.7,0.5,0.7l3.5,0c0.3,0,0.7-0.3,0.7-0.7l0.2-1.3
						c0.1-0.4-0.2-0.7-0.5-0.7l-3.5,0C236.5,155.4,236.2,155.7,236.1,156.1z"/>
					<path class="st94" d="M243.6,156l9.5,0.1c0.4,0,0.7,0.3,0.7,0.8c-0.1,0.4-0.5,0.8-0.9,0.8l-9.5-0.1c-0.4,0-0.7-0.3-0.7-0.8
						C242.7,156.3,243.2,156,243.6,156z"/>
					<polygon class="st95" points="235.2,153.7 256,153.7 254.9,159.9 234.2,159.9 					"/>
				</g>
				<g>
					<path class="st80" d="M234.6,165.4l-0.2,1.3c-0.1,0.4,0.2,0.7,0.5,0.7l3.5,0c0.3,0,0.7-0.3,0.7-0.7l0.2-1.3
						c0.1-0.4-0.2-0.7-0.5-0.7l-3.5,0C234.9,164.7,234.6,165,234.6,165.4z"/>
					<path class="st94" d="M242,165.3l9.5,0.1c0.4,0,0.7,0.3,0.7,0.8c-0.1,0.4-0.5,0.8-0.9,0.8l-9.5-0.1c-0.4,0-0.7-0.3-0.7-0.8
						C241.2,165.6,241.6,165.3,242,165.3z"/>
					<polygon class="st95" points="233.7,163 254.4,163 253.4,169.2 232.6,169.1 					"/>
				</g>
				<g id="Gear_8_">
					<path class="st96" d="M265,150.2l21.7,0.1c0.8,0,1.6-0.7,1.7-1.5l2.9-17c0.1-0.8-0.4-1.5-1.2-1.5l-21.7-0.1
						c-0.8,0-1.6,0.7-1.7,1.5l-2.9,17C263.6,149.5,264.2,150.2,265,150.2z"/>
					<g>
						<g>
							<g>
								<path class="st80" d="M266,127.5c-0.1,0-0.1-0.1-0.2-0.2c0-0.1,0-0.3,0.1-0.3l0.7,0c0.1,0,0.3,0.1,0.3,0.3
									c0,0.1,0,0.3-0.1,0.3l-0.7,0C266.1,127.5,266.1,127.5,266,127.5z"/>
							</g>
							<g>
								<path class="st80" d="M291.6,127.4c0-0.1-0.2-0.3-0.3-0.3l-1.5,0c-0.1,0-0.2,0.1-0.1,0.3c0,0.1,0.1,0.2,0.2,0.2
									c0,0,0.1,0,0.1,0l1.5,0C291.5,127.6,291.6,127.5,291.6,127.4z M288.5,127.4c0-0.1-0.2-0.3-0.3-0.3l-1.5,0
									c-0.1,0-0.2,0.1-0.1,0.3c0,0.1,0.1,0.2,0.2,0.2c0,0,0.1,0,0.1,0l1.5,0C288.5,127.6,288.5,127.5,288.5,127.4z M285.4,127.4
									c-0.1-0.2-0.2-0.3-0.3-0.3l-1.5,0c-0.1,0-0.2,0.1-0.1,0.3c0,0.1,0.1,0.2,0.2,0.2c0,0,0.1,0,0.1,0l1.5,0
									C285.4,127.6,285.5,127.5,285.4,127.4z M282.4,127.3c0-0.1-0.2-0.3-0.3-0.3l-1.1,0l-0.5,0c-0.1,0-0.2,0.1-0.1,0.3
									c0,0.1,0.1,0.2,0.2,0.2c0,0,0.1,0,0.1,0l0.2,0l1.3,0C282.3,127.6,282.4,127.5,282.4,127.3z M279.3,127.3
									c0-0.1-0.2-0.3-0.3-0.3l-0.2,0l-1.3,0c-0.1,0-0.2,0.1-0.1,0.3c0,0.1,0.1,0.2,0.2,0.2c0,0,0.1,0,0.1,0l1.1,0l0.5,0
									C279.3,127.6,279.3,127.5,279.3,127.3z M276.2,127.3c0-0.1-0.2-0.3-0.3-0.3l-1.5,0c-0.1,0-0.2,0.1-0.1,0.3
									c0,0.1,0.1,0.2,0.2,0.2c0,0,0.1,0,0.1,0l1.5,0C276.2,127.6,276.3,127.5,276.2,127.3z M273.2,127.3c0-0.1-0.2-0.3-0.3-0.3
									l-1.5,0c-0.1,0-0.2,0.1-0.1,0.3c0,0.1,0.1,0.2,0.2,0.2c0,0,0.1,0,0.1,0l1.5,0C273.1,127.6,273.2,127.5,273.2,127.3z
									 M270.1,127.3c-0.1-0.2-0.2-0.3-0.3-0.3l-1.5,0c-0.1,0-0.2,0.1-0.1,0.3c0,0.1,0.1,0.2,0.2,0.2c0,0,0.1,0,0.1,0l1.5,0
									C270.1,127.6,270.1,127.4,270.1,127.3z"/>
							</g>
							<g>
								<path class="st80" d="M292.8,127.6c-0.1,0-0.1-0.1-0.2-0.2c0-0.1,0-0.3,0.1-0.3l0.7,0c0.1,0,0.3,0.1,0.3,0.3
									c0,0.1,0,0.3-0.1,0.3l-0.7,0C292.9,127.6,292.9,127.6,292.8,127.6z"/>
							</g>
						</g>
						<g>
							<g>
								<path class="st80" d="M260.7,152.1c-0.1-0.1-0.2-0.2-0.2-0.4l0.1-0.8c0-0.1,0.1-0.2,0.3-0.1c0.1,0.1,0.2,0.2,0.2,0.4
									L261,152C261,152.2,260.9,152.2,260.7,152.1z"/>
							</g>
							<g>
								<path class="st80" d="M264.4,130.4c-0.1-0.1-0.2,0-0.3,0.1l-0.2,1.5c0,0.1,0.1,0.3,0.2,0.4s0.2,0,0.3-0.1l0.2-1.5
									C264.6,130.7,264.5,130.5,264.4,130.4z M263.9,133.4c-0.1-0.1-0.2,0-0.3,0.1l-0.2,1.5c0,0.1,0.1,0.3,0.2,0.4
									c0.1,0.1,0.2,0,0.3-0.1l0.2-1.5C264.1,133.6,264,133.4,263.9,133.4z M263.4,136.3c-0.1-0.1-0.2,0-0.3,0.1l-0.2,1.5
									c0,0.1,0.1,0.3,0.2,0.4c0.1,0.1,0.2,0,0.3-0.1l0.2-1.5C263.6,136.5,263.5,136.4,263.4,136.3z M262.9,139.2
									c-0.1-0.1-0.2,0-0.3,0.1l-0.2,1.5c0,0.1,0.1,0.3,0.2,0.4c0.1,0.1,0.2,0,0.3-0.1l0.2-1.5
									C263.1,139.4,263.1,139.3,262.9,139.2z M262.4,142.1c-0.1-0.1-0.2,0-0.3,0.1l-0.2,1.5c0,0.1,0.1,0.3,0.2,0.4s0.2,0,0.3-0.1
									l0.2-1.5C262.6,142.4,262.6,142.2,262.4,142.1z M261.9,145.1c-0.1-0.1-0.2,0-0.3,0.1l-0.2,1.5c0,0.1,0.1,0.3,0.2,0.4
									c0.1,0.1,0.2,0,0.3-0.1l0.2-1.5C262.2,145.3,262.1,145.1,261.9,145.1z M261.4,148c-0.1-0.1-0.2,0-0.3,0.1l-0.2,1.5
									c0,0.1,0.1,0.3,0.2,0.4c0.1,0.1,0.2,0,0.3-0.1l0.2-1.5C261.7,148.2,261.6,148.1,261.4,148z"/>
							</g>
							<g>
								<path class="st80" d="M264.6,129.4c-0.1-0.1-0.2-0.2-0.2-0.4l0.1-0.8c0-0.1,0.1-0.2,0.3-0.1c0.1,0.1,0.2,0.2,0.2,0.4
									l-0.1,0.8C264.8,129.5,264.7,129.5,264.6,129.4z"/>
							</g>
						</g>
						<g>
							<g>
								<path class="st80" d="M288.5,153.4c-0.1,0-0.1-0.1-0.2-0.2c0-0.1,0-0.3,0.1-0.3l0.7,0c0.1,0,0.3,0.1,0.3,0.3
									c0,0.1,0,0.3-0.1,0.3l-0.7,0C288.6,153.4,288.5,153.4,288.5,153.4z"/>
							</g>
							<g>
								<path class="st80" d="M287.2,153.2c0-0.1-0.2-0.3-0.3-0.3l-1.5,0c-0.1,0-0.2,0.1-0.1,0.3c0,0.1,0.1,0.2,0.2,0.2
									c0,0,0.1,0,0.1,0l1.5,0C287.2,153.4,287.3,153.3,287.2,153.2z M284.1,153.1c0-0.1-0.2-0.3-0.3-0.3l-1.5,0
									c-0.1,0-0.2,0.1-0.1,0.3c0,0.1,0.1,0.2,0.2,0.2c0,0,0.1,0,0.1,0l1.5,0C284.1,153.4,284.2,153.3,284.1,153.1z M281.1,153.1
									c-0.1-0.2-0.2-0.3-0.3-0.3l-1.5,0c-0.1,0-0.2,0.1-0.1,0.3c0,0.1,0.1,0.2,0.2,0.2c0,0,0.1,0,0.1,0l1.5,0
									C281.1,153.4,281.1,153.3,281.1,153.1z M278,153.1c0-0.1-0.2-0.3-0.3-0.3l-1.1,0l-0.5,0c-0.1,0-0.2,0.1-0.1,0.3
									c0,0.1,0.1,0.2,0.2,0.2c0,0,0.1,0,0.1,0l0.2,0l1.3,0C278,153.4,278,153.3,278,153.1z M274.9,153.1c0-0.1-0.2-0.3-0.3-0.3
									l-0.2,0l-1.3,0c-0.1,0-0.2,0.1-0.1,0.3c0,0.1,0.1,0.2,0.2,0.2c0,0,0.1,0,0.1,0l1.1,0l0.5,0
									C274.9,153.4,275,153.3,274.9,153.1z M271.9,153.1c0-0.1-0.2-0.3-0.3-0.3l-1.5,0c-0.1,0-0.2,0.1-0.1,0.3
									c0,0.1,0.1,0.2,0.2,0.2c0,0,0.1,0,0.1,0l1.5,0C271.8,153.4,271.9,153.2,271.9,153.1z M268.8,153.1c-0.1-0.2-0.2-0.3-0.3-0.3
									l-1.5,0c-0.1,0-0.2,0.1-0.1,0.3c0,0.1,0.1,0.2,0.2,0.2c0,0,0.1,0,0.1,0l1.5,0C268.8,153.4,268.8,153.2,268.8,153.1z
									 M265.7,153.1c0-0.1-0.2-0.3-0.3-0.3l-1.5,0c-0.1,0-0.2,0.1-0.1,0.3c0,0.1,0.1,0.2,0.2,0.2c0,0,0.1,0,0.1,0l1.5,0
									C265.7,153.4,265.8,153.2,265.7,153.1z"/>
							</g>
							<g>
								<path class="st80" d="M261.7,153.3c-0.1,0-0.1-0.1-0.2-0.2c0-0.1,0-0.3,0.1-0.3l0.7,0c0.1,0,0.3,0.1,0.3,0.3
									c0,0.1,0,0.3-0.1,0.3l-0.7,0C261.7,153.3,261.7,153.3,261.7,153.3z"/>
							</g>
						</g>
						<g>
							<g>
								<path class="st80" d="M294.4,129.6c-0.1-0.1-0.2-0.2-0.2-0.4l0.1-0.8c0-0.1,0.1-0.2,0.3-0.1c0.1,0.1,0.2,0.2,0.2,0.4
									l-0.1,0.8C294.6,129.6,294.5,129.6,294.4,129.6z"/>
							</g>
							<g>
								<path class="st80" d="M294.2,130.6c-0.1-0.1-0.2,0-0.3,0.1l-0.2,1.5c0,0.1,0.1,0.3,0.2,0.4c0.1,0.1,0.2,0,0.3-0.1l0.2-1.5
									C294.4,130.8,294.3,130.6,294.2,130.6z M293.7,133.5c-0.1-0.1-0.2,0-0.3,0.1l-0.2,1.5c0,0.1,0.1,0.3,0.2,0.4
									c0.1,0.1,0.2,0,0.3-0.1l0.2-1.5C293.9,133.7,293.8,133.5,293.7,133.5z M293.2,136.4c-0.1-0.1-0.2,0-0.3,0.1l-0.2,1.5
									c0,0.1,0.1,0.3,0.2,0.4c0.1,0.1,0.2,0,0.3-0.1l0.2-1.5C293.4,136.6,293.3,136.5,293.2,136.4z M292.7,139.3
									c-0.1-0.1-0.2,0-0.3,0.1l-0.2,1.5c0,0.1,0.1,0.3,0.2,0.4c0.1,0.1,0.2,0,0.3-0.1l0.2-1.5
									C292.9,139.6,292.8,139.4,292.7,139.3z M292.2,142.2c-0.1-0.1-0.2,0-0.3,0.1l-0.2,1.5c0,0.1,0.1,0.3,0.2,0.4
									c0.1,0.1,0.2,0,0.3-0.1l0.2-1.5C292.4,142.5,292.4,142.3,292.2,142.2z M291.7,145.2c-0.1-0.1-0.2,0-0.3,0.1l-0.2,1.5
									c0,0.1,0.1,0.3,0.2,0.4c0.1,0.1,0.2,0,0.3-0.1l0.2-1.5C291.9,145.4,291.9,145.2,291.7,145.2z M291.2,148.1
									c-0.1-0.1-0.2,0-0.3,0.1l-0.2,1.5c0,0.1,0.1,0.3,0.2,0.4c0.1,0.1,0.2,0,0.3-0.1l0.2-1.5
									C291.5,148.3,291.4,148.2,291.2,148.1z"/>
							</g>
							<g>
								<path class="st80" d="M290.5,152.2c-0.1-0.1-0.2-0.2-0.2-0.4l0.1-0.8c0-0.1,0.1-0.2,0.3-0.1c0.1,0.1,0.2,0.2,0.2,0.4
									l-0.1,0.8C290.8,152.3,290.7,152.3,290.5,152.2z"/>
							</g>
						</g>
						<g>
							<path class="st80" d="M296.2,126.1c-0.1-0.1-0.2-0.1-0.2-0.1l-2.2,0c-0.1,0-0.1,0-0.2,0.1l-0.4,2.3c0,0.1,0,0.2,0.1,0.3
								c0,0,0.1,0.1,0.1,0.1c0,0,0.1,0,0.1,0l0.7,0l0.5,0l1,0c0.1,0,0.1-0.1,0.1-0.1l0.4-2.3C296.3,126.3,296.3,126.2,296.2,126.1z
								 M295.5,128.3l-1,0l-0.8,0l0.3-1.8l1.7,0L295.5,128.3z"/>
						</g>
						<g>
							<path class="st80" d="M291.8,151.9c-0.1-0.1-0.2-0.1-0.2-0.1l-0.7,0l-0.5,0l-1,0c-0.1,0-0.1,0-0.2,0.1l-0.4,2.3
								c0,0.1,0,0.2,0.1,0.3c0,0,0.1,0.1,0.1,0.1c0,0,0.1,0,0.1,0l2.2,0c0.1,0,0.1-0.1,0.1-0.1l0.4-2.3
								C291.9,152.1,291.9,152,291.8,151.9z M291.1,154.1l-1.7,0l0.3-1.8l1,0l0.1,0l0.7,0L291.1,154.1z"/>
						</g>
						<g>
							<path class="st80" d="M266.4,126c-0.1-0.1-0.2-0.1-0.2-0.1l-2.2,0c-0.1,0-0.1,0.1-0.1,0.1l-0.4,2.4c0,0.1,0,0.2,0.1,0.3
								c0,0,0.1,0.1,0.1,0.1c0,0,0.1,0,0.1,0l0.7,0l0.5,0l1,0c0.1,0,0.1,0,0.2-0.1l0.4-2.3C266.5,126.2,266.5,126.1,266.4,126z
								 M265.7,128.2l-1,0l-0.8,0l0.3-1.8l1.7,0L265.7,128.2z"/>
						</g>
						<g>
							<path class="st80" d="M262.1,151.8c-0.1-0.1-0.2-0.1-0.2-0.1l-0.7,0l-0.5,0l-1,0c-0.1,0-0.1,0-0.1,0.1l-0.4,2.3
								c0,0.1,0,0.2,0.1,0.3c0,0,0.1,0.1,0.1,0.1c0,0,0.1,0,0.1,0l2.2,0c0.1,0,0.1,0,0.2-0.1l0.4-2.4
								C262.2,152,262.1,151.8,262.1,151.8z M261.3,154l-1.7,0l0.3-1.8l1,0l0.8,0L261.3,154z"/>
						</g>
						<g>
							<path class="st80" d="M293.4,141.7c-0.1,0.8-0.7,1.4-1.4,1.4c-0.6,0-1-0.6-0.9-1.4c0.1-0.8,0.7-1.4,1.4-1.4
								C293.2,140.4,293.6,141,293.4,141.7z"/>
						</g>
						<g>
							<path class="st80" d="M281,127.3c-0.1,0.8-0.7,1.4-1.4,1.4c-0.6,0-1-0.6-0.9-1.4c0.1-0.8,0.7-1.4,1.4-1.4
								C280.7,126,281.1,126.6,281,127.3z"/>
						</g>
						<g>
							<path class="st80" d="M276.6,153.1c-0.1,0.8-0.7,1.4-1.4,1.4c-0.6,0-1-0.6-0.9-1.4c0.1-0.8,0.7-1.4,1.4-1.4
								C276.3,151.8,276.7,152.4,276.6,153.1z"/>
						</g>
						<g>
							<path class="st80" d="M263.6,141.7c-0.1,0.8-0.7,1.4-1.4,1.4s-1-0.6-0.9-1.4c0.1-0.8,0.7-1.4,1.4-1.4
								C263.4,140.3,263.8,140.9,263.6,141.7z"/>
						</g>
					</g>
					<path id="XMLID_314_" class="st80" d="M283.4,139.3l-1.3-0.2c-0.1,0-0.2-0.1-0.2-0.2c0-0.3-0.1-0.5-0.2-0.8c0-0.1,0-0.2,0-0.3
						l1.1-1.1c0.1-0.1,0-0.2,0-0.3l-0.8-1c-0.1-0.1-0.2-0.1-0.2-0.1l-1.3,0.9c-0.1,0-0.2,0-0.3,0c-0.2-0.1-0.4-0.2-0.7-0.3
						c-0.1,0-0.2-0.1-0.2-0.2l0.1-1.4c0-0.1-0.1-0.2-0.2-0.2l-1.5,0c-0.1,0-0.2,0.1-0.2,0.2l-0.4,1.4c0,0.1-0.1,0.2-0.2,0.2
						c-0.3,0.1-0.6,0.2-0.9,0.4c-0.1,0-0.2,0-0.3-0.1l-0.8-0.8c-0.1-0.1-0.2-0.1-0.3-0.1l-1.3,1.1c-0.1,0-0.1,0.2,0,0.3l0.6,1
						c0.1,0.1,0.1,0.2,0,0.3c-0.2,0.3-0.4,0.6-0.5,0.9c0,0.1-0.1,0.2-0.2,0.2l-1.4,0.1c-0.1,0-0.2,0.1-0.2,0.2l-0.3,1.6
						c0,0.1,0,0.2,0.1,0.2l1.3,0.2c0.1,0,0.2,0.1,0.2,0.2c0,0.3,0.1,0.5,0.2,0.8c0,0.1,0,0.2,0,0.3l-1.1,1.2c-0.1,0.1,0,0.2,0,0.3
						l0.8,1c0.1,0.1,0.2,0.1,0.2,0.1l1.3-0.9c0.1,0,0.2,0,0.3,0c0.2,0.1,0.4,0.2,0.7,0.3c0.1,0,0.2,0.1,0.2,0.2l-0.1,1.4
						c0,0.1,0.1,0.2,0.2,0.2l1.5,0c0.1,0,0.2-0.1,0.2-0.2l0.4-1.4c0-0.1,0.1-0.2,0.2-0.2c0.3-0.1,0.6-0.2,0.9-0.4
						c0.1,0,0.2,0,0.3,0.1l0.8,0.8c0.1,0.1,0.2,0.1,0.3,0.1l1.3-1.1c0.1-0.1,0.1-0.2,0-0.3l-0.6-1c-0.1-0.1-0.1-0.2,0-0.3
						c0.2-0.3,0.4-0.6,0.5-0.9c0-0.1,0.1-0.2,0.2-0.2l1.4-0.1c0.1,0,0.2-0.1,0.2-0.2l0.3-1.6C283.5,139.4,283.4,139.3,283.4,139.3z
						 M277.1,142.9c-1.4,0-2.3-1.2-2.1-2.7c0.2-1.5,1.6-2.6,3-2.6c1.4,0,2.3,1.2,2.1,2.7C279.8,141.7,278.5,142.9,277.1,142.9z"/>
				</g>
				<g id="Gear_7_">
					<path class="st97" d="M303.3,150.4l21.7,0.1c0.8,0,1.6-0.7,1.7-1.5l2.9-17c0.1-0.8-0.4-1.5-1.2-1.5l-21.7-0.1
						c-0.8,0-1.6,0.7-1.7,1.5l-2.9,17C302,149.7,302.5,150.4,303.3,150.4z"/>
					<g>
						<g>
							<g>
								<path class="st80" d="M304.4,127.7c-0.1,0-0.1-0.1-0.2-0.2c0-0.1,0-0.3,0.1-0.3l0.7,0c0.1,0,0.3,0.1,0.3,0.3
									c0,0.1,0,0.3-0.1,0.3l-0.7,0C304.5,127.7,304.4,127.7,304.4,127.7z"/>
							</g>
							<g>
								<path class="st80" d="M329.9,127.6c0-0.1-0.2-0.3-0.3-0.3l-1.5,0c-0.1,0-0.2,0.1-0.1,0.3c0,0.1,0.1,0.2,0.2,0.2
									c0,0,0.1,0,0.1,0l1.5,0C329.9,127.8,330,127.7,329.9,127.6z M326.8,127.6c-0.1-0.2-0.2-0.3-0.3-0.3l-1.5,0
									c-0.1,0-0.2,0.1-0.1,0.3c0,0.1,0.1,0.2,0.2,0.2c0,0,0.1,0,0.1,0l1.5,0C326.8,127.8,326.9,127.7,326.8,127.6z M323.8,127.6
									c0-0.1-0.2-0.3-0.3-0.3l-1.5,0c-0.1,0-0.2,0.1-0.1,0.3c0,0.1,0.1,0.2,0.2,0.2c0,0,0.1,0,0.1,0l1.5,0
									C323.8,127.8,323.8,127.7,323.8,127.6z M320.7,127.5c0-0.1-0.2-0.3-0.3-0.3l-1.1,0l-0.5,0c-0.1,0-0.2,0.1-0.1,0.3
									c0,0.1,0.1,0.2,0.2,0.2c0,0,0.1,0,0.1,0l0.2,0l1.3,0C320.7,127.8,320.8,127.7,320.7,127.5z M317.6,127.5
									c0-0.1-0.2-0.3-0.3-0.3l-0.2,0l-1.3,0c-0.1,0-0.2,0.1-0.1,0.3c0,0.1,0.1,0.2,0.2,0.2c0,0,0.1,0,0.1,0l1.1,0l0.5,0
									C317.6,127.8,317.7,127.7,317.6,127.5z M314.6,127.5c0-0.1-0.2-0.3-0.3-0.3l-1.5,0c-0.1,0-0.2,0.1-0.1,0.3
									c0,0.1,0.1,0.2,0.2,0.2c0,0,0.1,0,0.1,0l1.5,0C314.6,127.8,314.6,127.7,314.6,127.5z M311.5,127.5c-0.1-0.2-0.2-0.3-0.3-0.3
									l-1.5,0c-0.1,0-0.2,0.1-0.1,0.3c0,0.1,0.1,0.2,0.2,0.2c0,0,0.1,0,0.1,0l1.5,0C311.5,127.8,311.6,127.7,311.5,127.5z
									 M308.4,127.5c0-0.1-0.2-0.3-0.3-0.3l-1.5,0c-0.1,0-0.2,0.1-0.1,0.3c0,0.1,0.1,0.2,0.2,0.2c0,0,0.1,0,0.1,0l1.5,0
									C308.4,127.8,308.5,127.6,308.4,127.5z"/>
							</g>
							<g>
								<path class="st80" d="M331.2,127.8c-0.1,0-0.1-0.1-0.2-0.2c0-0.1,0-0.3,0.1-0.3l0.7,0c0.1,0,0.3,0.1,0.3,0.3
									c0,0.1,0,0.3-0.1,0.3l-0.7,0C331.3,127.8,331.2,127.8,331.2,127.8z"/>
							</g>
						</g>
						<g>
							<g>
								<path class="st80" d="M299.1,152.3c-0.1-0.1-0.2-0.2-0.2-0.4l0.1-0.8c0-0.1,0.1-0.2,0.3-0.1c0.1,0.1,0.2,0.2,0.2,0.4
									l-0.1,0.8C299.3,152.3,299.2,152.4,299.1,152.3z"/>
							</g>
							<g>
								<path class="st80" d="M302.8,130.6c-0.1-0.1-0.2,0-0.3,0.1l-0.2,1.5c0,0.1,0.1,0.3,0.2,0.4c0.1,0.1,0.2,0,0.3-0.1l0.2-1.5
									C303,130.9,302.9,130.7,302.8,130.6z M302.3,133.6c-0.1-0.1-0.2,0-0.3,0.1l-0.2,1.5c0,0.1,0.1,0.3,0.2,0.4
									c0.1,0.1,0.2,0,0.3-0.1l0.2-1.5C302.5,133.8,302.4,133.6,302.3,133.6z M301.8,136.5c-0.1-0.1-0.2,0-0.3,0.1l-0.2,1.5
									c0,0.1,0.1,0.3,0.2,0.4c0.1,0.1,0.2,0,0.3-0.1l0.2-1.5C302,136.7,301.9,136.6,301.8,136.5z M301.3,139.4
									c-0.1-0.1-0.2,0-0.3,0.1l-0.2,1l-0.1,0.5c0,0.1,0.1,0.3,0.2,0.4c0.1,0.1,0.2,0,0.3-0.1l0.2-1.5
									C301.5,139.6,301.4,139.5,301.3,139.4z M300.8,142.3c-0.1-0.1-0.2,0-0.3,0.1l-0.2,1.5c0,0.1,0.1,0.3,0.2,0.4
									c0.1,0.1,0.2,0,0.3-0.1l0.2-1.5C301,142.6,300.9,142.4,300.8,142.3z M300.3,145.3c-0.1-0.1-0.2,0-0.3,0.1l-0.2,1.5
									c0,0.1,0.1,0.3,0.2,0.4c0.1,0.1,0.2,0,0.3-0.1l0.2-1.5C300.5,145.5,300.4,145.3,300.3,145.3z M299.8,148.2
									c-0.1-0.1-0.2,0-0.3,0.1l-0.2,1.5c0,0.1,0.1,0.3,0.2,0.4c0.1,0.1,0.2,0,0.3-0.1l0.2-1.5C300,148.4,299.9,148.3,299.8,148.2z
									"/>
							</g>
							<g>
								<path class="st80" d="M302.9,129.6c-0.1-0.1-0.2-0.2-0.2-0.4l0.1-0.8c0-0.1,0.1-0.2,0.3-0.1c0.1,0.1,0.2,0.2,0.2,0.4
									l-0.1,0.8C303.2,129.7,303.1,129.7,302.9,129.6z"/>
							</g>
						</g>
						<g>
							<g>
								<path class="st80" d="M326.8,153.6c-0.1,0-0.1-0.1-0.2-0.2c0-0.1,0-0.3,0.1-0.3l0.7,0c0.1,0,0.3,0.1,0.3,0.3
									c0,0.1,0,0.3-0.1,0.3l-0.7,0C326.9,153.6,326.9,153.6,326.8,153.6z"/>
							</g>
							<g>
								<path class="st80" d="M325.6,153.4c0-0.1-0.2-0.3-0.3-0.3l-1.5,0c-0.1,0-0.2,0.1-0.1,0.3c0,0.1,0.1,0.2,0.2,0.2
									c0,0,0.1,0,0.1,0l1.5,0C325.5,153.6,325.6,153.5,325.6,153.4z M322.5,153.4c0-0.1-0.2-0.3-0.3-0.3l-1.5,0
									c-0.1,0-0.2,0.1-0.1,0.3c0,0.1,0.1,0.2,0.2,0.2c0,0,0.1,0,0.1,0l1.5,0C322.5,153.6,322.5,153.5,322.5,153.4z M319.4,153.3
									c0-0.1-0.2-0.3-0.3-0.3l-1.5,0c-0.1,0-0.2,0.1-0.1,0.3c0,0.1,0.1,0.2,0.2,0.2c0,0,0.1,0,0.1,0l1.5,0
									C319.4,153.6,319.5,153.5,319.4,153.3z M316.4,153.3c-0.1-0.1-0.2-0.3-0.3-0.3l-1.1,0l-0.5,0c-0.1,0-0.2,0.1-0.1,0.3
									c0,0.1,0.1,0.2,0.2,0.2c0,0,0.1,0,0.1,0l0.2,0l1.3,0C316.3,153.6,316.4,153.5,316.4,153.3z M313.3,153.3
									c0-0.1-0.2-0.3-0.3-0.3l-0.2,0l-1.3,0c-0.1,0-0.2,0.1-0.1,0.3c0,0.1,0.1,0.2,0.2,0.2c0,0,0.1,0,0.1,0l1.1,0l0.5,0
									C313.3,153.6,313.3,153.5,313.3,153.3z M310.2,153.3c0-0.1-0.2-0.3-0.3-0.3l-1.5,0c-0.1,0-0.2,0.1-0.1,0.3
									c0,0.1,0.1,0.2,0.2,0.2c0,0,0.1,0,0.1,0l1.5,0C310.2,153.6,310.3,153.5,310.2,153.3z M307.1,153.3c0-0.1-0.2-0.3-0.3-0.3
									l-1.5,0c-0.1,0-0.2,0.1-0.1,0.3c0,0.1,0.1,0.2,0.2,0.2c0,0,0.1,0,0.1,0l1.5,0C307.1,153.6,307.2,153.4,307.1,153.3z
									 M304.1,153.3c0-0.1-0.2-0.3-0.3-0.3l-1.5,0c-0.1,0-0.2,0.1-0.1,0.3c0,0.1,0.1,0.2,0.2,0.2c0,0,0.1,0,0.1,0l1.5,0
									C304.1,153.5,304.1,153.4,304.1,153.3z"/>
							</g>
							<g>
								<path class="st80" d="M300,153.5c-0.1,0-0.1-0.1-0.2-0.2c0-0.1,0-0.3,0.1-0.3l0.7,0c0.1,0,0.3,0.1,0.3,0.3
									c0,0.1,0,0.3-0.1,0.3l-0.7,0C300.1,153.5,300.1,153.5,300,153.5z"/>
							</g>
						</g>
						<g>
							<g>
								<path class="st80" d="M332.7,129.8c-0.1-0.1-0.2-0.2-0.2-0.4l0.1-0.8c0-0.1,0.1-0.2,0.3-0.1c0.1,0.1,0.2,0.2,0.2,0.4
									l-0.1,0.8C333,129.8,332.9,129.8,332.7,129.8z"/>
							</g>
							<g>
								<path class="st80" d="M332.6,130.8c-0.1-0.1-0.2,0-0.3,0.1l-0.2,1.5c0,0.1,0.1,0.3,0.2,0.4s0.2,0,0.3-0.1l0.2-1.5
									C332.8,131,332.7,130.8,332.6,130.8z M332.1,133.7c-0.1-0.1-0.2,0-0.3,0.1l-0.2,1.5c0,0.1,0.1,0.3,0.2,0.4
									c0.1,0.1,0.2,0,0.3-0.1l0.2-1.5C332.3,133.9,332.2,133.8,332.1,133.7z M331.6,136.6c-0.1-0.1-0.2,0-0.3,0.1l-0.2,1.5
									c0,0.1,0.1,0.3,0.2,0.4c0.1,0.1,0.2,0,0.3-0.1l0.2-1.5C331.8,136.8,331.7,136.7,331.6,136.6z M331.1,139.5
									c-0.1-0.1-0.2,0-0.3,0.1l-0.2,1.5c0,0.1,0.1,0.3,0.2,0.4c0.1,0.1,0.2,0,0.3-0.1l0.2-1.5
									C331.3,139.8,331.2,139.6,331.1,139.5z M330.6,142.4c-0.1-0.1-0.2,0-0.3,0.1l-0.2,1.5c0,0.1,0.1,0.3,0.2,0.4s0.2,0,0.3-0.1
									l0.2-1.5C330.8,142.7,330.7,142.5,330.6,142.4z M330.1,145.4c-0.1-0.1-0.2,0-0.3,0.1l-0.2,1.5c0,0.1,0.1,0.3,0.2,0.4
									c0.1,0.1,0.2,0,0.3-0.1l0.2-1.5C330.3,145.6,330.2,145.4,330.1,145.4z M329.6,148.3c-0.1-0.1-0.2,0-0.3,0.1l-0.2,1.5
									c0,0.1,0.1,0.3,0.2,0.4c0.1,0.1,0.2,0,0.3-0.1l0.2-1.5C329.8,148.5,329.7,148.4,329.6,148.3z"/>
							</g>
							<g>
								<path class="st80" d="M328.9,152.4c-0.1-0.1-0.2-0.2-0.2-0.4l0.1-0.8c0-0.1,0.1-0.2,0.3-0.1c0.1,0.1,0.2,0.2,0.2,0.4
									l-0.1,0.8C329.1,152.5,329,152.5,328.9,152.4z"/>
							</g>
						</g>
						<g>
							<path class="st80" d="M334.6,126.3c-0.1-0.1-0.1-0.1-0.2-0.1l-2.2,0c-0.1,0-0.1,0-0.2,0.1l-0.4,2.3c0,0.1,0,0.2,0.1,0.3
								c0,0,0.1,0.1,0.1,0.1s0.1,0,0.1,0l0.7,0l0.5,0l1,0c0.1,0,0.1,0,0.2-0.1l0.4-2.3C334.7,126.5,334.6,126.4,334.6,126.3z
								 M333.8,128.5l-1,0l-0.8,0l0.3-1.8l1.7,0L333.8,128.5z"/>
						</g>
						<g>
							<path class="st80" d="M330.2,152.1c-0.1-0.1-0.1-0.1-0.2-0.1l-0.7,0l-0.5,0l-1,0c-0.1,0-0.1,0-0.2,0.1l-0.4,2.3
								c0,0.1,0,0.2,0.1,0.3c0,0,0.1,0.1,0.1,0.1s0.1,0,0.1,0l2.2,0c0.1,0,0.1,0,0.2-0.1l0.4-2.3
								C330.3,152.3,330.3,152.2,330.2,152.1z M329.4,154.3l-1.7,0l0.3-1.8l1,0l0.8,0L329.4,154.3z"/>
						</g>
						<g>
							<path class="st80" d="M304.8,126.2c-0.1-0.1-0.2-0.1-0.2-0.1l-2.2,0c-0.1,0-0.1,0-0.1,0.1l-0.4,2.3c0,0.1,0,0.2,0.1,0.3
								c0,0,0.1,0.1,0.1,0.1c0,0,0.1,0,0.1,0l0.7,0l0.5,0l1,0c0.1,0,0.1-0.1,0.1-0.1l0.4-2.4C304.9,126.4,304.8,126.3,304.8,126.2z
								 M304,128.4l-1,0l-0.8,0l0.3-1.8l1.7,0L304,128.4z"/>
						</g>
						<g>
							<path class="st80" d="M300.4,152c-0.1-0.1-0.2-0.1-0.2-0.1l-0.7,0l-0.5,0l-1,0c-0.1,0-0.1,0.1-0.1,0.1l-0.4,2.3
								c0,0.1,0,0.2,0.1,0.3c0,0,0.1,0.1,0.1,0.1c0,0,0.1,0,0.1,0l2.2,0c0.1,0,0.1-0.1,0.1-0.1l0.4-2.3
								C300.5,152.1,300.5,152,300.4,152z M299.7,154.2l-1.7,0l0.3-1.8l1,0l0.1,0l0.7,0L299.7,154.2z"/>
						</g>
						<g>
							<path class="st80" d="M331.8,141.9c-0.1,0.8-0.7,1.4-1.4,1.4c-0.6,0-1-0.6-0.9-1.4c0.1-0.8,0.7-1.4,1.4-1.4
								C331.5,140.6,331.9,141.2,331.8,141.9z"/>
						</g>
						<g>
							<path class="st80" d="M319.3,127.5c-0.1,0.8-0.7,1.4-1.4,1.4c-0.6,0-1-0.6-0.9-1.4c0.1-0.8,0.7-1.4,1.4-1.4
								C319,126.2,319.4,126.8,319.3,127.5z"/>
						</g>
						<g>
							<path class="st80" d="M315,153.3c-0.1,0.8-0.7,1.4-1.4,1.4c-0.6,0-1-0.6-0.9-1.4c0.1-0.8,0.7-1.4,1.4-1.4
								C314.7,152,315.1,152.6,315,153.3z"/>
						</g>
						<g>
							<path class="st80" d="M302,141.9c-0.1,0.8-0.7,1.4-1.4,1.4c-0.6,0-1-0.6-0.9-1.4c0.1-0.8,0.7-1.4,1.4-1.4
								C301.7,140.5,302.1,141.1,302,141.9z"/>
						</g>
					</g>
					<path id="XMLID_313_" class="st80" d="M321.7,139.5l-1.3-0.2c-0.1,0-0.2-0.1-0.2-0.2c0-0.3-0.1-0.5-0.2-0.8c0-0.1,0-0.2,0-0.3
						l1.1-1.2c0.1-0.1,0-0.2,0-0.3l-0.8-1c-0.1-0.1-0.2-0.1-0.3-0.1l-1.3,0.9c-0.1,0.1-0.2,0-0.3,0c-0.2-0.1-0.4-0.2-0.7-0.3
						c-0.1,0-0.2-0.1-0.2-0.2l0.1-1.4c0-0.1-0.1-0.2-0.1-0.2l-1.5,0c-0.1,0-0.2,0.1-0.2,0.2l-0.4,1.4c0,0.1-0.1,0.2-0.2,0.2
						c-0.3,0.1-0.6,0.2-0.9,0.4c-0.1,0-0.2,0-0.3-0.1l-0.8-0.8c-0.1-0.1-0.2-0.1-0.3,0l-1.3,1.1c-0.1,0.1-0.1,0.2,0,0.3l0.6,1
						c0.1,0.1,0.1,0.2,0,0.3c-0.2,0.3-0.3,0.6-0.5,0.9c0,0.1-0.1,0.2-0.2,0.2l-1.4,0.2c-0.1,0-0.2,0.1-0.2,0.2l-0.3,1.6
						c0,0.1,0,0.2,0.1,0.2l1.3,0.2c0.1,0,0.2,0.1,0.2,0.2c0,0.3,0.1,0.5,0.2,0.8c0,0.1,0,0.2,0,0.3l-1.1,1.2c-0.1,0.1,0,0.2,0,0.3
						l0.8,1c0.1,0.1,0.2,0.1,0.3,0.1l1.3-0.9c0.1,0,0.2,0,0.3,0c0.2,0.1,0.4,0.2,0.7,0.3c0.1,0,0.2,0.1,0.2,0.2l-0.1,1.4
						c0,0.1,0.1,0.2,0.1,0.2l1.5,0c0.1,0,0.2-0.1,0.2-0.2l0.4-1.4c0-0.1,0.1-0.2,0.2-0.2c0.3-0.1,0.6-0.2,0.9-0.4
						c0.1,0,0.2,0,0.3,0.1l0.8,0.8c0.1,0.1,0.2,0.1,0.3,0.1l1.3-1.1c0.1-0.1,0.1-0.2,0-0.3l-0.6-1c-0.1-0.1-0.1-0.2,0-0.3
						c0.2-0.3,0.4-0.6,0.5-0.9c0-0.1,0.1-0.2,0.2-0.2l1.4-0.1c0.1,0,0.2-0.1,0.2-0.2l0.3-1.6C321.9,139.6,321.8,139.5,321.7,139.5z
						 M315.4,143.1c-1.4,0-2.3-1.2-2.1-2.6c0.2-1.5,1.6-2.6,3-2.6c1.4,0,2.3,1.2,2.1,2.6C318.1,141.9,316.8,143.1,315.4,143.1z"/>
				</g>
				<path class="st94" d="M256.6,167.6l1.3-7.5c0.2-0.9,1-1.6,1.9-1.6l67.9,0.3c0.9,0,1.5,0.7,1.3,1.7l-1.3,7.5
					c-0.2,0.9-1,1.6-1.9,1.6l-67.9-0.3C257,169.2,256.4,168.5,256.6,167.6z"/>
			</g>
		</g>
		<g>
			<g>
				<path d="M300.6,71.5c0,0,0-0.1,0-0.1c0,0,0,0,0,0c0,0,0-0.1,0-0.1c0-0.1,0-0.1,0-0.2c0,0,0-0.1,0-0.1c0,0,0,0,0-0.1
					c0-0.1,0-0.1-0.1-0.1c0,0,0,0,0,0c0,0-0.1-0.1-0.1-0.1c-0.2-0.3-0.5-0.4-0.9-0.4l-98.6,0.4c-0.8,0-1.6,0.7-1.8,1.6L187.5,139
					c0,0,0,0,0,0l-0.1,0.3c-0.1,0.4,0.1,0.8,0.3,1.1c0,0,0,0,0.1,0.1c0,0,0,0.1,0.1,0.1c0,0,0.1,0.1,0.1,0.1c0.1,0,0.1,0.1,0.2,0.1
					c0.1,0.1,0.3,0.1,0.5,0.1l0,0l0,0l1.4,0l97.2-0.4c0.8,0,1.6-0.7,1.8-1.6l11.6-67.2C300.6,71.6,300.6,71.6,300.6,71.5z"/>
			</g>
			<g id="XMLID_311_">
				<path id="XMLID_312_" class="st80" d="M300.6,71.7c0.1-0.9-0.4-1.6-1.2-1.6l-98.6,0.4c-0.8,0-1.6,0.7-1.8,1.6l-0.8,4.6
					l101.6-0.4L300.6,71.7z"/>
			</g>
			<g id="XMLID_307_">
				<path id="XMLID_310_" class="st87" d="M291.5,72.1c-0.5,0-0.9,0.5-1.1,1.2s0.2,1.2,0.6,1.2c0.5,0,0.9-0.5,1.1-1.2
					C292.3,72.6,292,72.1,291.5,72.1z"/>
				<path id="XMLID_309_" class="st87" d="M294.6,72.1c-0.5,0-0.9,0.5-1.1,1.2c-0.1,0.7,0.2,1.2,0.6,1.2c0.5,0,0.9-0.5,1.1-1.2
					C295.3,72.6,295,72.1,294.6,72.1z"/>
				<path id="XMLID_308_" class="st87" d="M297.6,72c-0.5,0-0.9,0.5-1.1,1.2s0.2,1.2,0.6,1.2c0.5,0,0.9-0.5,1.1-1.2
					S298.1,72,297.6,72z"/>
			</g>
			<g id="Code_4_">
				<g>
					<g id="XMLID_294_">
						<path id="XMLID_305_" class="st80" d="M226.5,82.3c0-0.1,0.1-0.2,0.1-0.2l1.3-1.5c0,0,0,0,0.1,0c0,0,0,0,0,0
							c0,0,0.1,0,0.1,0.1c0,0,0,0.1,0,0.1l-0.1,0.7c0,0.1,0,0.2-0.1,0.2c0,0-0.1,0.1-0.1,0.1l-0.7,0.8l0.4,0.8c0,0.1,0,0.1,0.1,0.1
							c0,0,0,0.1,0,0.2l-0.1,0.7c0,0,0,0.1-0.1,0.1c0,0-0.1,0.1-0.1,0.1c0,0,0,0,0,0c0,0,0,0,0,0l-0.8-1.5c0-0.1-0.1-0.1,0-0.2
							L226.5,82.3z"/>
						<path id="XMLID_303_" class="st80" d="M230.9,79.2c0-0.1,0.1-0.1,0.1-0.2c0,0,0.1-0.1,0.2-0.1l0.4,0c0,0,0.1,0,0.1,0.1
							c0,0,0,0.1,0,0.1c0,0,0,0,0,0.1l-2.9,6.3c0,0.1-0.1,0.1-0.1,0.2c0,0.1-0.1,0.1-0.2,0.1l-0.4,0c0,0-0.1,0-0.1-0.1
							c0,0,0-0.1,0-0.1c0,0,0,0,0-0.1L230.9,79.2z"/>
						<path id="XMLID_301_" class="st80" d="M233.2,82.8c0,0.1-0.1,0.2-0.1,0.2l-1.3,1.5c0,0,0,0-0.1,0c0,0,0,0,0,0
							c0,0-0.1,0-0.1-0.1c0,0,0-0.1,0-0.1l0.1-0.7c0-0.1,0-0.2,0.1-0.2c0,0,0.1-0.1,0.1-0.1l0.7-0.8l-0.4-0.8c0-0.1,0-0.1-0.1-0.1
							c0,0,0-0.1,0-0.2l0.1-0.7c0,0,0-0.1,0.1-0.1c0,0,0.1-0.1,0.1-0.1c0,0,0,0,0,0c0,0,0,0,0,0l0.8,1.5c0,0.1,0.1,0.1,0,0.2
							L233.2,82.8z"/>
						<path id="XMLID_299_" class="st80" d="M235.9,83.9C236,83.9,236,83.9,235.9,83.9c0.1,0.1,0.1,0.2,0.1,0.2l-0.1,0.8
							c0,0.1,0,0.1-0.1,0.1c0,0-0.1,0.1-0.1,0.1l-0.5,0c0,0-0.1,0-0.1-0.1c0,0,0-0.1,0-0.1l0.1-0.8c0-0.1,0-0.1,0.1-0.1
							c0,0,0.1-0.1,0.1-0.1L235.9,83.9z"/>
						<path id="XMLID_297_" class="st80" d="M237.6,83.9C237.7,83.9,237.7,83.9,237.6,83.9c0.1,0.1,0.1,0.2,0.1,0.2l-0.1,0.8
							c0,0.1,0,0.1-0.1,0.1c0,0-0.1,0.1-0.1,0.1l-0.5,0c0,0-0.1,0-0.1-0.1c0,0,0-0.1,0-0.1l0.1-0.8c0-0.1,0-0.1,0.1-0.1
							c0,0,0.1-0.1,0.1-0.1L237.6,83.9z"/>
						<path id="XMLID_295_" class="st80" d="M239.3,83.9C239.4,83.9,239.4,83.9,239.3,83.9c0.1,0.1,0.1,0.2,0.1,0.2l-0.1,0.8
							c0,0.1,0,0.1-0.1,0.1c0,0-0.1,0.1-0.1,0.1l-0.5,0c0,0-0.1,0-0.1-0.1c0,0,0-0.1,0-0.1l0.1-0.8c0-0.1,0-0.1,0.1-0.1
							c0,0,0.1-0.1,0.1-0.1L239.3,83.9z"/>
					</g>
					<path id="XMLID_293_" class="st80" d="M225.9,88.2l20.8-0.1c0.3,0,0.5,0.2,0.4,0.5c-0.1,0.3-0.3,0.5-0.6,0.5l-20.8,0.1
						c-0.3,0-0.5-0.2-0.4-0.5C225.4,88.4,225.6,88.2,225.9,88.2z"/>
					<path id="XMLID_292_" class="st88" d="M231.7,101l56.5-0.3c0.3,0,0.5,0.2,0.4,0.5c-0.1,0.3-0.3,0.5-0.6,0.5l-56.5,0.3
						c-0.3,0-0.5-0.2-0.4-0.5C231.1,101.3,231.4,101,231.7,101z"/>
					<path id="XMLID_291_" class="st88" d="M230.9,105.3l7.9,0c0.3,0,0.5,0.2,0.4,0.5c-0.1,0.3-0.3,0.5-0.6,0.5l-7.9,0
						c-0.3,0-0.5-0.2-0.4-0.5C230.3,105.6,230.6,105.3,230.9,105.3z"/>
					<path id="XMLID_290_" class="st88" d="M230.2,109.6l7.9,0c0.3,0,0.5,0.2,0.4,0.5s-0.3,0.5-0.6,0.5l-7.9,0
						c-0.3,0-0.5-0.2-0.4-0.5C229.6,109.9,229.9,109.6,230.2,109.6z"/>
					<path id="XMLID_289_" class="st80" d="M248.8,88l45.6-0.2c0.3,0,0.5,0.2,0.4,0.5c-0.1,0.3-0.3,0.5-0.6,0.5l-45.6,0.2
						c-0.3,0-0.5-0.2-0.4-0.5C248.2,88.3,248.5,88,248.8,88z"/>
					<path id="XMLID_288_" class="st80" d="M225.9,135.4l12.7,0c0.3,0,0.5,0.2,0.4,0.5s-0.3,0.5-0.6,0.5l-12.7,0
						c-0.3,0-0.5-0.2-0.4-0.5C225.3,135.6,225.6,135.4,225.9,135.4z"/>
					<path id="XMLID_287_" class="st80" d="M240.6,135.3l45.6-0.2c0.3,0,0.5,0.2,0.4,0.5c-0.1,0.3-0.3,0.5-0.6,0.5l-45.6,0.2
						c-0.3,0-0.5-0.2-0.4-0.5C240.1,135.6,240.3,135.3,240.6,135.3z"/>
					<path id="XMLID_286_" class="st80" d="M242.9,122.5l45.6-0.2c0.3,0,0.5,0.2,0.4,0.5c-0.1,0.3-0.3,0.5-0.6,0.5l-45.6,0.2
						c-0.3,0-0.5-0.2-0.4-0.5C242.3,122.7,242.6,122.5,242.9,122.5z"/>
					<path id="XMLID_285_" class="st80" d="M242.1,126.8l45.6-0.2c0.3,0,0.5,0.2,0.4,0.5c-0.1,0.3-0.3,0.5-0.6,0.5l-45.6,0.2
						c-0.3,0-0.5-0.2-0.4-0.5C241.5,127,241.8,126.8,242.1,126.8z"/>
					<path id="XMLID_284_" class="st52" d="M226.7,131.1l12.7,0c0.3,0,0.5,0.2,0.4,0.5s-0.3,0.5-0.6,0.5l-12.7,0
						c-0.3,0-0.5-0.2-0.4-0.5C226.1,131.3,226.4,131.1,226.7,131.1z"/>
					<path id="XMLID_283_" class="st80" d="M238.4,122.5l1.6,0c0.3,0,0.5,0.2,0.4,0.5c-0.1,0.3-0.3,0.5-0.6,0.5l-1.6,0
						c-0.3,0-0.5-0.2-0.4-0.5C237.8,122.7,238.1,122.5,238.4,122.5z"/>
					<g id="XMLID_280_">
						<path id="XMLID_282_" class="st80" d="M225.2,92.5l10.5-0.1c0.3,0,0.5,0.2,0.4,0.5c-0.1,0.3-0.3,0.5-0.6,0.5L225,93.5
							c-0.3,0-0.5-0.2-0.4-0.5C224.6,92.7,224.9,92.5,225.2,92.5z"/>
						<path id="XMLID_281_" class="st89" d="M225.2,92.5l10.5-0.1c0.3,0,0.5,0.2,0.4,0.5c-0.1,0.3-0.3,0.5-0.6,0.5L225,93.5
							c-0.3,0-0.5-0.2-0.4-0.5C224.6,92.7,224.9,92.5,225.2,92.5z"/>
					</g>
					<g id="XMLID_277_">
						<path id="XMLID_279_" class="st80" d="M224.5,96.8l4.9,0c0.3,0,0.5,0.2,0.4,0.5c-0.1,0.3-0.3,0.5-0.6,0.5l-4.9,0
							c-0.3,0-0.5-0.2-0.4-0.5C223.9,97,224.2,96.8,224.5,96.8z"/>
						<path id="XMLID_278_" class="st89" d="M224.5,96.8l4.9,0c0.3,0,0.5,0.2,0.4,0.5c-0.1,0.3-0.3,0.5-0.6,0.5l-4.9,0
							c-0.3,0-0.5-0.2-0.4-0.5C223.9,97,224.2,96.8,224.5,96.8z"/>
					</g>
					<g id="XMLID_274_">
						<path id="XMLID_276_" class="st80" d="M223.7,101.1l4.9,0c0.3,0,0.5,0.2,0.4,0.5c-0.1,0.3-0.3,0.5-0.6,0.5l-4.9,0
							c-0.3,0-0.5-0.2-0.4-0.5C223.1,101.3,223.4,101.1,223.7,101.1z"/>
						<path id="XMLID_275_" class="st89" d="M223.7,101.1l4.9,0c0.3,0,0.5,0.2,0.4,0.5c-0.1,0.3-0.3,0.5-0.6,0.5l-4.9,0
							c-0.3,0-0.5-0.2-0.4-0.5C223.1,101.3,223.4,101.1,223.7,101.1z"/>
					</g>
					<g id="XMLID_271_">
						<path id="XMLID_273_" class="st80" d="M223,105.4l4.9,0c0.3,0,0.5,0.2,0.4,0.5c-0.1,0.3-0.3,0.5-0.6,0.5l-4.9,0
							c-0.3,0-0.5-0.2-0.4-0.5C222.4,105.6,222.7,105.4,223,105.4z"/>
						<path id="XMLID_272_" class="st89" d="M223,105.4l4.9,0c0.3,0,0.5,0.2,0.4,0.5c-0.1,0.3-0.3,0.5-0.6,0.5l-4.9,0
							c-0.3,0-0.5-0.2-0.4-0.5C222.4,105.6,222.7,105.4,223,105.4z"/>
					</g>
					<g id="XMLID_268_">
						<path id="XMLID_270_" class="st80" d="M222.2,109.7l4.9,0c0.3,0,0.5,0.2,0.4,0.5s-0.3,0.5-0.6,0.5l-4.9,0
							c-0.3,0-0.5-0.2-0.4-0.5C221.7,109.9,221.9,109.7,222.2,109.7z"/>
						<path id="XMLID_269_" class="st89" d="M222.2,109.7l4.9,0c0.3,0,0.5,0.2,0.4,0.5s-0.3,0.5-0.6,0.5l-4.9,0
							c-0.3,0-0.5-0.2-0.4-0.5C221.7,109.9,221.9,109.7,222.2,109.7z"/>
					</g>
					<g id="XMLID_265_">
						<path id="XMLID_267_" class="st80" d="M237.7,92.4l6.3,0c0.3,0,0.5,0.2,0.4,0.5c-0.1,0.3-0.3,0.5-0.6,0.5l-6.3,0
							c-0.3,0-0.5-0.2-0.4-0.5C237.1,92.6,237.4,92.4,237.7,92.4z"/>
						<path id="XMLID_266_" class="st89" d="M237.7,92.4l6.3,0c0.3,0,0.5,0.2,0.4,0.5c-0.1,0.3-0.3,0.5-0.6,0.5l-6.3,0
							c-0.3,0-0.5-0.2-0.4-0.5C237.1,92.6,237.4,92.4,237.7,92.4z"/>
					</g>
					<g id="XMLID_263_">
						<path id="XMLID_264_" class="st52" d="M243,118.2l46.2-0.2c0.3,0,0.5,0.2,0.4,0.5c-0.1,0.3-0.3,0.5-0.6,0.5l-46.2,0.2
							c-0.3,0-0.5-0.2-0.4-0.5C242.4,118.4,242.7,118.2,243,118.2z"/>
					</g>
					<g id="XMLID_261_">
						<path id="XMLID_262_" class="st52" d="M283.7,113.7l6.3,0c0.3,0,0.5,0.2,0.4,0.5c-0.1,0.3-0.3,0.5-0.6,0.5l-6.3,0
							c-0.3,0-0.5-0.2-0.4-0.5C283.1,113.9,283.4,113.7,283.7,113.7z"/>
					</g>
					<g id="XMLID_259_">
						<path id="XMLID_260_" class="st52" d="M235.4,113.9l46.2-0.2c0.3,0,0.5,0.2,0.4,0.5c-0.1,0.3-0.3,0.5-0.6,0.5l-46.2,0.2
							c-0.3,0-0.5-0.2-0.4-0.5C234.8,114.1,235.1,113.9,235.4,113.9z"/>
					</g>
					<g id="XMLID_256_">
						<path id="XMLID_258_" class="st80" d="M232.4,96.7l10.5-0.1c0.3,0,0.5,0.2,0.4,0.5c-0.1,0.3-0.3,0.5-0.6,0.5l-10.5,0.1
							c-0.3,0-0.5-0.2-0.4-0.5C231.8,97,232.1,96.7,232.4,96.7z"/>
						<path id="XMLID_257_" class="st89" d="M232.4,96.7l10.5-0.1c0.3,0,0.5,0.2,0.4,0.5c-0.1,0.3-0.3,0.5-0.6,0.5l-10.5,0.1
							c-0.3,0-0.5-0.2-0.4-0.5C231.8,97,232.1,96.7,232.4,96.7z"/>
					</g>
					<g id="XMLID_253_">
						<path id="XMLID_255_" class="st80" d="M244.9,96.7l42-0.2c0.3,0,0.5,0.2,0.4,0.5c-0.1,0.3-0.3,0.5-0.6,0.5l-42,0.2
							c-0.3,0-0.5-0.2-0.4-0.5C244.4,96.9,244.6,96.7,244.9,96.7z"/>
						<path id="XMLID_254_" class="st89" d="M244.9,96.7l42-0.2c0.3,0,0.5,0.2,0.4,0.5c-0.1,0.3-0.3,0.5-0.6,0.5l-42,0.2
							c-0.3,0-0.5-0.2-0.4-0.5C244.4,96.9,244.6,96.7,244.9,96.7z"/>
					</g>
				</g>
				<g class="st90">
					<path class="st52" d="M218.4,87.3l2.9,0c0.3,0,0.5,0.3,0.4,0.6l-0.2,1c-0.1,0.3-0.3,0.6-0.6,0.6l-2.9,0c-0.3,0-0.5-0.3-0.4-0.6
						l0.2-1C217.9,87.5,218.2,87.3,218.4,87.3z"/>
					<path class="st52" d="M217.7,91.6l2.9,0c0.3,0,0.5,0.3,0.4,0.6l-0.2,1c-0.1,0.3-0.3,0.6-0.6,0.6l-2.9,0c-0.3,0-0.5-0.3-0.4-0.6
						l0.2-1C217.1,91.9,217.4,91.6,217.7,91.6z"/>
					<path class="st52" d="M217,96l2.9,0c0.3,0,0.5,0.3,0.4,0.6l-0.2,1c-0.1,0.3-0.3,0.6-0.6,0.6l-2.9,0c-0.3,0-0.5-0.3-0.4-0.6
						l0.2-1C216.4,96.2,216.7,96,217,96z"/>
					<path class="st52" d="M216.2,100.3l2.9,0c0.3,0,0.5,0.3,0.4,0.6l-0.2,1c-0.1,0.3-0.3,0.6-0.6,0.6l-2.9,0
						c-0.3,0-0.5-0.3-0.4-0.6l0.2-1C215.6,100.6,215.9,100.3,216.2,100.3z"/>
					<path class="st52" d="M215.5,104.6l2.9,0c0.3,0,0.5,0.3,0.4,0.6l-0.2,1c-0.1,0.3-0.3,0.6-0.6,0.6l-2.9,0
						c-0.3,0-0.5-0.3-0.4-0.6l0.2-1C214.9,104.9,215.2,104.7,215.5,104.6z"/>
					<path class="st52" d="M214.7,109l2.9,0c0.3,0,0.5,0.3,0.4,0.6l-0.2,1c-0.1,0.3-0.3,0.6-0.6,0.6l-2.9,0c-0.3,0-0.5-0.3-0.4-0.6
						l0.2-1C214.1,109.2,214.4,109,214.7,109z"/>
					<path class="st52" d="M214,113.3l2.9,0c0.3,0,0.5,0.3,0.4,0.6l-0.2,1c-0.1,0.3-0.3,0.6-0.6,0.6l-2.9,0c-0.3,0-0.5-0.3-0.4-0.6
						l0.2-1C213.4,113.6,213.7,113.3,214,113.3z"/>
					<path class="st52" d="M213.2,117.7l2.9,0c0.3,0,0.5,0.3,0.4,0.6l-0.2,1c-0.1,0.3-0.3,0.6-0.6,0.6l-2.9,0
						c-0.3,0-0.5-0.3-0.4-0.6l0.2-1C212.7,117.9,212.9,117.7,213.2,117.7z"/>
					<path class="st52" d="M212.5,122l2.9,0c0.3,0,0.5,0.3,0.4,0.6l-0.2,1c-0.1,0.3-0.3,0.6-0.6,0.6l-2.9,0c-0.3,0-0.5-0.3-0.4-0.6
						l0.2-1C211.9,122.3,212.2,122,212.5,122z"/>
					<path class="st52" d="M211.7,126.3l2.9,0c0.3,0,0.5,0.3,0.4,0.6l-0.2,1c-0.1,0.3-0.3,0.6-0.6,0.6l-2.9,0
						c-0.3,0-0.5-0.3-0.4-0.6l0.2-1C211.2,126.6,211.4,126.3,211.7,126.3z"/>
					<path class="st52" d="M211,130.7l2.9,0c0.3,0,0.5,0.3,0.4,0.6l-0.2,1c-0.1,0.3-0.3,0.6-0.6,0.6l-2.9,0c-0.3,0-0.5-0.3-0.4-0.6
						l0.2-1C210.4,130.9,210.7,130.7,211,130.7z"/>
					<path class="st52" d="M210.2,135l2.9,0c0.3,0,0.5,0.3,0.4,0.6l-0.2,1c-0.1,0.3-0.3,0.6-0.6,0.6l-2.9,0c-0.3,0-0.5-0.3-0.4-0.6
						l0.2-1C209.7,135.3,209.9,135,210.2,135z"/>
				</g>
				<g>
					<path class="st87" d="M200.7,79.3l15.6-0.1c0.6,0,1,0.5,0.9,1.1l-2.9,16.9c-0.1,0.6-0.7,1.1-1.2,1.1l-15.6,0.1
						c-0.6,0-1-0.5-0.9-1.1l2.9-16.9C199.6,79.8,200.1,79.3,200.7,79.3z"/>
					<g>
						<g>
							<path id="XMLID_252_" class="st80" d="M199.4,95.2l1.4,0c0.3,0,0.5,0.2,0.4,0.5c-0.1,0.3-0.3,0.5-0.6,0.5l-1.4,0
								c-0.3,0-0.5-0.2-0.4-0.5C198.9,95.5,199.1,95.2,199.4,95.2z"/>
							<path id="XMLID_251_" class="st89" d="M199.4,95.2l1.4,0c0.3,0,0.5,0.2,0.4,0.5c-0.1,0.3-0.3,0.5-0.6,0.5l-1.4,0
								c-0.3,0-0.5-0.2-0.4-0.5C198.9,95.5,199.1,95.2,199.4,95.2z"/>
						</g>
						<g>
							<path id="XMLID_250_" class="st80" d="M201.8,81.4l1.4,0c0.3,0,0.5,0.2,0.4,0.5c-0.1,0.3-0.3,0.5-0.6,0.5l-1.4,0
								c-0.3,0-0.5-0.2-0.4-0.5C201.2,81.7,201.5,81.4,201.8,81.4z"/>
							<path id="XMLID_249_" class="st89" d="M201.8,81.4l1.4,0c0.3,0,0.5,0.2,0.4,0.5c-0.1,0.3-0.3,0.5-0.6,0.5l-1.4,0
								c-0.3,0-0.5-0.2-0.4-0.5C201.2,81.7,201.5,81.4,201.8,81.4z"/>
						</g>
						<g>
							<path class="st80" d="M203.3,84.2l1.4,0c0.3,0,0.5,0.2,0.4,0.5s-0.3,0.5-0.6,0.5l-1.4,0c-0.3,0-0.5-0.2-0.4-0.5
								C202.8,84.4,203.1,84.2,203.3,84.2z"/>
							<path class="st89" d="M203.3,84.2l1.4,0c0.3,0,0.5,0.2,0.4,0.5s-0.3,0.5-0.6,0.5l-1.4,0c-0.3,0-0.5-0.2-0.4-0.5
								C202.8,84.4,203.1,84.2,203.3,84.2z"/>
						</g>
						<g>
							<path class="st80" d="M202.9,86.9l1.4,0c0.3,0,0.5,0.2,0.4,0.5c-0.1,0.3-0.3,0.5-0.6,0.5l-1.4,0c-0.3,0-0.5-0.2-0.4-0.5
								C202.3,87.2,202.6,86.9,202.9,86.9z"/>
							<path class="st89" d="M202.9,86.9l1.4,0c0.3,0,0.5,0.2,0.4,0.5c-0.1,0.3-0.3,0.5-0.6,0.5l-1.4,0c-0.3,0-0.5-0.2-0.4-0.5
								C202.3,87.2,202.6,86.9,202.9,86.9z"/>
						</g>
						<g>
							<path class="st80" d="M200.4,89.7l1.4,0c0.3,0,0.5,0.2,0.4,0.5s-0.3,0.5-0.6,0.5l-1.4,0c-0.3,0-0.5-0.2-0.4-0.5
								C199.8,90,200.1,89.7,200.4,89.7z"/>
							<path class="st89" d="M200.4,89.7l1.4,0c0.3,0,0.5,0.2,0.4,0.5s-0.3,0.5-0.6,0.5l-1.4,0c-0.3,0-0.5-0.2-0.4-0.5
								C199.8,90,200.1,89.7,200.4,89.7z"/>
						</g>
						<g>
							<path class="st80" d="M201.9,92.5l1.4,0c0.3,0,0.5,0.2,0.4,0.5c-0.1,0.3-0.3,0.5-0.6,0.5l-1.4,0c-0.3,0-0.5-0.2-0.4-0.5
								C201.4,92.7,201.6,92.5,201.9,92.5z"/>
							<path class="st89" d="M201.9,92.5l1.4,0c0.3,0,0.5,0.2,0.4,0.5c-0.1,0.3-0.3,0.5-0.6,0.5l-1.4,0c-0.3,0-0.5-0.2-0.4-0.5
								C201.4,92.7,201.6,92.5,201.9,92.5z"/>
						</g>
					</g>
					<g>
						<g>
							<path id="XMLID_248_" class="st80" d="M205.7,81.4l8.8,0c0.3,0,0.5,0.2,0.4,0.5c-0.1,0.3-0.3,0.5-0.6,0.5l-8.8,0
								c-0.3,0-0.5-0.2-0.4-0.5C205.2,81.7,205.4,81.4,205.7,81.4z"/>
							<path id="XMLID_247_" class="st91" d="M205.7,81.4l8.8,0c0.3,0,0.5,0.2,0.4,0.5c-0.1,0.3-0.3,0.5-0.6,0.5l-8.8,0
								c-0.3,0-0.5-0.2-0.4-0.5C205.2,81.7,205.4,81.4,205.7,81.4z"/>
						</g>
						<g>
							<path id="XMLID_246_" class="st80" d="M203.4,95.2l8.8,0c0.3,0,0.5,0.2,0.4,0.5c-0.1,0.3-0.3,0.5-0.6,0.5l-8.8,0
								c-0.3,0-0.5-0.2-0.4-0.5C202.8,95.5,203.1,95.2,203.4,95.2z"/>
							<path id="XMLID_245_" class="st91" d="M203.4,95.2l8.8,0c0.3,0,0.5,0.2,0.4,0.5c-0.1,0.3-0.3,0.5-0.6,0.5l-8.8,0
								c-0.3,0-0.5-0.2-0.4-0.5C202.8,95.5,203.1,95.2,203.4,95.2z"/>
						</g>
						<g>
							<path class="st80" d="M207.3,84.2l6.7,0c0.3,0,0.5,0.2,0.4,0.5c-0.1,0.3-0.3,0.5-0.6,0.5l-6.7,0c-0.3,0-0.5-0.2-0.4-0.5
								C206.7,84.4,207,84.2,207.3,84.2z"/>
							<path class="st91" d="M207.3,84.2l6.7,0c0.3,0,0.5,0.2,0.4,0.5c-0.1,0.3-0.3,0.5-0.6,0.5l-6.7,0c-0.3,0-0.5-0.2-0.4-0.5
								C206.7,84.4,207,84.2,207.3,84.2z"/>
						</g>
						<g>
							<path class="st80" d="M206.8,86.9l6.7,0c0.3,0,0.5,0.2,0.4,0.5c-0.1,0.3-0.3,0.5-0.6,0.5l-6.7,0c-0.3,0-0.5-0.2-0.4-0.5
								C206.2,87.2,206.5,86.9,206.8,86.9z"/>
							<path class="st91" d="M206.8,86.9l6.7,0c0.3,0,0.5,0.2,0.4,0.5c-0.1,0.3-0.3,0.5-0.6,0.5l-6.7,0c-0.3,0-0.5-0.2-0.4-0.5
								C206.2,87.2,206.5,86.9,206.8,86.9z"/>
						</g>
						<g>
							<path class="st80" d="M204.3,89.7l8.8,0c0.3,0,0.5,0.2,0.4,0.5c-0.1,0.3-0.3,0.5-0.6,0.5l-8.8,0c-0.3,0-0.5-0.2-0.4-0.5
								C203.7,89.9,204,89.7,204.3,89.7z"/>
							<path class="st91" d="M204.3,89.7l8.8,0c0.3,0,0.5,0.2,0.4,0.5c-0.1,0.3-0.3,0.5-0.6,0.5l-8.8,0c-0.3,0-0.5-0.2-0.4-0.5
								C203.7,89.9,204,89.7,204.3,89.7z"/>
						</g>
						<g>
							<path class="st80" d="M205.8,92.5l6.7,0c0.3,0,0.5,0.2,0.4,0.5c-0.1,0.3-0.3,0.5-0.6,0.5l-6.7,0c-0.3,0-0.5-0.2-0.4-0.5
								C205.3,92.7,205.6,92.5,205.8,92.5z"/>
							<path class="st91" d="M205.8,92.5l6.7,0c0.3,0,0.5,0.2,0.4,0.5c-0.1,0.3-0.3,0.5-0.6,0.5l-6.7,0c-0.3,0-0.5-0.2-0.4-0.5
								C205.3,92.7,205.6,92.5,205.8,92.5z"/>
						</g>
					</g>
				</g>
				<g>
					<path class="st87" d="M196.9,101.6l15.6-0.1c0.6,0,1,0.5,0.9,1.1l-5.7,33.3c-0.1,0.6-0.7,1.1-1.2,1.1l-15.6,0.1
						c-0.6,0-1-0.5-0.9-1.1l5.7-33.3C195.8,102.1,196.3,101.6,196.9,101.6z"/>
					<g>
						<g>
							<path id="XMLID_244_" class="st80" d="M198,103.7l1.4,0c0.3,0,0.5,0.2,0.4,0.5c-0.1,0.3-0.3,0.5-0.6,0.5l-1.4,0
								c-0.3,0-0.5-0.2-0.4-0.5C197.4,104,197.7,103.7,198,103.7z"/>
							<path id="XMLID_243_" class="st89" d="M198,103.7l1.4,0c0.3,0,0.5,0.2,0.4,0.5c-0.1,0.3-0.3,0.5-0.6,0.5l-1.4,0
								c-0.3,0-0.5-0.2-0.4-0.5C197.4,104,197.7,103.7,198,103.7z"/>
						</g>
						<g>
							<path class="st80" d="M199.5,106.5l1.4,0c0.3,0,0.5,0.2,0.4,0.5c-0.1,0.3-0.3,0.5-0.6,0.5l-1.4,0c-0.3,0-0.5-0.2-0.4-0.5
								C198.9,106.7,199.2,106.5,199.5,106.5z"/>
							<path class="st89" d="M199.5,106.5l1.4,0c0.3,0,0.5,0.2,0.4,0.5c-0.1,0.3-0.3,0.5-0.6,0.5l-1.4,0c-0.3,0-0.5-0.2-0.4-0.5
								C198.9,106.7,199.2,106.5,199.5,106.5z"/>
						</g>
						<g>
							<path class="st80" d="M199,109.2l1.4,0c0.3,0,0.5,0.2,0.4,0.5c-0.1,0.3-0.3,0.5-0.6,0.5l-1.4,0c-0.3,0-0.5-0.2-0.4-0.5
								C198.5,109.5,198.7,109.2,199,109.2z"/>
							<path class="st89" d="M199,109.2l1.4,0c0.3,0,0.5,0.2,0.4,0.5c-0.1,0.3-0.3,0.5-0.6,0.5l-1.4,0c-0.3,0-0.5-0.2-0.4-0.5
								C198.5,109.5,198.7,109.2,199,109.2z"/>
						</g>
						<g>
							<path class="st80" d="M196.5,112l1.4,0c0.3,0,0.5,0.2,0.4,0.5c-0.1,0.3-0.3,0.5-0.6,0.5l-1.4,0c-0.3,0-0.5-0.2-0.4-0.5
								C196,112.2,196.3,112,196.5,112z"/>
							<path class="st89" d="M196.5,112l1.4,0c0.3,0,0.5,0.2,0.4,0.5c-0.1,0.3-0.3,0.5-0.6,0.5l-1.4,0c-0.3,0-0.5-0.2-0.4-0.5
								C196,112.2,196.3,112,196.5,112z"/>
						</g>
					</g>
					<g>
						<g>
							<path id="XMLID_242_" class="st80" d="M201.9,103.7l8.8,0c0.3,0,0.5,0.2,0.4,0.5s-0.3,0.5-0.6,0.5l-8.8,0
								c-0.3,0-0.5-0.2-0.4-0.5C201.3,104,201.6,103.7,201.9,103.7z"/>
							<path id="XMLID_241_" class="st91" d="M201.9,103.7l8.8,0c0.3,0,0.5,0.2,0.4,0.5s-0.3,0.5-0.6,0.5l-8.8,0
								c-0.3,0-0.5-0.2-0.4-0.5C201.3,104,201.6,103.7,201.9,103.7z"/>
						</g>
						<g>
							<path class="st80" d="M203.4,106.5l6.7,0c0.3,0,0.5,0.2,0.4,0.5c-0.1,0.3-0.3,0.5-0.6,0.5l-6.7,0c-0.3,0-0.5-0.2-0.4-0.5
								C202.9,106.7,203.1,106.5,203.4,106.5z"/>
							<path class="st91" d="M203.4,106.5l6.7,0c0.3,0,0.5,0.2,0.4,0.5c-0.1,0.3-0.3,0.5-0.6,0.5l-6.7,0c-0.3,0-0.5-0.2-0.4-0.5
								C202.9,106.7,203.1,106.5,203.4,106.5z"/>
						</g>
						<g>
							<path class="st80" d="M203,109.2l6.7,0c0.3,0,0.5,0.2,0.4,0.5c-0.1,0.3-0.3,0.5-0.6,0.5l-6.7,0c-0.3,0-0.5-0.2-0.4-0.5
								C202.4,109.5,202.7,109.2,203,109.2z"/>
							<path class="st91" d="M203,109.2l6.7,0c0.3,0,0.5,0.2,0.4,0.5c-0.1,0.3-0.3,0.5-0.6,0.5l-6.7,0c-0.3,0-0.5-0.2-0.4-0.5
								C202.4,109.5,202.7,109.2,203,109.2z"/>
						</g>
						<g>
							<path class="st80" d="M200.5,112l8.8,0c0.3,0,0.5,0.2,0.4,0.5s-0.3,0.5-0.6,0.5l-8.8,0c-0.3,0-0.5-0.2-0.4-0.5
								C199.9,112.2,200.2,112,200.5,112z"/>
							<path class="st91" d="M200.5,112l8.8,0c0.3,0,0.5,0.2,0.4,0.5s-0.3,0.5-0.6,0.5l-8.8,0c-0.3,0-0.5-0.2-0.4-0.5
								C199.9,112.2,200.2,112,200.5,112z"/>
						</g>
						<g>
							<path class="st80" d="M198.1,114.8l1.4,0c0.3,0,0.5,0.2,0.4,0.5s-0.3,0.5-0.6,0.5l-1.4,0c-0.3,0-0.5-0.2-0.4-0.5
								C197.5,115,197.8,114.8,198.1,114.8z"/>
							<path class="st89" d="M198.1,114.8l1.4,0c0.3,0,0.5,0.2,0.4,0.5s-0.3,0.5-0.6,0.5l-1.4,0c-0.3,0-0.5-0.2-0.4-0.5
								C197.5,115,197.8,114.8,198.1,114.8z"/>
						</g>
						<g>
							<path class="st80" d="M197.6,117.5l1.4,0c0.3,0,0.5,0.2,0.4,0.5c-0.1,0.3-0.3,0.5-0.6,0.5l-1.4,0c-0.3,0-0.5-0.2-0.4-0.5
								C197,117.8,197.3,117.5,197.6,117.5z"/>
							<path class="st89" d="M197.6,117.5l1.4,0c0.3,0,0.5,0.2,0.4,0.5c-0.1,0.3-0.3,0.5-0.6,0.5l-1.4,0c-0.3,0-0.5-0.2-0.4-0.5
								C197,117.8,197.3,117.5,197.6,117.5z"/>
						</g>
						<g>
							<path class="st80" d="M202,114.8l6.7,0c0.3,0,0.5,0.2,0.4,0.5c-0.1,0.3-0.3,0.5-0.6,0.5l-6.7,0c-0.3,0-0.5-0.2-0.4-0.5
								C201.4,115,201.7,114.8,202,114.8z"/>
							<path class="st91" d="M202,114.8l6.7,0c0.3,0,0.5,0.2,0.4,0.5c-0.1,0.3-0.3,0.5-0.6,0.5l-6.7,0c-0.3,0-0.5-0.2-0.4-0.5
								C201.4,115,201.7,114.8,202,114.8z"/>
						</g>
						<g>
							<path class="st80" d="M201.5,117.5l6.7,0c0.3,0,0.5,0.2,0.4,0.5c-0.1,0.3-0.3,0.5-0.6,0.5l-6.7,0c-0.3,0-0.5-0.2-0.4-0.5
								C201,117.8,201.2,117.5,201.5,117.5z"/>
							<path class="st91" d="M201.5,117.5l6.7,0c0.3,0,0.5,0.2,0.4,0.5c-0.1,0.3-0.3,0.5-0.6,0.5l-6.7,0c-0.3,0-0.5-0.2-0.4-0.5
								C201,117.8,201.2,117.5,201.5,117.5z"/>
						</g>
						<g>
							<path class="st80" d="M194.2,125.8l1.4,0c0.3,0,0.5,0.2,0.4,0.5c-0.1,0.3-0.3,0.5-0.6,0.5l-1.4,0c-0.3,0-0.5-0.2-0.4-0.5
								C193.6,126.1,193.9,125.8,194.2,125.8z"/>
							<path class="st89" d="M194.2,125.8l1.4,0c0.3,0,0.5,0.2,0.4,0.5c-0.1,0.3-0.3,0.5-0.6,0.5l-1.4,0c-0.3,0-0.5-0.2-0.4-0.5
								C193.6,126.1,193.9,125.8,194.2,125.8z"/>
						</g>
						<g>
							<path class="st80" d="M198.1,125.8l8.8,0c0.3,0,0.5,0.2,0.4,0.5c-0.1,0.3-0.3,0.5-0.6,0.5l-8.8,0c-0.3,0-0.5-0.2-0.4-0.5
								C197.5,126.1,197.8,125.8,198.1,125.8z"/>
							<path class="st91" d="M198.1,125.8l8.8,0c0.3,0,0.5,0.2,0.4,0.5c-0.1,0.3-0.3,0.5-0.6,0.5l-8.8,0c-0.3,0-0.5-0.2-0.4-0.5
								C197.5,126.1,197.8,125.8,198.1,125.8z"/>
						</g>
						<g>
							<path class="st80" d="M195.7,128.6l1.4,0c0.3,0,0.5,0.2,0.4,0.5s-0.3,0.5-0.6,0.5l-1.4,0c-0.3,0-0.5-0.2-0.4-0.5
								C195.1,128.8,195.4,128.6,195.7,128.6z"/>
							<path class="st89" d="M195.7,128.6l1.4,0c0.3,0,0.5,0.2,0.4,0.5s-0.3,0.5-0.6,0.5l-1.4,0c-0.3,0-0.5-0.2-0.4-0.5
								C195.1,128.8,195.4,128.6,195.7,128.6z"/>
						</g>
						<g>
							<path class="st80" d="M195.2,131.4l1.4,0c0.3,0,0.5,0.2,0.4,0.5c-0.1,0.3-0.3,0.5-0.6,0.5l-1.4,0c-0.3,0-0.5-0.2-0.4-0.5
								C194.7,131.6,194.9,131.4,195.2,131.4z"/>
							<path class="st89" d="M195.2,131.4l1.4,0c0.3,0,0.5,0.2,0.4,0.5c-0.1,0.3-0.3,0.5-0.6,0.5l-1.4,0c-0.3,0-0.5-0.2-0.4-0.5
								C194.7,131.6,194.9,131.4,195.2,131.4z"/>
						</g>
						<g>
							<path class="st80" d="M199.6,128.6l6.7,0c0.3,0,0.5,0.2,0.4,0.5s-0.3,0.5-0.6,0.5l-6.7,0c-0.3,0-0.5-0.2-0.4-0.5
								C199.1,128.8,199.3,128.6,199.6,128.6z"/>
							<path class="st91" d="M199.6,128.6l6.7,0c0.3,0,0.5,0.2,0.4,0.5s-0.3,0.5-0.6,0.5l-6.7,0c-0.3,0-0.5-0.2-0.4-0.5
								C199.1,128.8,199.3,128.6,199.6,128.6z"/>
						</g>
						<g>
							<path class="st80" d="M199.2,131.3l6.7,0c0.3,0,0.5,0.2,0.4,0.5c-0.1,0.3-0.3,0.5-0.6,0.5l-6.7,0c-0.3,0-0.5-0.2-0.4-0.5
								C198.6,131.6,198.9,131.3,199.2,131.3z"/>
							<path class="st91" d="M199.2,131.3l6.7,0c0.3,0,0.5,0.2,0.4,0.5c-0.1,0.3-0.3,0.5-0.6,0.5l-6.7,0c-0.3,0-0.5-0.2-0.4-0.5
								C198.6,131.6,198.9,131.3,199.2,131.3z"/>
						</g>
						<g>
							<path class="st80" d="M197.1,120.3l1.4,0c0.3,0,0.5,0.2,0.4,0.5c-0.1,0.3-0.3,0.5-0.6,0.5l-1.4,0c-0.3,0-0.5-0.2-0.4-0.5
								C196.6,120.5,196.8,120.3,197.1,120.3z"/>
							<path class="st89" d="M197.1,120.3l1.4,0c0.3,0,0.5,0.2,0.4,0.5c-0.1,0.3-0.3,0.5-0.6,0.5l-1.4,0c-0.3,0-0.5-0.2-0.4-0.5
								C196.6,120.5,196.8,120.3,197.1,120.3z"/>
						</g>
						<g>
							<path class="st80" d="M194.6,123l1.4,0c0.3,0,0.5,0.2,0.4,0.5c-0.1,0.3-0.3,0.5-0.6,0.5l-1.4,0c-0.3,0-0.5-0.2-0.4-0.5
								C194.1,123.3,194.4,123,194.6,123z"/>
							<path class="st89" d="M194.6,123l1.4,0c0.3,0,0.5,0.2,0.4,0.5c-0.1,0.3-0.3,0.5-0.6,0.5l-1.4,0c-0.3,0-0.5-0.2-0.4-0.5
								C194.1,123.3,194.4,123,194.6,123z"/>
						</g>
						<g>
							<path class="st80" d="M201.1,120.3l6.7,0c0.3,0,0.5,0.2,0.4,0.5c-0.1,0.3-0.3,0.5-0.6,0.5l-6.7,0c-0.3,0-0.5-0.2-0.4-0.5
								C200.5,120.5,200.8,120.3,201.1,120.3z"/>
							<path class="st91" d="M201.1,120.3l6.7,0c0.3,0,0.5,0.2,0.4,0.5c-0.1,0.3-0.3,0.5-0.6,0.5l-6.7,0c-0.3,0-0.5-0.2-0.4-0.5
								C200.5,120.5,200.8,120.3,201.1,120.3z"/>
						</g>
						<g>
							<path class="st80" d="M198.6,123l8.8,0c0.3,0,0.5,0.2,0.4,0.5c-0.1,0.3-0.3,0.5-0.6,0.5l-8.8,0c-0.3,0-0.5-0.2-0.4-0.5
								C198,123.3,198.3,123,198.6,123z"/>
							<path class="st91" d="M198.6,123l8.8,0c0.3,0,0.5,0.2,0.4,0.5c-0.1,0.3-0.3,0.5-0.6,0.5l-8.8,0c-0.3,0-0.5-0.2-0.4-0.5
								C198,123.3,198.3,123,198.6,123z"/>
						</g>
						<g>
							<path class="st80" d="M192.7,134.2l1.4,0c0.3,0,0.5,0.2,0.4,0.5s-0.3,0.5-0.6,0.5l-1.4,0c-0.3,0-0.5-0.2-0.4-0.5
								C192.2,134.4,192.4,134.2,192.7,134.2z"/>
							<path class="st89" d="M192.7,134.2l1.4,0c0.3,0,0.5,0.2,0.4,0.5s-0.3,0.5-0.6,0.5l-1.4,0c-0.3,0-0.5-0.2-0.4-0.5
								C192.2,134.4,192.4,134.2,192.7,134.2z"/>
						</g>
						<g>
							<path class="st80" d="M196.7,134.2l8.8,0c0.3,0,0.5,0.2,0.4,0.5c-0.1,0.3-0.3,0.5-0.6,0.5l-8.8,0c-0.3,0-0.5-0.2-0.4-0.5
								C196.1,134.4,196.4,134.2,196.7,134.2z"/>
							<path class="st91" d="M196.7,134.2l8.8,0c0.3,0,0.5,0.2,0.4,0.5c-0.1,0.3-0.3,0.5-0.6,0.5l-8.8,0c-0.3,0-0.5-0.2-0.4-0.5
								C196.1,134.4,196.4,134.2,196.7,134.2z"/>
						</g>
					</g>
				</g>
			</g>
		</g>
	</g>
</g>
</svg>
