<?xml version="1.0" encoding="utf-8"?>
<!-- Generator: Adobe Illustrator 19.2.1, SVG Export Plug-In . SVG Version: 6.00 Build 0)  -->
<svg version="1.1" xmlns="http://www.w3.org/2000/svg" xmlns:xlink="http://www.w3.org/1999/xlink" x="0px" y="0px"
	 viewBox="0 0 369.9 398.1" style="enable-background:new 0 0 369.9 398.1;" xml:space="preserve">
<style type="text/css">
	.st0{fill:#07182B;}
	.st1{fill:url(#SVGID_1_);}
	.st2{fill:url(#SVGID_2_);}
	.st3{fill:url(#SVGID_3_);}
	.st4{fill:url(#SVGID_4_);}
	.st5{fill:url(#SVGID_5_);}
	.st6{fill:url(#SVGID_6_);}
	.st7{display:none;}
	.st8{display:inline;}
	.st9{fill:#142436;}
	.st10{fill:#1F2F40;}
	.st11{fill:#2B3A4A;}
	.st12{fill:#364353;}
	.st13{fill:#495562;}
	.st14{fill:#FF9700;}
	.st15{opacity:0.41;}
	.st16{fill:url(#SVGID_7_);}
	.st17{filter:url(#Adobe_OpacityMaskFilter);}
	.st18{fill:url(#SVGID_9_);}
	.st19{opacity:0.33;mask:url(#SVGID_8_);fill:url(#SVGID_10_);}
	.st20{fill:none;stroke:#FFFFFF;stroke-width:2;stroke-miterlimit:10;}
	.st21{fill:url(#SVGID_11_);}
	.st22{fill:url(#SVGID_12_);}
	.st23{fill:url(#SVGID_13_);}
	.st24{fill:url(#SVGID_14_);}
	.st25{fill:url(#SVGID_15_);}
	.st26{fill:url(#SVGID_16_);}
	.st27{fill:url(#SVGID_17_);}
	.st28{fill:url(#SVGID_18_);}
	.st29{fill:url(#SVGID_19_);}
	.st30{fill:url(#SVGID_20_);}
	.st31{fill:url(#SVGID_21_);}
	.st32{fill:url(#SVGID_22_);}
	.st33{fill:url(#SVGID_23_);}
	.st34{fill:url(#SVGID_24_);}
	.st35{fill:none;stroke:#D3FF4A;stroke-width:4;stroke-linecap:round;stroke-miterlimit:10;}
	.st36{fill:#D3FF4A;stroke:#D3FF4A;stroke-width:4;stroke-linecap:round;stroke-miterlimit:10;}
	.st37{opacity:0.62;fill:url(#SVGID_31_);}
	.st38{fill:#262626;}
	.st39{fill:#383838;}
	.st40{fill:url(#SVGID_34_);}
	.st41{fill:url(#SVGID_35_);}
	.st42{fill:url(#SVGID_36_);}
	.st43{fill:url(#SVGID_37_);}
	.st44{fill:url(#SVGID_38_);}
	.st45{fill:url(#SVGID_39_);}
	.st46{fill:#231F20;}
	.st47{fill:url(#SVGID_40_);}
	.st48{opacity:0.19;fill:url(#SVGID_43_);}
	.st49{opacity:0.19;fill:url(#SVGID_48_);}
	.st50{fill:#FFB450;}
	.st51{fill:none;}
	.st52{fill:#FFFFFF;}
	.st53{fill:#FF9200;}
	.st54{opacity:0.7;fill:#FFFFFF;enable-background:new    ;}
	.st55{fill:#263238;}
	.st56{opacity:0.2;fill:#FFFFFF;enable-background:new    ;}
	.st57{fill:none;stroke:#263238;stroke-linecap:round;stroke-linejoin:round;}
	.st58{opacity:0.44;fill:#FFFFFF;enable-background:new    ;}
	.st59{fill:none;stroke:#FFFFFF;stroke-miterlimit:10;}
	.st60{fill:none;stroke:#263238;stroke-width:0.5;stroke-miterlimit:10;}
	.st61{fill:#FFFFFF;stroke:#263238;stroke-width:0.5;stroke-miterlimit:10;}
	.st62{opacity:0.2;enable-background:new    ;}
	.st63{fill:#263238;stroke:#263238;stroke-linecap:round;stroke-linejoin:round;}
	.st64{fill:#FFFFFF;stroke:#263238;stroke-linecap:round;stroke-linejoin:round;}
	.st65{fill:#808080;stroke:#263238;stroke-linecap:round;stroke-linejoin:round;}
	.st66{fill:#FF9200;stroke:#263238;stroke-linecap:round;stroke-linejoin:round;}
	.st67{clip-path:url(#SVGID_54_);}
	.st68{clip-path:url(#SVGID_56_);}
	.st69{opacity:0.5;fill:#FFFFFF;enable-background:new    ;}
	.st70{clip-path:url(#SVGID_58_);}
	.st71{clip-path:url(#SVGID_60_);}
	.st72{clip-path:url(#SVGID_62_);}
	.st73{clip-path:url(#SVGID_64_);}
	.st74{fill:#575757;}
	.st75{fill:none;stroke:#575757;stroke-miterlimit:10;}
	.st76{fill:none;stroke:#263238;stroke-miterlimit:10;}
	.st77{stroke:#263238;stroke-linecap:round;stroke-linejoin:round;}
	.st78{fill:#282828;}
	.st79{clip-path:url(#SVGID_66_);}
	.st80{fill:#D3FF4A;}
	.st81{clip-path:url(#SVGID_68_);}
	.st82{clip-path:url(#SVGID_70_);}
	.st83{opacity:0.48;fill:#282828;enable-background:new    ;}
	.st84{clip-path:url(#SVGID_72_);}
	.st85{clip-path:url(#SVGID_74_);}
	.st86{fill:#425860;}
	.st87{fill:#455A64;}
	.st88{fill:#F5F5F5;}
	.st89{opacity:0.6;fill:#FFFFFF;}
	.st90{opacity:0.6;}
	.st91{opacity:0.8;fill:#FFFFFF;}
	.st92{fill:#37474F;}
	.st93{fill:#FAFAFA;}
	.st94{fill:#5B5B5B;}
	.st95{fill:none;stroke:#E0E0E0;stroke-width:0.4968;stroke-linecap:round;stroke-linejoin:round;stroke-miterlimit:10;}
	.st96{fill:#FAFAFA;stroke:#E0E0E0;stroke-width:0.9175;stroke-miterlimit:10;}
	.st97{fill:#545454;stroke:#E0E0E0;stroke-width:0.9175;stroke-miterlimit:10;}
	.st98{opacity:0.1;}
	.st99{opacity:0.2;}
	.st100{opacity:0.5;fill:#FFFFFF;}
	.st101{opacity:0.4;}
	.st102{fill:#F0F0F0;}
	.st103{opacity:0.5;}
	.st104{fill:#D3FF4A;stroke:#000000;stroke-miterlimit:10;}
	.st105{fill:none;stroke:#D3FF4A;stroke-width:10;stroke-linecap:round;stroke-miterlimit:10;}
	.st106{fill:#FFFFFA;}
	.st107{fill:#FEFEFE;}
	.st108{fill:none;stroke:#D3FF4A;stroke-width:8;stroke-linecap:round;stroke-miterlimit:10;}
	.st109{fill:none;stroke:#FFFFFA;stroke-width:8;stroke-linecap:round;stroke-linejoin:round;stroke-miterlimit:10;}
	.st110{fill:#1A2935;}
	.st111{fill:none;stroke:#D3FF4A;stroke-width:6;stroke-linecap:round;stroke-miterlimit:10;}
	.st112{fill:#9DB537;}
	.st113{fill:#CC7500;}
	.st114{fill:none;stroke:#D3FF00;stroke-width:5;stroke-miterlimit:10;stroke-dasharray:30,30;}
	.st115{fill:none;stroke:#FF9200;stroke-width:5;stroke-miterlimit:10;stroke-dasharray:30,30;}
	.st116{fill:#D3FF00;}
	.st117{fill:#F9FFD9;}
	.st118{fill:#949494;}
	.st119{fill:#FFDEB2;}
	.st120{clip-path:url(#SVGID_76_);}
	.st121{clip-path:url(#SVGID_78_);}
	.st122{clip-path:url(#SVGID_80_);}
	.st123{clip-path:url(#SVGID_82_);}
	.st124{clip-path:url(#SVGID_84_);}
	.st125{clip-path:url(#SVGID_86_);}
	.st126{clip-path:url(#SVGID_88_);}
	.st127{clip-path:url(#SVGID_90_);}
	.st128{opacity:0.2;clip-path:url(#SVGID_92_);enable-background:new    ;}
	.st129{opacity:0.48;enable-background:new    ;}
	.st130{clip-path:url(#SVGID_94_);}
	.st131{clip-path:url(#SVGID_96_);}
	.st132{clip-path:url(#SVGID_98_);}
	.st133{clip-path:url(#SVGID_100_);}
	.st134{clip-path:url(#SVGID_102_);}
	.st135{clip-path:url(#SVGID_104_);}
	.st136{clip-path:url(#SVGID_106_);}
	.st137{clip-path:url(#SVGID_108_);}
	.st138{clip-path:url(#SVGID_110_);}
	.st139{clip-path:url(#SVGID_112_);}
	.st140{opacity:0.2;clip-path:url(#SVGID_114_);enable-background:new    ;}
	.st141{clip-path:url(#SVGID_116_);}
	.st142{clip-path:url(#SVGID_118_);}
	.st143{opacity:0.44;enable-background:new    ;}
	.st144{fill:#808080;}
	.st145{clip-path:url(#SVGID_120_);}
	.st146{clip-path:url(#SVGID_122_);}
	.st147{opacity:0.5;enable-background:new    ;}
	.st148{clip-path:url(#SVGID_124_);}
	.st149{clip-path:url(#SVGID_126_);}
	.st150{clip-path:url(#SVGID_128_);}
	.st151{clip-path:url(#SVGID_130_);}
	.st152{opacity:0.7;enable-background:new    ;}
	.st153{clip-path:url(#SVGID_132_);}
	.st154{clip-path:url(#SVGID_134_);}
	.st155{opacity:0.2;clip-path:url(#SVGID_136_);enable-background:new    ;}
	.st156{clip-path:url(#SVGID_138_);}
	.st157{clip-path:url(#SVGID_140_);}
	.st158{fill:#E0E0E0;}
	.st159{fill:#545454;}
	.st160{opacity:0.8;}
	.st161{fill:#FD5D5C;}
	.st162{opacity:0.4;fill:#1B1C61;}
	.st163{fill:#6F57F2;stroke:#263238;stroke-miterlimit:10;}
	.st164{fill:#6F57F2;}
	.st165{fill:#1E2E91;}
	.st166{fill:#6F57F3;}
	.st167{fill:#90AFF4;}
	.st168{fill:#6181D8;}
	.st169{fill:#F3F8FB;}
	.st170{fill:#D0E9F6;}
	.st171{fill:#8FC9F4;}
	.st172{enable-background:new    ;}
	.st173{clip-path:url(#SVGID_142_);}
	.st174{clip-path:url(#SVGID_144_);}
	.st175{clip-path:url(#SVGID_146_);}
	.st176{clip-path:url(#SVGID_148_);}
	.st177{clip-path:url(#SVGID_150_);}
	.st178{clip-path:url(#SVGID_152_);}
	.st179{fill:#8DB1F1;}
	.st180{fill:#AFF4E6;}
	.st181{opacity:0.35;}
	.st182{clip-path:url(#SVGID_154_);}
	.st183{clip-path:url(#SVGID_156_);}
	.st184{clip-path:url(#SVGID_158_);}
	.st185{clip-path:url(#SVGID_160_);enable-background:new    ;}
	.st186{fill:#80809B;}
	.st187{fill:#8484A1;}
	.st188{fill:#8888A6;}
	.st189{fill:#8C8CAB;}
	.st190{fill:#9090B0;}
	.st191{fill:#9494B5;}
	.st192{clip-path:url(#SVGID_162_);enable-background:new    ;}
	.st193{fill:#6B6B82;}
	.st194{fill:#707087;}
	.st195{fill:#74748C;}
	.st196{fill:#787891;}
	.st197{fill:#7D7D96;}
	.st198{fill:#6D6D84;}
	.st199{fill:#9F9FC1;}
	.st200{fill:#878787;}
	.st201{clip-path:url(#SVGID_164_);enable-background:new    ;}
	.st202{fill:#858585;}
	.st203{clip-path:url(#SVGID_166_);enable-background:new    ;}
	.st204{clip-path:url(#SVGID_168_);enable-background:new    ;}
	.st205{clip-path:url(#SVGID_170_);enable-background:new    ;}
	.st206{clip-path:url(#SVGID_172_);enable-background:new    ;}
	.st207{clip-path:url(#SVGID_174_);enable-background:new    ;}
	.st208{clip-path:url(#SVGID_176_);enable-background:new    ;}
	.st209{fill:#999999;}
	.st210{fill:#9E9E9E;}
	.st211{fill:#A4A4A4;}
	.st212{fill:#A9A9A9;}
	.st213{fill:#AEAEAE;}
	.st214{fill:#B3B3B3;}
	.st215{fill:#B8B8B8;}
	.st216{fill:#C4C4C4;}
	.st217{clip-path:url(#SVGID_178_);enable-background:new    ;}
	.st218{fill:#8F8F8F;}
	.st219{fill:#8A8A8A;}
	.st220{clip-path:url(#SVGID_180_);}
	.st221{fill:none;stroke:#8DB1F1;stroke-width:3;stroke-miterlimit:10;}
	.st222{fill:#609EFD;}
	.st223{clip-path:url(#SVGID_182_);}
	.st224{clip-path:url(#SVGID_184_);}
	.st225{clip-path:url(#SVGID_186_);}
	.st226{clip-path:url(#SVGID_188_);}
	.st227{clip-path:url(#SVGID_190_);}
	.st228{clip-path:url(#SVGID_192_);}
	.st229{clip-path:url(#SVGID_194_);}
	.st230{clip-path:url(#SVGID_196_);}
	.st231{clip-path:url(#SVGID_198_);}
	.st232{clip-path:url(#SVGID_200_);enable-background:new    ;}
	.st233{clip-path:url(#SVGID_202_);enable-background:new    ;}
	.st234{clip-path:url(#SVGID_204_);enable-background:new    ;}
	.st235{clip-path:url(#SVGID_206_);enable-background:new    ;}
	.st236{clip-path:url(#SVGID_208_);enable-background:new    ;}
	.st237{clip-path:url(#SVGID_210_);enable-background:new    ;}
	.st238{clip-path:url(#SVGID_212_);enable-background:new    ;}
	.st239{clip-path:url(#SVGID_214_);enable-background:new    ;}
	.st240{clip-path:url(#SVGID_216_);enable-background:new    ;}
	.st241{clip-path:url(#SVGID_218_);enable-background:new    ;}
	.st242{clip-path:url(#SVGID_220_);}
	.st243{clip-path:url(#SVGID_222_);}
	.st244{clip-path:url(#SVGID_224_);}
	.st245{clip-path:url(#SVGID_226_);}
	.st246{clip-path:url(#SVGID_228_);}
	.st247{clip-path:url(#SVGID_230_);}
	.st248{clip-path:url(#SVGID_232_);}
	.st249{clip-path:url(#SVGID_234_);}
	.st250{clip-path:url(#SVGID_236_);}
	.st251{clip-path:url(#SVGID_238_);}
	.st252{clip-path:url(#SVGID_240_);enable-background:new    ;}
	.st253{clip-path:url(#SVGID_242_);enable-background:new    ;}
	.st254{clip-path:url(#SVGID_244_);enable-background:new    ;}
	.st255{clip-path:url(#SVGID_246_);enable-background:new    ;}
	.st256{clip-path:url(#SVGID_248_);enable-background:new    ;}
	.st257{clip-path:url(#SVGID_250_);enable-background:new    ;}
	.st258{clip-path:url(#SVGID_252_);enable-background:new    ;}
	.st259{clip-path:url(#SVGID_254_);enable-background:new    ;}
	.st260{clip-path:url(#SVGID_256_);enable-background:new    ;}
	.st261{clip-path:url(#SVGID_258_);enable-background:new    ;}
	.st262{clip-path:url(#SVGID_260_);}
	.st263{opacity:0.9;fill:#25468F;}
	.st264{opacity:0.7;fill:#FFEBD9;}
	.st265{fill:#0B3563;}
	.st266{fill:#FDDBBA;}
	.st267{fill:#FFEBD9;}
	.st268{fill:#214D9A;}
	.st269{fill:#FFAE73;}
	.st270{fill:#F18D4D;}
	.st271{fill:#F0C19C;}
	.st272{fill:#FF9D5D;}
	.st273{fill:#25468F;}
	.st274{fill:#2D3554;}
	.st275{opacity:0.5;fill:#2D3554;}
	.st276{opacity:0.92;fill:#07182B;}
</style>
<g id="Layer_2">
</g>
<g id="Layer_1" class="st7">
</g>
<g id="Layer_4">
</g>
<g id="Layer_3">
</g>
<g id="Layer_5">
	<g>
		<g id="freepik--background-simple--inject-2_8_">
			<path class="st119" d="M2.8,154.8c0,0-16.2,69.3,29,129.7S155.7,368.3,219,389s122.6-3.2,144.8-56.4
				c22.2-53.2-22.7-81.8-32.6-151.3s-2-89.5-48.2-142.4S142.1-12.7,78,41.6S2.8,154.8,2.8,154.8z"/>
		</g>
		<g id="freepik--Graphics--inject-2_4_">
			<polygon class="st55" points="109.9,207.4 69.5,207.4 16.6,65.5 57,65.5 			"/>
			<polygon class="st56" points="109.9,207.4 69.5,207.4 16.6,65.5 57,65.5 			"/>
			<path class="st55" d="M46.2,100.1H35.8c-1.4-0.1-2.7-1-3.2-2.3l-4-10.8c-0.4-0.8-0.2-1.7,0.6-2.1c0.3-0.2,0.6-0.2,0.9-0.2h10.4
				c1.4,0.1,2.7,1,3.2,2.3l4,10.8C48.1,99.1,47.5,100.1,46.2,100.1z"/>
			<polygon class="st55" points="59.6,72.6 19.2,72.6 16.6,65.5 57,65.5 			"/>
			<line class="st57" x1="33.1" y1="73.8" x2="34.2" y2="76.9"/>
			<line class="st57" x1="34.6" y1="73.8" x2="35.8" y2="76.9"/>
			<line class="st57" x1="36.2" y1="73.8" x2="37.3" y2="76.9"/>
			<line class="st57" x1="37.7" y1="73.8" x2="38.9" y2="76.9"/>
			<line class="st57" x1="39.3" y1="73.8" x2="40.4" y2="76.9"/>
			<line class="st57" x1="40.8" y1="73.8" x2="42" y2="76.9"/>
			<line class="st57" x1="42.4" y1="73.8" x2="43.6" y2="76.9"/>
			<line class="st57" x1="44" y1="73.8" x2="45.1" y2="76.9"/>
			<line class="st57" x1="45.5" y1="73.8" x2="46.7" y2="76.9"/>
			<line class="st57" x1="47.1" y1="73.8" x2="48.2" y2="76.9"/>
			<path class="st52" d="M42.8,93.4l-9.7-6.2c-0.2-0.1-0.4-0.2-0.6-0.1c-0.2,0.1-0.2,0.4-0.1,0.6l4.5,9.7c0.1,0.2,0.3,0.4,0.6,0.5
				h0.2c0.2,0,0.3-0.1,0.4-0.2l1.1-3.2h3.9c0.2,0,0.4-0.1,0.4-0.3c0,0,0,0,0,0C43.3,93.8,43.1,93.5,42.8,93.4z"/>
			<polygon class="st55" points="42.6,93.8 32.8,87.6 37.3,97.3 38.4,93.9 			"/>
			<polygon class="st52" points="60.9,93.8 51.1,87.6 55.6,97.3 56.7,93.9 			"/>
			<polygon class="st52" points="65.9,99.3 65,97.3 63.9,99 			"/>
			<polygon class="st52" points="89.6,162.8 88.7,160.8 87.5,162.5 			"/>
			<polygon class="st52" points="96.8,182.2 95.9,180.3 94.8,181.9 			"/>
			<polygon class="st52" points="104.3,202.2 103.4,200.2 102.2,201.9 			"/>
			<polygon class="st52" points="62.6,140.3 61.7,138.3 60.6,140 			"/>
			<polygon class="st52" points="71,162.8 70.1,160.8 68.9,162.5 			"/>
			<polygon class="st52" points="78.2,182.2 77.3,180.3 76.2,181.9 			"/>
			<polygon class="st52" points="85.7,202.2 84.8,200.2 83.6,201.9 			"/>
			<polygon class="st52" points="42.8,120.7 44.5,121.8 49.2,112 47.5,110.9 			"/>
			<path class="st52" d="M44.9,111.1c-2.5-1.9-2.7-2.3-2-4.5c-1.3,1.8-1.7,1.8-4.3,0.4c2.5,1.9,2.7,2.3,2,4.5
				C41.8,109.7,42.2,109.7,44.9,111.1z"/>
			<path class="st52" d="M53.1,112.2c-1.5-1.2-1.6-1.4-1.3-2.8c-0.8,1.1-1,1.1-2.7,0.2c1.5,1.2,1.6,1.4,1.3,2.8
				C51.2,111.3,51.4,111.3,53.1,112.2z"/>
			<path class="st52" d="M52.6,116.8c-1.1-0.9-1.2-1-0.9-2c-0.6,0.8-0.7,0.8-1.9,0.2c1.1,0.9,1.2,1,0.9,2
				C51.3,116.2,51.4,116.1,52.6,116.8z"/>
			<polygon class="st52" points="77.1,160 78.2,160.8 82.9,151 81.8,150.3 			"/>
			<polygon class="st52" points="73.2,118.2 64.6,112.7 68.5,121.2 69.5,118.2 			"/>
			<path class="st52" d="M66.7,118.7c-3.2,0-6.4-1.9-7.3-4.2c-0.9-2.3,1-4.1,4.2-4.1c3.2,0,6.4,1.9,7.3,4.2
				C71.8,116.8,69.9,118.7,66.7,118.7z M63.8,110.9c-2.9,0-4.6,1.6-3.9,3.7c0.7,2,3.7,3.7,6.6,3.7c2.9,0,4.6-1.6,3.9-3.7
				C69.7,112.5,66.7,110.9,63.8,110.9z"/>
			<path class="st52" d="M62.9,117.8c-0.9-0.1-1.6-0.6-1.9-1.4c-0.3-0.5-0.1-1,0.4-1.3c0.2-0.1,0.3-0.1,0.5-0.1
				c0.9,0.1,1.6,0.6,1.9,1.4c0.3,0.5,0.1,1-0.4,1.3C63.3,117.8,63.1,117.9,62.9,117.8z M62.1,115.5c-0.3,0-0.6,0.2-0.7,0.6
				c0,0.1,0,0.2,0.1,0.4c0.2,0.5,0.7,0.9,1.3,0.9c0.5,0,0.8-0.4,0.6-0.9C63.1,115.9,62.6,115.6,62.1,115.5z"/>
			<path class="st52" d="M63.1,119.3l-0.3-0.5c0.5-0.1,0.9-0.6,1-1.1c0-0.4-0.1-0.9-0.4-1.2l0.4-0.2c0.3,0.5,0.5,1,0.5,1.6
				C64.2,118.6,63.7,119.1,63.1,119.3z"/>
			<polygon class="st52" points="57.7,133.4 51.6,129 50.4,131 56.4,135.4 			"/>
			<path class="st52" d="M48,139.1l1,0.7l2.2-3.5c-0.2-0.2-0.3-0.5-0.2-0.8c0.2-0.3,0.6-0.3,1,0c0.3,0.2,0.5,0.6,0.4,1
				c-0.2,0.2-0.5,0.3-0.8,0.1l-2.2,3.5l0.9,0.7l5.4-1.5L56,136l-5.9-4.3l-2.7,1.5L48,139.1z"/>
			<line class="st57" x1="42.3" y1="125.3" x2="77.1" y2="125.3"/>
			<polygon class="st52" points="72.6,129 71.3,131 77.3,135.4 78.6,133.4 			"/>
			<path class="st52" d="M68.3,133.1l0.6,6l1,0.7l2.2-3.5c-0.2-0.2-0.3-0.5-0.2-0.8c0.2-0.3,0.6-0.3,1,0c0.3,0.2,0.5,0.6,0.4,1
				c-0.2,0.2-0.5,0.3-0.8,0.1l-2.2,3.5l0.9,0.7l5.4-1.5l0.3-3.2l-5.9-4.3L68.3,133.1z"/>
			<path class="st52" d="M66.8,134.9c0.1-0.4,0.1-0.9,0.2-1.4c0.1-1-0.2-2-0.9-2.7c-0.7-0.8-1.6-1.4-2.6-1.6c-0.2,0-0.3,0-0.3,0.2
				c0,0.2,0.2,0.3,0.3,0.3c0.8,0.2,1.6,0.7,2.2,1.3c0.5,0.6,0.8,1.4,0.7,2.2c0,0.5-0.1,1-0.2,1.4c-0.3,2.2-0.5,3.5,3.1,5.6
				c0.1,0,0.1,0.1,0.2,0.1c0.1,0,0.1,0,0.2-0.1c0-0.2-0.1-0.3-0.2-0.4C66.4,137.9,66.5,137,66.8,134.9z"/>
			<path class="st52" d="M51.4,149.3l0.2,0.6c0.3,0.9,0.7,1.7,1.1,2.5l1-0.2c-0.3-0.6-0.5-1.1-0.7-1.7h4.3l3.6,9.7h-1.6l0.4,1.1H64
				l-0.4-1.1H62l-3.6-9.7h4.2l0.7,2h1.1l-1-2.6l-0.2-0.6L51.4,149.3z"/>
			<path class="st58" d="M74,176.1c0.9,2.5-1.1,4.5-4.5,4.5s-7-2-7.9-4.5c-0.9-2.5,1.1-4.5,4.5-4.5C69.6,171.6,73.1,173.6,74,176.1z
				"/>
			<path class="st59" d="M74,176.1c0.9,2.5-1.1,4.5-4.5,4.5s-7-2-7.9-4.5c-0.9-2.5,1.1-4.5,4.5-4.5C69.6,171.6,73.1,173.6,74,176.1z
				"/>
			<path class="st52" d="M86.8,176.2l4.1-7.4c0.2-0.3,0.7-0.4,1.1-0.2c0,0,0,0,0,0l0,0c0.5,0.2,0.8,0.7,0.7,1.2l-2.2,8.2L86.8,176.2
				z"/>
			<path class="st52" d="M86.1,176.9c1.6-0.2,4.7,1.2,4.8,3.2c0,0.5-0.3,0.9-0.7,1.1c-1.4,0.6-3,0.9-4.6,0.8
				c0.4-0.3,0.6-0.9,0.4-1.4c-0.2-0.6-0.5-1.2-0.7-1.8C85.1,178,85.2,176.9,86.1,176.9"/>
			<path class="st52" d="M77.6,193.1c-0.3-0.8-0.8-1.5-1.5-2l-1.2,2c0.7,0.6,1.3,1.4,1.7,2.3c0.4,0.8,0.8,1.5,1.2,2.3l1.2-1.9
				C78.5,194.9,78,194,77.6,193.1z"/>
			<path class="st52" d="M76.2,195.4c-0.3-0.8-0.9-1.5-1.5-2l-1.2,2c0.7,0.6,1.3,1.4,1.7,2.3c0.4,0.8,0.8,1.5,1.2,2.3l1.2-1.9
				C77.1,197.1,76.6,196.3,76.2,195.4z"/>
			<path class="st52" d="M78.1,193.1c0.4,0.8,0.8,1.5,1.2,2.3l1.8-2.8l-4-2.9l-0.7,1.2C77.1,191.4,77.7,192.2,78.1,193.1z"/>
			<path class="st52" d="M74.8,197.7c-0.3-0.8-0.8-1.5-1.5-2l-1.1,1.6l0.2,3.7c0,0.3,0.3,0.5,0.5,0.4c0,0,0,0,0,0l3.2-1.2
				C75.6,199.4,75.2,198.5,74.8,197.7z M73.4,200.2l-0.1-2l1.8,1.3L73.4,200.2z"/>
			<path class="st52" d="M90.4,194.9L89,197l7,5.1l1.4-2.2l0.4,0.3l3.2-5.1l-7.8-5.7l-3.2,5.1L90.4,194.9z M95.6,200.9l-5.3-3.9
				l1-1.5l5.3,3.9L95.6,200.9z"/>
			<polygon class="st52" points="24.4,67.4 24.6,68.1 23.7,69.2 25.5,70.4 25.8,71.1 22.9,69.2 			"/>
			<polygon class="st52" points="21.9,67.4 22.2,68.1 21.2,69.2 23.1,70.4 23.3,71.1 20.4,69.2 			"/>
			<polygon class="st55" points="188.1,150.6 104.6,150.6 79,79.3 162.6,79.3 			"/>
			<polygon class="st53" points="182.2,146.7 107.7,146.7 84.9,83.2 159.4,83.2 			"/>
			<polygon class="st52" points="168,107.2 155.7,98.1 146,123.4 120.7,116.3 107.7,146.7 182.2,146.7 			"/>
			<path class="st52" d="M116.7,96.8c-1.7-4.8-7-8.7-11.9-8.7s-7.3,3.9-5.6,8.7c1.7,4.8,7,8.7,11.9,8.7S118.4,101.7,116.7,96.8z"/>
			<polygon class="st55" points="196.8,138.3 113.2,138.3 87.7,67.1 171.2,67.1 			"/>
			<polygon class="st53" points="190.8,134.5 116.4,134.5 93.6,71 168.1,71 			"/>
			<polygon class="st52" points="176.7,94.9 164.4,85.9 154.6,111.1 129.4,104 116.4,134.5 190.8,134.5 			"/>
			<path class="st52" d="M125.3,84.6c-1.7-4.8-7-8.7-11.9-8.7s-7.3,3.9-5.6,8.7s7,8.7,11.9,8.7C124.6,93.3,127.1,89.4,125.3,84.6z"
				/>
			<path d="M197.2,55.9l2,4.9h-0.6c-0.3-0.7-0.7-1.3-1.1-1.8c-0.5-0.6-1.1-1-1.7-1.3c-0.7-0.3-1.5-0.4-2.2-0.4h-2.9l5.8,15.9
				c0.2,0.9,0.7,1.7,1.3,2.4c0.6,0.4,1.3,0.7,2,0.6h0.7l0.2,0.6h-8.8l-0.2-0.6h0.7c0.9,0,1.4-0.3,1.6-0.8c0-0.8-0.1-1.5-0.5-2.2
				l-5.8-15.9h-2.5c-0.7,0-1.3,0-2,0.2c-0.5,0.2-0.8,0.6-1,1.1c-0.2,0.7-0.1,1.5,0.1,2.2h-0.6l-1.5-4.9L197.2,55.9z"/>
			<line class="st60" x1="209.8" y1="65.7" x2="216.2" y2="65.7"/>
			<polygon class="st60" points="216,82.5 184,82.5 172.1,50.1 204.1,50.1 			"/>
			<polygon class="st61" points="179.4,66.9 177,66.9 176.1,64.5 178.5,64.5 			"/>
			<polygon class="st61" points="211.4,66.9 209,66.9 208.2,64.5 210.6,64.5 			"/>
			<polygon class="st61" points="173.8,51.5 171.4,51.5 170.5,49.1 172.9,49.1 			"/>
			<polygon class="st61" points="205.8,51.5 203.4,51.5 202.5,49.1 204.9,49.1 			"/>
			<polygon class="st61" points="189.8,51.5 187.4,51.5 186.5,49.1 188.9,49.1 			"/>
			<polygon class="st61" points="185.5,83.5 183.1,83.5 182.2,81.2 184.6,81.2 			"/>
			<polygon class="st61" points="217.5,83.5 215.1,83.5 214.3,81.2 216.7,81.2 			"/>
			<line class="st60" x1="200.1" y1="83.1" x2="202.5" y2="89.5"/>
			<polygon class="st61" points="201.5,83.5 199.1,83.5 198.3,81.2 200.7,81.2 			"/>
			<polygon class="st55" points="204.1,90.7 201.7,90.7 200.9,88.3 203.3,88.3 			"/>
			<line class="st60" x1="182" y1="76.5" x2="208.9" y2="76.5"/>
			<path class="st55" d="M217.4,65.7c-0.3-0.7-1-1.2-1.7-1.3c-0.5,0-0.9,0.3-0.9,0.8c0,0.2,0,0.3,0.1,0.5c0.3,0.7,1,1.2,1.7,1.3
				c0.5,0,0.9-0.3,0.9-0.8C217.5,66,217.5,65.8,217.4,65.7z"/>
		</g>
		<g id="freepik--Table--inject-2_8_">
			<polygon class="st62" points="69.1,237.5 98.1,262.4 70.5,397.6 72.3,397.6 103.1,264.9 131.2,288.5 91.5,397.4 94,397 
				135.8,291 252.2,397 323,397 240.2,234.6 			"/>
			<polygon class="st63" points="72.3,397.6 70.5,397.6 67.7,235.2 75.1,235.2 			"/>
			<polygon class="st63" points="233.4,397.6 231.6,397.6 228.8,235.2 236.3,235.2 			"/>
			<rect x="64.8" y="232.7" class="st64" width="180.1" height="4.2"/>
		</g>
		<g id="freepik--Character--inject-2_8_">
			<path class="st65" d="M135.7,183.2c0.2,1.3-0.7,2.6-2,2.8c-1.3,0.2-2.6-0.7-2.8-2c-0.2-1.3,0.7-2.6,2-2.8c0.1,0,0.3,0,0.4,0
				C134.5,181.1,135.6,182,135.7,183.2z"/>
			<path class="st65" d="M138,189.5c0.2,1.3-0.7,2.6-2,2.8c-1.3,0.2-2.6-0.7-2.8-2c-0.2-1.3,0.7-2.6,2-2.8c0.1,0,0.3,0,0.4,0
				C136.8,187.3,137.9,188.3,138,189.5z"/>
			<path class="st65" d="M140.3,195.7c0.2,1.3-0.7,2.6-2,2.8s-2.6-0.7-2.8-2c-0.2-1.3,0.7-2.6,2-2.8c0.1,0,0.3,0,0.4,0
				C139.1,193.6,140.2,194.5,140.3,195.7z"/>
			<path class="st65" d="M142.6,201.9c0.2,1.3-0.7,2.6-2,2.8c-1.3,0.2-2.6-0.7-2.8-2c-0.2-1.3,0.7-2.6,2-2.8c0.1,0,0.2,0,0.4,0
				C141.4,199.8,142.5,200.7,142.6,201.9z"/>
			<path class="st63" d="M158.7,232.7h-29.5c-2.1,0.1-3.8-1.5-3.9-3.5c-0.1-2.1,1.5-3.8,3.5-3.9c0.1,0,0.3,0,0.4,0h29.5
				c2.1-0.1,3.8,1.5,3.9,3.5c0.1,2.1-1.5,3.8-3.5,3.9C158.9,232.7,158.8,232.7,158.7,232.7z"/>
			<polygon class="st63" points="237.1,232.7 146.3,232.7 124.7,173.8 215.4,173.8 			"/>
			<polygon class="st65" points="231.3,226.6 153.8,226.6 135.3,176.3 212.9,176.3 			"/>
			<path class="st63" d="M246.6,253.8c-2.1,3.1-4.5,6-7.1,8.7c-8.3,7.5-15.5,16.2-21.2,25.8c-8.1,13.8-13.8,27.9-19.2,40.1
				c-5.4,12.2-15.2,34.7-20,41.6s-8.2,10.5-8.2,10.5s-8.1,0.2-17.6-0.7c-9.5-0.8-13.5-2.6-13.6-0.1c-0.1,2.5,6.5,9.3,11.2,10.5
				c4.7,1.2,10.8,3,12.3,4.4c1.4,1.4,3.2,3,5.6,2c2.4-1,9.6-11.1,17.6-17.9s17.5-13.7,26.2-29.8s9.1-25.3,15.2-31.3
				s12.4-15.5,20.2-20.5c7.7-5,30.8-14.2,38.2-23.8c7.4-9.6,3.5-21.3-3.6-25.5C275.3,243.7,252.1,242.1,246.6,253.8z"/>
			<path class="st64" d="M184.7,359.8c-1.7,3.5-3.6,6.9-5.7,10.1c-4.9,6.9-8.2,10.5-8.2,10.5s-8.1,0.2-17.6-0.7s-13.5-2.6-13.6-0.1
				c-0.1,2.5,6.5,9.3,11.2,10.5c4.7,1.2,10.8,3,12.3,4.4c1.4,1.4,3.2,3,5.6,2c2.4-1,9.6-11.1,17.6-17.9c3.7-3.2,7.8-6.4,11.9-10.5
				C192.9,366.9,188.2,364,184.7,359.8z"/>
			<path class="st66" d="M168.7,396.7c1.3-0.9,2.4-1.9,3.4-3.1c-6.5-1.3-9.8-4.5-12.8-5.4c-2.7-0.8-5.3-2-7.7-3.4l3.2-4.8l-1.6-0.1
				c-9.5-0.8-13.5-2.6-13.6-0.1c-0.1,2.5,6.5,9.3,11.2,10.5s10.8,3,12.3,4.4C164.5,396.1,166.4,397.7,168.7,396.7z"/>
			<path class="st63" d="M179.9,284.2c1.3,5.4,3.1,10.7,5.6,15.7c3.8,7.7,12.3,15.7,18.4,20.3c6.1,4.6,25.9,22.2,35.6,36.2
				c1.2,1.8-3.5,7.7-9.2,12.8s-8.2,7.1-5.2,8s10.3,0.6,17.6-5.6c7.3-6.1,12.1-10.2,14.4-15.2c1.1-2.5-5.2-5.6-9-8.8
				c-3.8-3.2-18-24.7-22.4-34.6c-4.4-9.9-15.5-24.1-23.7-29.1"/>
			<path class="st64" d="M257.1,356.6c1.1-2.5-5.2-5.6-9-8.8c-3.2-2.7-13.8-18.3-19.6-29.2l-13,11.5c8.1,7.5,18,17.6,24.1,26.3
				c1.2,1.8-3.5,7.7-9.2,12.8s-8.2,7.1-5.2,8s10.3,0.6,17.6-5.6C250.1,365.7,254.8,361.6,257.1,356.6z"/>
			<path class="st66" d="M253.2,351.6c-1,1.5-2.4,3.6-3.9,6.2c-3.6,6.1-13.6,14-14.9,12.6c-0.8-0.9-1.5-1.9-2-3
				c-0.6,0.6-1.3,1.3-2,1.9c-5.7,5.2-8.2,7.1-5.2,8c3.1,1,10.3,0.6,17.6-5.6c7.3-6.1,12.1-10.2,14.4-15.2
				C257.8,355.1,255.8,353.4,253.2,351.6z"/>
			<rect x="240.1" y="369.1" class="st64" width="65.1" height="3.1"/>
			<path class="st64" d="M246,286.9l-11.3,108.9c0,0.5,0.3,0.9,0.8,1c0,0,0.1,0,0.1,0l0,0c0.4,0,0.8-0.3,0.9-0.7l16.9-109.2H246z"/>
			<path class="st64" d="M298.1,286.9l11.4,108.9c0.1,0.5-0.3,0.9-0.8,1c0,0-0.1,0-0.1,0l0,0c-0.4,0-0.8-0.3-0.9-0.7l-16.9-109.2
				H298.1z"/>
			<path class="st64" d="M277.4,286.9l0.5,109c0,0.5-0.4,0.9-0.9,0.9l0,0c-0.5,0-0.8-0.4-0.9-0.8l-6.1-109.1H277.4z"/>
			<path class="st53" d="M241.4,270.5h60.3c3,0,5.4,2.4,5.4,5.4v6.9c0,3-2.4,5.4-5.4,5.4h-60.3c-3,0-5.4-2.4-5.4-5.4v-6.9
				C236,272.9,238.5,270.5,241.4,270.5z"/>
			<g>
				<defs>
					<path id="SVGID_97_" d="M241.4,270.5h60.3c3,0,5.4,2.4,5.4,5.4v6.9c0,3-2.4,5.4-5.4,5.4h-60.3c-3,0-5.4-2.4-5.4-5.4v-6.9
						C236,272.9,238.5,270.5,241.4,270.5z"/>
				</defs>
				<clipPath id="SVGID_1_">
					<use xlink:href="#SVGID_97_"  style="overflow:visible;"/>
				</clipPath>
				<g style="clip-path:url(#SVGID_1_);">
					<path class="st62" d="M301.8,270.5h-59l-1.8,3.7c0,0,54.4,1,54.4,4.1c0,3.1,0.9,7.2-9.7,7.2c-8.7,0-37.7,0.4-48.5,0.6
						c0.4,0.5,1,1,1.6,1.3l3.2,0.7h59.8c3,0,5.4-2.4,5.4-5.4v-6.9C307.1,272.8,304.7,270.5,301.8,270.5z"/>
				</g>
			</g>
			<path class="st57" d="M241.4,270.5h60.3c3,0,5.4,2.4,5.4,5.4v6.9c0,3-2.4,5.4-5.4,5.4h-60.3c-3,0-5.4-2.4-5.4-5.4v-6.9
				C236,272.9,238.5,270.5,241.4,270.5z"/>
			<path class="st63" d="M181.5,291.1c-1.3-4.4-6.9-13.2,19.7-31.6c14.1-9.7,44.6-17.2,44.6-17.2l2.9-3.2c0,0,8.2,8.7,24.3,8.1
				c16.1-0.6,26.1-7.7,28-7.1c1.9,0.6,2.1,5.6,1.3,14.9c-0.8,9.4-1.7,14.2-9.2,16.5c-7.5,2.3-23.9,3.1-35.8,2.9
				c-5.9,0-11.8-0.3-17.6-1c0,0-25.5,16.1-41.4,17.2"/>
			<path class="st64" d="M240.5,185.6c-1.2,0.4-36.2,7.3-39.3,6.7s-11.1-7.5-14-7.3s-8.7,1.2-9.2,2.7c-0.5,1.5,1.3,6.7,1.3,6.7
				s-1.9,2.9-1,4.2c1,1.3,6.5-1.9,6.5-1.9s6.3,4.6,9.2,3.6c2.9-1,5.9-2.1,5.9-2.1s45,2.7,45.6,2.9c0.6,0.2,6.1,1.3,6.7-6.7
				C252.9,186.4,247.2,183.5,240.5,185.6z"/>
			<line class="st57" x1="179.4" y1="194.4" x2="187.2" y2="187.9"/>
			<polygon class="st55" points="182.2,191.5 186.4,178.3 188.2,178.7 186.1,188.3 			"/>
			<path class="st52" d="M213,199.6c0,0-46.5,12.8-54,11.9c-7.5-0.9-9.7-4.2-11.5-4.2s-6.5,2.3-8.7,2.1s-4.6-0.8-4.6,0.6
				c0,1.3,1.9,3.5,3.1,3.5c1.1,0,5.7-0.2,5.7-0.2s-9,2.7-9.4,4.4c-0.3,1.7,0.7,3.3,2.4,3.6c0,0,0.1,0,0.1,0c0.9,0.2,1.8,0.6,2.5,1.2
				c0.4,1.5,1,2.9,1.9,4.2c1.1,1.3,4.6,1.9,8.4,1.1s10.5-4.2,12.1-5.2c1.5-1,48.1-5.2,51.5-5.9c3.5-0.8,7.7-0.8,9-3.1
				C222.9,211.3,213,199.6,213,199.6z"/>
			<g>
				<defs>
					<path id="SVGID_99_" d="M213,199.6c0,0-46.5,12.8-54,11.9c-7.5-0.9-9.7-4.2-11.5-4.2s-6.5,2.3-8.7,2.1s-4.6-0.8-4.6,0.6
						c0,1.3,1.9,3.5,3.1,3.5c1.1,0,5.7-0.2,5.7-0.2s-9,2.7-9.4,4.4c-0.3,1.7,0.7,3.3,2.4,3.6c0,0,0.1,0,0.1,0
						c0.9,0.2,1.8,0.6,2.5,1.2c0.4,1.5,1,2.9,1.9,4.2c1.1,1.3,4.6,1.9,8.4,1.1s10.5-4.2,12.1-5.2c1.5-1,48.1-5.2,51.5-5.9
						c3.5-0.8,7.7-0.8,9-3.1C222.9,211.3,213,199.6,213,199.6z"/>
				</defs>
				<clipPath id="SVGID_2_">
					<use xlink:href="#SVGID_99_"  style="overflow:visible;"/>
				</clipPath>
				<g style="clip-path:url(#SVGID_2_);">
					<path class="st53" d="M156.7,220.8c-8,0-6.2-8-8.9-6.7c-2.3,1.2-11.4,2.3-14,5.2c0.4,1,1.3,1.7,2.3,1.9
						c0.9,0.2,1.8,0.6,2.5,1.2c0.4,1.5,1,2.9,1.9,4.2c1.1,1.3,4.6,1.9,8.4,1.1c3.8-0.8,10.5-4.2,12.1-5.2c1.5-1,48.1-5.2,51.5-5.9
						c2.8-0.6,6.1-0.7,7.9-2l1.1-1.1l-4.9-4.8C216.7,208.8,164.8,220.8,156.7,220.8z"/>
					<path class="st69" d="M156.7,220.8c-8,0-6.2-8-8.9-6.7c-2.3,1.2-11.4,2.3-14,5.2c0.4,1,1.3,1.7,2.3,1.9
						c0.9,0.2,1.8,0.6,2.5,1.2c0.4,1.5,1,2.9,1.9,4.2c1.1,1.3,4.6,1.9,8.4,1.1c3.8-0.8,10.5-4.2,12.1-5.2c1.5-1,48.1-5.2,51.5-5.9
						c2.8-0.6,6.1-0.7,7.9-2l1.1-1.1l-4.9-4.8C216.7,208.8,164.8,220.8,156.7,220.8z"/>
				</g>
			</g>
			<path class="st57" d="M213,199.6c0,0-46.5,12.8-54,11.9c-7.5-0.9-9.7-4.2-11.5-4.2s-6.5,2.3-8.7,2.1s-4.6-0.8-4.6,0.6
				c0,1.3,1.9,3.5,3.1,3.5c1.1,0,5.7-0.2,5.7-0.2s-9,2.7-9.4,4.4c-0.3,1.7,0.7,3.3,2.4,3.6c0,0,0.1,0,0.1,0c0.9,0.2,1.8,0.6,2.5,1.2
				c0.4,1.5,1,2.9,1.9,4.2c1.1,1.3,4.6,1.9,8.4,1.1s10.5-4.2,12.1-5.2c1.5-1,48.1-5.2,51.5-5.9c3.5-0.8,7.7-0.8,9-3.1
				C222.9,211.3,213,199.6,213,199.6z"/>
			<path class="st53" d="M252.3,152.7c0,0-4.2,11.5-9.6,19.1c-5.4,7.7-7.7,15.7-4.2,24.3c1.9,5,5.9,8.9,10.9,10.6
				c0,0-2.7,25.3-1.9,32c0.8,6.7,11.1,14.6,26.6,15.2s28.9-5,28.9-10.3s-10.9-33.9-10.9-39.8c0-5.9,1-24.5-4.2-41.1
				S264.6,140.4,252.3,152.7z"/>
			<g>
				<defs>
					<path id="SVGID_101_" d="M252.3,152.7c0,0-4.2,11.5-9.6,19.1c-5.4,7.7-7.7,15.7-4.2,24.3c1.9,5,5.9,8.9,10.9,10.6
						c0,0-2.7,25.3-1.9,32c0.8,6.7,11.1,14.6,26.6,15.2s28.9-5,28.9-10.3s-10.9-33.9-10.9-39.8c0-5.9,1-24.5-4.2-41.1
						S264.6,140.4,252.3,152.7z"/>
				</defs>
				<clipPath id="SVGID_3_">
					<use xlink:href="#SVGID_101_"  style="overflow:visible;"/>
				</clipPath>
				<g style="clip-path:url(#SVGID_3_);">
					<path class="st62" d="M288,162.4c-2.8-9-9.4-14.7-16.7-16.1c-3.6,0.8-13.3,3.1-15.7,3.6c-1.1,0.8-2.2,1.7-3.2,2.7
						c0,0-4.2,11.5-9.6,19.1c-3.6,5.1-5.8,10.5-5.8,16c14.1,3.3,35.7,8.8,33.6,9.4c-3.1,0.9-16.4-6.2-12.4-1.8
						c4,4.4,25.3,24.9,19.1,23.1c-6.2-1.8-20-16.4-16.4-9.3s13.3,18.7,10.2,18.7s-19.5-16.4-13.8-6.7c5.8,9.8,32,25.3,23.5,27.5
						c-4.9,1.3-15.2,0.9-21.2,1.9c4.7,1.9,9.6,3,14.7,3.1c15.5,0.6,28.9-5,28.9-10.3c0-5.4-10.9-33.9-10.9-39.8
						S293.1,179.1,288,162.4z"/>
				</g>
			</g>
			<path class="st57" d="M252.3,152.7c0,0-4.2,11.5-9.6,19.1c-5.4,7.7-7.7,15.7-4.2,24.3c1.9,5,5.9,8.9,10.9,10.6
				c0,0-2.7,25.3-1.9,32c0.8,6.7,11.1,14.6,26.6,15.2s28.9-5,28.9-10.3s-10.9-33.9-10.9-39.8c0-5.9,1-24.5-4.2-41.1
				S264.6,140.4,252.3,152.7z"/>
			<path class="st57" d="M254.7,199.1c0,0,14.1,22.7,34.6,29.2"/>
			<path class="st57" d="M253.1,202.9c0,0,5.4,17.9,19.5,26.5"/>
			<path class="st57" d="M256,188.6c0,0,12.7-5.5,17.9-9.1"/>
			<path class="st57" d="M250.7,189.9c0,0,4.6,1,16.3,0"/>
			<path class="st53" d="M251.2,155.5c-3,1.9-5.7,4.1-8,6.7c-4.4,4.6-25.7,36.8-25.7,36.8s6.3,13.2,8.2,13.6
				c1.9,0.4,35.3-28.1,38.3-31.6s5-9.7,4-12.5"/>
			<g>
				<defs>
					<path id="SVGID_103_" d="M251.2,155.5c-3,1.9-5.7,4.1-8,6.7c-4.4,4.6-25.7,36.8-25.7,36.8s6.3,13.2,8.2,13.6
						c1.9,0.4,35.3-28.1,38.3-31.6s5-9.7,4-12.5"/>
				</defs>
				<clipPath id="SVGID_4_">
					<use xlink:href="#SVGID_103_"  style="overflow:visible;"/>
				</clipPath>
				<g style="clip-path:url(#SVGID_4_);">
					<path class="st62" d="M264,181c3.1-3.5,5-9.7,4-12.5l-7.6-5.8l-2.4,2.5c0,0-0.2,9.8-8.9,15.1c-8.7,5.3-12.4,5.3-13.8,12
						s3.1,8.4-2.2,9.3s-8.9,1.3-8.9,4.9c0,1.8,0.2,3.5,0.4,5.3c0.3,0.4,0.6,0.6,1,0.8C227.6,213,261,184.4,264,181z"/>
				</g>
			</g>
			<path class="st57" d="M251.2,155.5c-3,1.9-5.7,4.1-8,6.7c-4.4,4.6-25.7,36.8-25.7,36.8s6.3,13.2,8.2,13.6
				c1.9,0.4,35.3-28.1,38.3-31.6s5-9.7,4-12.5"/>
			<path class="st64" d="M210.2,200.9c0,0,5.9,14.2,7.3,15.7c1.3,1.5,8.4,0.6,10.7-1.2s1.9-5.2,1.9-5.2s-8.8-15.5-9.7-16.2
				c-0.9-0.7-1.3,1-5.4,2.3C210.9,197.7,209.4,198.2,210.2,200.9z"/>
			<path class="st52" d="M219.8,116.4c0,0-0.4,5.6,0.6,7.3c1,1.7,3.6,3.5,3.6,5.7c0,2.3-1.9,5.4-1.3,7.1c0.6,1.7,3.6,1.9,3.6,1.9
				s5.7,7.1,7.5,9.6c1.7,2.5,2.5,1.5,5.2,0.8c2.7-0.8,8.4-5.7,11.7-9.6s-2.2-15.5-9.2-23.4c-7-7.8-17.6-7.7-19.9-5.4
				C219.2,112.7,219.8,116.4,219.8,116.4z"/>
			<g>
				<defs>
					<path id="SVGID_105_" d="M219.8,116.4c0,0-0.4,5.6,0.6,7.3c1,1.7,3.6,3.5,3.6,5.7c0,2.3-1.9,5.4-1.3,7.1
						c0.6,1.7,3.6,1.9,3.6,1.9s5.7,7.1,7.5,9.6c1.7,2.5,2.5,1.5,5.2,0.8c2.7-0.8,8.4-5.7,11.7-9.6s-2.2-15.5-9.2-23.4
						c-7-7.8-17.6-7.7-19.9-5.4C219.2,112.7,219.8,116.4,219.8,116.4z"/>
				</defs>
				<clipPath id="SVGID_5_">
					<use xlink:href="#SVGID_105_"  style="overflow:visible;"/>
				</clipPath>
				<g style="clip-path:url(#SVGID_5_);">
					<path class="st53" d="M235,111.1c-0.9,4.3-1.8,11.8,0.9,16.8c4,7.6,7.1,11.5,4.9,17.8c-0.4,1.1-0.8,2.1-1.2,2.9
						c2.9-1.2,8.1-5.8,11.1-9.4c3.2-3.8-2.2-15.5-9.2-23.4C239.6,113.9,237.4,112.2,235,111.1z"/>
					<path class="st69" d="M235,111.1c-0.9,4.3-1.8,11.8,0.9,16.8c4,7.6,7.1,11.5,4.9,17.8c-0.4,1.1-0.8,2.1-1.2,2.9
						c2.9-1.2,8.1-5.8,11.1-9.4c3.2-3.8-2.2-15.5-9.2-23.4C239.6,113.9,237.4,112.2,235,111.1z"/>
					<path class="st57" d="M224,124.7c0,0,0-2.9,3.5-1"/>
					<path class="st57" d="M226.4,127.3l0.5,2.7c0,0,2.1,0.7,3.6-2"/>
				</g>
			</g>
			<path class="st57" d="M219.8,116.4c0,0-0.4,5.6,0.6,7.3c1,1.7,3.6,3.5,3.6,5.7c0,2.3-1.9,5.4-1.3,7.1c0.6,1.7,3.6,1.9,3.6,1.9
				s5.7,7.1,7.5,9.6c1.7,2.5,2.5,1.5,5.2,0.8c2.7-0.8,8.4-5.7,11.7-9.6s-2.2-15.5-9.2-23.4c-7-7.8-17.6-7.7-19.9-5.4
				C219.2,112.7,219.8,116.4,219.8,116.4z"/>
			<path class="st55" d="M213.8,108v0.8l-0.3,9.4l10.3,1.3l2.3-4v4.4c3.2-0.3,6.4,0.2,9.4,1.3c5,1.9,11.3,15.5,10.9,21.1
				c-0.4,5.6-5.2,6.7-4.6,15.2c0.6,8.5,13.4,16.8,23.1,11.5c9.7-5.4,11.3-12.3,15.3-10.9c4,1.3,10.2,9.6,14-2.1s2.1-19.1-6.9-28.7
				c-9-9.6-16.1-8.8-17.2-16.5s-3.6-18-11.9-23.8c-8.3-5.8-20.1-6.1-30.3-1.7C217.7,89.6,213.8,103,213.8,108z"/>
			<g>
				<defs>
					<path id="SVGID_107_" d="M213.8,108v0.8l-0.3,9.4l10.3,1.3l2.3-4v4.4c3.2-0.3,6.4,0.2,9.4,1.3c5,1.9,11.3,15.5,10.9,21.1
						c-0.4,5.6-5.2,6.7-4.6,15.2c0.6,8.5,13.4,16.8,23.1,11.5c9.7-5.4,11.3-12.3,15.3-10.9c4,1.3,10.2,9.6,14-2.1s2.1-19.1-6.9-28.7
						c-9-9.6-16.1-8.8-17.2-16.5s-3.6-18-11.9-23.8c-8.3-5.8-20.1-6.1-30.3-1.7C217.7,89.6,213.8,103,213.8,108z"/>
				</defs>
				<clipPath id="SVGID_6_">
					<use xlink:href="#SVGID_107_"  style="overflow:visible;"/>
				</clipPath>
				<g style="clip-path:url(#SVGID_6_);">
					<path class="st74" d="M219.6,112.4c-0.1,0-0.1,0-0.2,0c-1.1-0.2-1.3-2.2-1.4-6.8c0-1.2-0.1-2.5-0.1-3.5c0-0.1,0-0.2,0-0.2
						c-0.9,1.1-2.9,5.7-4.3,9.7l-1-0.4c3.9-10.9,5.2-10.7,5.6-10.7c0.7,0.1,0.8,1.1,0.9,1.5c0.1,1,0.1,2.3,0.1,3.5
						c0,1.9,0.1,5.1,0.5,5.7c0.5-0.5,0.9-1.2,1.2-1.9c1.1-2.3,2.2-3.2,3.2-3.2c1.3,0,1.9,1.8,2.4,3c0.1,0.3,0.2,0.6,0.4,0.9
						c0.5,0.1,2.2-1.6,3.1-2.5l0.8-0.8c0.4-0.5,0.9-0.8,1.5-0.8c0.6,0.1,0.9,0.7,1.2,1.2c0.3,0.6,0.7,1.2,1.2,1.7
						c0.3,0.3,0.5,0.2,0.6,0.2c0.8-0.2,1.7-2.3,2.8-4.7c0.2-0.6,0.5-1.2,0.8-1.8c0.3-0.6,0.8-1.7,1.6-1.6c1,0.1,1.5,1.7,2.2,4
						c0.4,1.9,1.2,3.7,2.2,5.4c0.2,0.3,0.6,0.6,0.9,0.6c0.8-0.1,1.8-2.6,2.3-4.1c0.2-0.7,0.6-1.5,0.9-2.2c0.2-0.4,0.5-0.6,0.9-0.6
						c0.8,0,1.4,1.1,2.1,2.6c0.6,1.1,1.3,2.6,2,2.9c0.1,0.1,0.2,0,0.2,0c0.4-0.2,0.8-1.6,1.1-2.7c0.3-1.3,0.7-2.5,1.3-3.6
						c0.3-0.5,0.9-0.9,1.5-1c1.4-0.2,3,1,4,1.8c-0.1-0.6-0.2-1.3-0.3-2c-0.5-3.6-0.7-5.3,0.2-5.8c0.4-0.2,0.9-0.1,1.5,0.4
						c1,0.9,1.9,1.9,2.8,2.9c2,2.2,5,5.6,6.2,5.3c0.3-0.1,0.5-0.6,0.6-1l1.1,0.2c-0.2,1.1-0.7,1.7-1.4,1.9c-1.7,0.5-4.1-2-7.3-5.6
						c-0.9-1-1.8-2-2.7-2.9c-0.1-0.1-0.2-0.1-0.3-0.2c-0.1,1.6,0,3.1,0.4,4.7c0.4,2.5,0.5,3.2,0,3.5c-0.2,0.1-0.5,0.1-0.7,0
						c-0.2-0.1-0.4-0.3-0.7-0.5c-0.9-0.7-2.3-1.8-3.2-1.6c-0.3,0.1-0.6,0.3-0.7,0.5c-0.5,1-0.9,2.1-1.2,3.2c-0.4,1.6-0.8,3-1.6,3.4
						c-0.3,0.2-0.7,0.2-1.1,0c-1-0.4-1.8-1.9-2.5-3.4c-0.3-0.7-0.7-1.3-1.1-1.9l0,0c-0.3,0.7-0.6,1.3-0.8,2
						c-0.8,2.2-1.7,4.6-3.2,4.8c-0.8,0.1-1.5-0.3-1.9-1c-1.1-1.8-1.9-3.7-2.3-5.7c-0.2-1.1-0.7-2.2-1.2-3.2c-0.2,0.3-0.4,0.6-0.6,1
						c-0.3,0.6-0.6,1.2-0.8,1.8c-1.4,3-2.3,5-3.6,5.3c-0.5,0.1-1.1,0-1.5-0.4c-0.6-0.5-1.1-1.2-1.5-2c-0.1-0.2-0.3-0.5-0.4-0.7
						c0,0-0.2,0-0.6,0.5l-0.8,0.8c-1.8,1.8-2.9,2.9-3.9,2.9c-0.3,0-0.6-0.2-0.8-0.5c-0.2-0.3-0.4-0.7-0.5-1.1
						c-0.3-0.8-0.9-2.3-1.5-2.3c-0.2,0-0.9,0.2-2.2,2.6C220.9,111.7,220.3,112.4,219.6,112.4z"/>
					<path class="st75" d="M241.2,155.9c0,0,2.7-10,5.4-6.8s4.6,4.1,4.9,1.5c0.2-2.7,0-6.6,2.7-2.9s9.3,7.3,9.7,1.7
						c0.5-5.6,1.2-13.2,4.4-9.3c3.2,3.9,5.8,6.8,6.1,4.6c0.2-2.2,2.4-3.9,3.4-1.5c1,2.4,1.7,4.9,2.4-0.7c0.7-5.6-2.7-11.7,1-10.2
						c3.7,1.5,5.4,6.3,5.4,3.7c0-2.7-4.4-5.9-0.5-4.9c3.9,1,4.4,3.4,4.9,2s-2.2-4.9,1.2-4.9"/>
				</g>
			</g>
			<path class="st57" d="M213.8,108v0.8l-0.3,9.4l10.3,1.3l2.3-4v4.4c3.2-0.3,6.4,0.2,9.4,1.3c5,1.9,11.3,15.5,10.9,21.1
				c-0.4,5.6-5.2,6.7-4.6,15.2c0.6,8.5,13.4,16.8,23.1,11.5c9.7-5.4,11.3-12.3,15.3-10.9c4,1.3,10.2,9.6,14-2.1s2.1-19.1-6.9-28.7
				c-9-9.6-16.1-8.8-17.2-16.5s-3.6-18-11.9-23.8c-8.3-5.8-20.1-6.1-30.3-1.7C217.7,89.6,213.8,103,213.8,108z"/>
		</g>
	</g>
</g>
</svg>
