<svg id="Layer_3" data-name="Layer 3" xmlns="http://www.w3.org/2000/svg" viewBox="0 0 441.2 311.6"><defs><style>.cls-1{fill:#eaffd2;}</style></defs><title>stain-backgr</title><path class="cls-1" d="M19.6,80.2c-27,48.1-33,107.1,26.7,129.2,51,18.8,114.2-16.1,153.9,27.3s50.5,71.8,120.3,74.7c53.3,2.2,125.7-11.8,120.4-76.7-2.1-26.2-15.6-50.9-18.5-77.3-2.1-18.8-.9-37.7-4.1-56.6C411.6,62,396.8,14,353.7,2.3,323.2-6,291.4,10.6,261.7,17c-33.4,7.2-64.4,7.6-97.8,3.5C93.4,11.8,47,31.3,10.9,95.8l8.8-15.6h0Z"/></svg>