<svg id="Layer_3" data-name="Layer 3" xmlns="http://www.w3.org/2000/svg" viewBox="0 0 468.4 379.9"><defs><style>.cls-1{fill:#eaffd2;}</style></defs><title>stain-backgr</title><path class="cls-1" d="M433.8,184.5c-52.3-32.7-129.5-7.9-164.2-65.6C234,59.7,229,26.9,152.6,7.8,94.2-6.8,11.3-7.6,3.4,66.4c-3.2,29.9,6.5,60.6,4.1,91C5.8,179.1.5,200,.1,221.9c-0.9,45,5.4,102.2,50.5,125.1,32,16.3,70.6,4.8,104.8,4.4,38.4-.5,72.7,6.1,108.8,18.3,76,25.8,142-1.9,171.9-34.2C461.3,308.2,495.2,222.8,433.8,184.5Z"/></svg>